{
.appVersion = "983";
classes = (
{
automatic = 1;

glyphs = (
{
glyphname = A;
layers = (
{
anchors = (
{
name = bottom;
position = "{333, -150}";
},
{
name = ogonek;
position = "{608, 0}";
},
{
name = top;
position = "{333, 810}";
}
);
background = {
paths = (
{
closed = 1;
nodes = (
"177 277 LINE",
"492 277 LINE",
"339 708 LINE"
);
},
{
closed = 1;
nodes = (
"48 0 LINE",
"322 732 LINE",
"356 732 LINE",
"618 0 LINE",
"592 0 LINE",
"501 253 LINE",
"168 253 LINE",
"74 0 LINE"
);
}
);
};
layerId = "970D4E8E-4EF0-498B-97F3-F7DEE39AB542";
paths = (
{
closed = 1;
nodes = (
"74 0 LINE",
"167 255 LINE",
"498 255 LINE",
"592 0 LINE",
"618 0 LINE",
"350 732 LINE",
"316 732 LINE",
"48 0 LINE"
);
},
{
closed = 1;
nodes = (
"333 708 LINE",
"489 277 LINE",
"174 277 LINE"
);
}
);
width = 666;
},
{
anchors = (
{
name = bottom;
position = "{344, -150}";
},
{
name = ogonek;
position = "{677, 0}";
},
{
name = top;
position = "{344, 810}";
}
);
background = {
components = (
{
name = V;
transform = "{-1, 0, 0, -1, 692, 742}";
}
);
};
layerId = "63BEBE16-5EEB-4E8E-8514-0A5E9B1E5A6A";
paths = (
{
closed = 1;
nodes = (
"204 0 LINE",
"233 118 LINE",
"456 118 LINE",
"486 0 LINE",
"687 0 LINE",
"467 743 LINE",
"225 743 LINE",
"5 0 LINE"
);
},
{
closed = 1;
nodes = (
"344 578 LINE",
"411 292 LINE",
"278 292 LINE"
);
}
);
width = 692;
}
);
leftKerningGroup = A;
note = "\012    GF Latin Plus glyph\012  ";
rightKerningGroup = A;
unicode = 0041;
userData = {
com.fontlab.hintData = {
hhints = (
{
position = 0;
width = 21;
},
{
position = 253;
width = 24;
},
{
position = 712;
width = 20;
}
);
};
com.typemytype.robofont.layerData = {
background = {
anchors = (
);
components = (
);
contours = (
{
points = (
{
segmentType = line;
smooth = 0;
x = 177;
y = 277;
},
{
segmentType = line;
smooth = 0;
x = 492;
y = 277;
},
{
segmentType = line;
smooth = 0;
x = 339;
y = 708;
}
);
},
{
points = (
{
segmentType = line;
smooth = 0;
x = 48;
y = 0;
},
{
segmentType = line;
smooth = 0;
x = 322;
y = 732;
},
{
segmentType = line;
smooth = 0;
x = 356;
y = 732;
},
{
segmentType = line;
smooth = 0;
x = 618;
y = 0;
},
{
segmentType = line;
smooth = 0;
x = 592;
y = 0;
},
{
segmentType = line;
smooth = 0;
x = 501;
y = 253;
},
{
segmentType = line;
smooth = 0;
x = 168;
y = 253;
},
{
segmentType = line;
smooth = 0;
x = 74;
y = 0;
}
);
}
);
lib = {
};
name = A;
unicodes = (
);
width = 666;
};
};
};
},
{
glyphname = AE;
layers = (
{
anchors = (
{
name = top;
position = "{528, 810}";
}
);
background = {
components = (
{
name = A;
},
{
name = E;
transform = "{1, 0, 0, 1, 371, 0}";
}
);
paths = (
{
closed = 1;
nodes = (
"246 276 LINE",
"488 276 LINE",
"488 657 LINE"
);
},
{
closed = 1;
nodes = (
"40 0 LINE",
"416 590 LINE SMOOTH",
"479 689 OFFCURVE",
"504 737 OFFCURVE",
"614 732 CURVE SMOOTH",
"882 722 LINE",
"882 708 LINE",
"614 708 LINE SMOOTH",
"498 708 OFFCURVE",
"512 667 OFFCURVE",
"512 592 CURVE SMOOTH",
"512 375 LINE",
"842 370 LINE",
"842 356 LINE",
"512 351 LINE",
"512 123 LINE SMOOTH",
"512 31 OFFCURVE",
"569 21 OFFCURVE",
"624 21 CURVE SMOOTH",
"882 21 LINE",
"882 7 LINE",
"624 -3 LINE SMOOTH",
"560 -5 OFFCURVE",
"488 8 OFFCURVE",
"488 121 CURVE SMOOTH",
"488 252 LINE",
"230 252 LINE",
"70 0 LINE"
);
}
);
};
layerId = "970D4E8E-4EF0-498B-97F3-F7DEE39AB542";
paths = (
{
closed = 1;
nodes = (
"710 -1 OFFCURVE",
"796 1 OFFCURVE",
"882 3 CURVE",
"882 19 LINE",
"624 19 LINE SMOOTH",
"549 19 OFFCURVE",
"512 51 OFFCURVE",
"512 123 CURVE SMOOTH",
"512 352 LINE",
"842 355 LINE",
"842 371 LINE",
"512 374 LINE",
"512 635 LINE SMOOTH",
"512 687 OFFCURVE",
"533 710 OFFCURVE",
"594 710 CURVE SMOOTH",
"882 710 LINE",
"882 726 LINE",
"788 728 OFFCURVE",
"694 730 OFFCURVE",
"600 732 CURVE SMOOTH",
"523 734 OFFCURVE",
"482 695 OFFCURVE",
"449 643 CURVE SMOOTH",
"48 0 LINE",
"74 0 LINE",
"233 253 LINE",
"488 253 LINE",
"488 121 LINE SMOOTH",
"488 28 OFFCURVE",
"540 -5 OFFCURVE",
"624 -3 CURVE SMOOTH"
);
},
{
closed = 1;
nodes = (
"488 657 LINE",
"488 275 LINE",
"246 275 LINE"
);
}
);
width = 950;
},
{
anchors = (
{
name = top;
position = "{534, 810}";
}
);
background = {
components = (
{
name = A;
},
{
name = E;
transform = "{1, 0, 0, 1, 388, 0}";
}
);
};
layerId = "63BEBE16-5EEB-4E8E-8514-0A5E9B1E5A6A";
paths = (
{
closed = 1;
nodes = (
"779 -6 OFFCURVE",
"872 3 OFFCURVE",
"956 14 CURVE",
"956 176 LINE",
"699 176 LINE SMOOTH",
"670 176 OFFCURVE",
"637 175 OFFCURVE",
"637 228 CURVE SMOOTH",
"637 284 LINE",
"906 294 LINE",
"906 448 LINE",
"637 458 LINE",
"637 516 LINE SMOOTH",
"637 546 OFFCURVE",
"650 564 OFFCURVE",
"689 564 CURVE SMOOTH",
"956 564 LINE",
"956 727 LINE",
"891 734 OFFCURVE",
"774 743 OFFCURVE",
"649 743 CURVE SMOOTH",
"465 743 OFFCURVE",
"360 692 OFFCURVE",
"269 514 CURVE SMOOTH",
"5 0 LINE",
"194 0 LINE",
"261 118 LINE",
"463 118 LINE",
"464 111 LINE SMOOTH",
"477 19 OFFCURVE",
"539 -6 OFFCURVE",
"659 -6 CURVE SMOOTH"
);
},
{
closed = 1;
nodes = (
"463 527 LINE",
"463 282 LINE",
"346 282 LINE"
);
}
);
width = 992;
}
);
leftKerningGroup = A;
note = "\012    GF Latin Plus glyph\012  ";
rightKerningGroup = E;
unicode = 00C6;
userData = {
com.fontlab.hintData = {
hhints = (
{
position = -3;
width = 24;
},
{
position = 7;
width = 14;
},
{
position = 252;
width = 24;
},
{
position = 351;
width = 24;
},
{
position = 708;
width = 24;
},
{
position = 708;
width = 14;
}
);
vhints = (
{
position = 488;
width = 24;
}
);
};
com.typemytype.robofont.layerData = {
background = {
anchors = (
);
components = (
{
baseGlyph = A;
transformation = (
1,
0,
0,
1,
0,
0
);
},
{
baseGlyph = E;
transformation = (
1,
0,
0,
1,
371,
0
);
}
);
contours = (
{
points = (
{
segmentType = line;
smooth = 0;
x = 246;
y = 276;
},
{
segmentType = line;
smooth = 0;
x = 488;
y = 276;
},
{
segmentType = line;
smooth = 0;
x = 488;
y = 657;
}
);
},
{
points = (
{
segmentType = line;
smooth = 0;
x = 40;
y = 0;
},
{
segmentType = line;
smooth = 1;
x = 416;
y = 590;
},
{
smooth = 0;
x = 479;
y = 689;
},
{
smooth = 0;
x = 504;
y = 737;
},
{
segmentType = curve;
smooth = 1;
x = 614;
y = 732;
},
{
segmentType = line;
smooth = 0;
x = 882;
y = 722;
},
{
segmentType = line;
smooth = 0;
x = 882;
y = 708;
},
{
segmentType = line;
smooth = 1;
x = 614;
y = 708;
},
{
smooth = 0;
x = 498;
y = 708;
},
{
smooth = 0;
x = 512;
y = 667;
},
{
segmentType = curve;
smooth = 1;
x = 512;
y = 592;
},
{
segmentType = line;
smooth = 0;
x = 512;
y = 375;
},
{
segmentType = line;
smooth = 0;
x = 842;
y = 370;
},
{
segmentType = line;
smooth = 0;
x = 842;
y = 356;
},
{
segmentType = line;
smooth = 0;
x = 512;
y = 351;
},
{
segmentType = line;
smooth = 1;
x = 512;
y = 123;
},
{
smooth = 0;
x = 512;
y = 31;
},
{
smooth = 0;
x = 569;
y = 21;
},
{
segmentType = curve;
smooth = 1;
x = 624;
y = 21;
},
{
segmentType = line;
smooth = 0;
x = 882;
y = 21;
},
{
segmentType = line;
smooth = 0;
x = 882;
y = 7;
},
{
segmentType = line;
smooth = 1;
x = 624;
y = -3;
},
{
smooth = 0;
x = 560;
y = -5;
},
{
smooth = 0;
x = 488;
y = 8;
},
{
segmentType = curve;
smooth = 1;
x = 488;
y = 121;
},
{
segmentType = line;
smooth = 0;
x = 488;
y = 252;
},
{
segmentType = line;
smooth = 0;
x = 230;
y = 252;
},
{
segmentType = line;
smooth = 0;
x = 70;
y = 0;
}
);
}
);
lib = {
};
name = AE;
unicodes = (
);
width = 950;
};
};
};
},
{
glyphname = B;
layers = (
{
anchors = (
{
name = top;
position = "{293, 810}";
}
);
background = {
paths = (
{
closed = 1;
nodes = (
"112 395 LINE",
"341 395 LINE SMOOTH",
"434 395 OFFCURVE",
"504 451 OFFCURVE",
"507 549 CURVE SMOOTH",
"511 667 OFFCURVE",
"448 708 OFFCURVE",
"341 708 CURVE SMOOTH",
"112 708 LINE"
);
},
{
closed = 1;
nodes = (
"112 25 LINE",
"341 25 LINE SMOOTH",
"420 25 OFFCURVE",
"510 56 OFFCURVE",
"510 206 CURVE SMOOTH",
"510 298 OFFCURVE",
"433 373 OFFCURVE",
"341 371 CURVE",
"112 371 LINE"
);
},
{
closed = 1;
nodes = (
"88 0 LINE",
"88 732 LINE",
"341 732 LINE SMOOTH",
"489 732 OFFCURVE",
"531 656 OFFCURVE",
"531 549 CURVE SMOOTH",
"531 453 OFFCURVE",
"465 391 OFFCURVE",
"402 384 CURVE",
"446 374 OFFCURVE",
"534 318 OFFCURVE",
"534 204 CURVE SMOOTH",
"534 102 OFFCURVE",
"495 0 OFFCURVE",
"341 0 CURVE SMOOTH"
);
}
);
};
layerId = "970D4E8E-4EF0-498B-97F3-F7DEE39AB542";
paths = (
{
closed = 1;
nodes = (
"341 0 LINE SMOOTH",
"455 0 OFFCURVE",
"534 42 OFFCURVE",
"534 204 CURVE SMOOTH",
"534 328 OFFCURVE",
"446 370 OFFCURVE",
"402 380 CURVE",
"453 395 OFFCURVE",
"507 453 OFFCURVE",
"507 548 CURVE SMOOTH",
"507 676 OFFCURVE",
"443.731 732 OFFCURVE",
"334 732 CURVE SMOOTH",
"88 732 LINE",
"88 0 LINE"
);
},
{
closed = 1;
nodes = (
"112 368 LINE",
"341 368 LINE SMOOTH",
"433 368 OFFCURVE",
"510 309 OFFCURVE",
"510 206 CURVE SMOOTH",
"510 54 OFFCURVE",
"440 22 OFFCURVE",
"341 22 CURVE SMOOTH",
"112 22 LINE"
);
},
{
closed = 1;
nodes = (
"112 710 LINE",
"334 710 LINE SMOOTH",
"424.781 710 OFFCURVE",
"487 667.992 OFFCURVE",
"483 548 CURVE SMOOTH",
"480 450.005 OFFCURVE",
"421 390 OFFCURVE",
"341 390 CURVE SMOOTH",
"112 390 LINE"
);
}
);
width = 584;
},
{
anchors = (
{
name = top;
position = "{294, 810}";
}
);
background = {
components = (
{
name = R;
}
);
paths = (
{
closed = 1;
nodes = (
"-351 460 LINE",
"-242 460 LINE SMOOTH",
"-212 460 OFFCURVE",
"-197 483 OFFCURVE",
"-197 511 CURVE SMOOTH",
"-197 555 OFFCURVE",
"-220 568 OFFCURVE",
"-242 568 CURVE SMOOTH",
"-351 568 LINE"
);
},
{
closed = 1;
nodes = (
"-351 164 LINE",
"-232 164 LINE SMOOTH",
"-194 164 OFFCURVE",
"-183 190 OFFCURVE",
"-183 234 CURVE SMOOTH",
"-183 271 OFFCURVE",
"-193 306 OFFCURVE",
"-232 306 CURVE SMOOTH",
"-351 306 LINE"
);
},
{
closed = 1;
nodes = (
"-545 0 LINE",
"-545 732 LINE",
"-227 732 LINE SMOOTH",
"-71 732 OFFCURVE",
"-7 656 OFFCURVE",
"-7 532 CURVE SMOOTH",
"-7 470 OFFCURVE",
"-42 386 OFFCURVE",
"-114 380 CURVE",
"-39 368 OFFCURVE",
"11 300 OFFCURVE",
"11 224 CURVE SMOOTH",
"11 60 OFFCURVE",
"-68 0 OFFCURVE",
"-222 0 CURVE SMOOTH"
);
}
);
};
layerId = "63BEBE16-5EEB-4E8E-8514-0A5E9B1E5A6A";
paths = (
{
closed = 1;
nodes = (
"378 0 LINE SMOOTH",
"532 0 OFFCURVE",
"611 57 OFFCURVE",
"611 204 CURVE SMOOTH",
"611 309 OFFCURVE",
"556.429 368.664 OFFCURVE",
"486 386 CURVE",
"554.152 402.759 OFFCURVE",
"588 459 OFFCURVE",
"588 545 CURVE SMOOTH",
"588 668 OFFCURVE",
"522.71 743 OFFCURVE",
"363 743 CURVE SMOOTH",
"55 743 LINE",
"55 0 LINE"
);
},
{
closed = 1;
nodes = (
"249 304 LINE",
"372 304 LINE SMOOTH",
"407 304 OFFCURVE",
"427 279.492 OFFCURVE",
"427 239 CURVE SMOOTH",
"427 198.508 OFFCURVE",
"407 174 OFFCURVE",
"372 174 CURVE SMOOTH",
"249 174 LINE"
);
},
{
closed = 1;
nodes = (
"249 569 LINE",
"361 569 LINE SMOOTH",
"382 569 OFFCURVE",
"404 555.055 OFFCURVE",
"404 510 CURVE SMOOTH",
"404 476.745 OFFCURVE",
"390 451 OFFCURVE",
"361 451 CURVE SMOOTH",
"249 451 LINE"
);
}
);
width = 643;
}
);
note = "\012    GF Latin Plus glyph\012  ";
unicode = 0042;
userData = {
com.fontlab.hintData = {
hhints = (
{
position = 0;
width = 25;
},
{
position = 371;
width = 24;
},
{
position = 708;
width = 24;
}
);
vhints = (
{
position = 108;
width = 24;
},
{
position = 530;
width = 24;
}
);
};
com.typemytype.robofont.layerData = {
background = {
anchors = (
);
components = (
);
contours = (
{
points = (
{
segmentType = line;
smooth = 0;
x = 112;
y = 395;
},
{
segmentType = line;
smooth = 1;
x = 341;
y = 395;
},
{
smooth = 0;
x = 434;
y = 395;
},
{
smooth = 0;
x = 504;
y = 451;
},
{
segmentType = curve;
smooth = 1;
x = 507;
y = 549;
},
{
smooth = 0;
x = 511;
y = 667;
},
{
smooth = 0;
x = 448;
y = 708;
},
{
segmentType = curve;
smooth = 1;
x = 341;
y = 708;
},
{
segmentType = line;
smooth = 0;
x = 112;
y = 708;
}
);
},
{
points = (
{
segmentType = line;
smooth = 0;
x = 112;
y = 25;
},
{
segmentType = line;
smooth = 1;
x = 341;
y = 25;
},
{
smooth = 0;
x = 420;
y = 25;
},
{
smooth = 0;
x = 510;
y = 56;
},
{
segmentType = curve;
smooth = 1;
x = 510;
y = 206;
},
{
smooth = 0;
x = 510;
y = 298;
},
{
smooth = 0;
x = 433;
y = 373;
},
{
segmentType = curve;
smooth = 0;
x = 341;
y = 371;
},
{
segmentType = line;
smooth = 0;
x = 112;
y = 371;
}
);
},
{
points = (
{
segmentType = line;
smooth = 0;
x = 88;
y = 0;
},
{
segmentType = line;
smooth = 0;
x = 88;
y = 732;
},
{
segmentType = line;
smooth = 1;
x = 341;
y = 732;
},
{
smooth = 0;
x = 489;
y = 732;
},
{
smooth = 0;
x = 531;
y = 656;
},
{
segmentType = curve;
smooth = 1;
x = 531;
y = 549;
},
{
smooth = 0;
x = 531;
y = 453;
},
{
smooth = 0;
x = 465;
y = 391;
},
{
segmentType = curve;
smooth = 0;
x = 402;
y = 384;
},
{
smooth = 0;
x = 446;
y = 374;
},
{
smooth = 0;
x = 534;
y = 318;
},
{
segmentType = curve;
smooth = 1;
x = 534;
y = 204;
},
{
smooth = 0;
x = 534;
y = 102;
},
{
smooth = 0;
x = 495;
y = 0;
},
{
segmentType = curve;
smooth = 1;
x = 341;
y = 0;
}
);
}
);
lib = {
};
name = B;
unicodes = (
);
width = 584;
};
};
};
},
{
glyphname = C;
layers = (
{
anchors = (
{
name = bottom;
position = "{330, -150}";
},
{
name = top;
position = "{330, 810}";
}
);
background = {
components = (
{
name = O;
}
);
};
layerId = "970D4E8E-4EF0-498B-97F3-F7DEE39AB542";
paths = (
{
closed = 1;
nodes = (
"373 -6 OFFCURVE",
"460 2 OFFCURVE",
"527 14 CURVE",
"527 30 LINE",
"486 23 OFFCURVE",
"424 16 OFFCURVE",
"324 16 CURVE SMOOTH",
"159 16 OFFCURVE",
"94 66 OFFCURVE",
"94 368 CURVE SMOOTH",
"94 650 OFFCURVE",
"160 716 OFFCURVE",
"329 716 CURVE SMOOTH",
"405 716 OFFCURVE",
"496 707 OFFCURVE",
"527 702 CURVE",
"527 718 LINE",
"457 731 OFFCURVE",
"365 738 OFFCURVE",
"331 738 CURVE SMOOTH",
"141 738 OFFCURVE",
"70 661 OFFCURVE",
"70 368 CURVE SMOOTH",
"70 54 OFFCURVE",
"141 -6 OFFCURVE",
"323 -6 CURVE SMOOTH"
);
}
);
width = 577;
},
{
anchors = (
{
name = bottom;
position = "{340, -150}";
},
{
name = top;
position = "{310, 810}";
}
);
background = {
paths = (
{
closed = 1;
nodes = (
"31 368 CURVE SMOOTH",
"31 602 OFFCURVE",
"85 740 OFFCURVE",
"284 740 CURVE SMOOTH",
"428 740 OFFCURVE",
"462 732 OFFCURVE",
"548 700 CURVE",
"548 549 LINE",
"547 549 OFFCURVE",
"447 566 OFFCURVE",
"344 566 CURVE SMOOTH",
"260 566 OFFCURVE",
"225 570 OFFCURVE",
"225 366 CURVE SMOOTH",
"225 202 OFFCURVE",
"244 168 OFFCURVE",
"345 168 CURVE SMOOTH",
"450 168 OFFCURVE",
"548 177 OFFCURVE",
"548 177 CURVE",
"548 26 LINE",
"486 0 OFFCURVE",
"432 -9 OFFCURVE",
"284 -6 CURVE SMOOTH",
"99 -3 OFFCURVE",
"31 122 OFFCURVE"
);
}
);
};
layerId = "63BEBE16-5EEB-4E8E-8514-0A5E9B1E5A6A";
paths = (
{
closed = 1;
nodes = (
"432 -6 OFFCURVE",
"503 6 OFFCURVE",
"553 26 CURVE",
"553 177 LINE",
"515 172 OFFCURVE",
"455 168 OFFCURVE",
"354 168 CURVE SMOOTH",
"249 168 OFFCURVE",
"230 211 OFFCURVE",
"230 372 CURVE SMOOTH",
"230 551 OFFCURVE",
"260.756 576 OFFCURVE",
"352 576 CURVE SMOOTH",
"441.662 576 OFFCURVE",
"514.55 566.887 OFFCURVE",
"553 559 CURVE",
"553 710 LINE",
"513 727 OFFCURVE",
"432 750 OFFCURVE",
"309 750 CURVE SMOOTH",
"148 750 OFFCURVE",
"36 683.824 OFFCURVE",
"36 374 CURVE SMOOTH",
"36 53.843 OFFCURVE",
"142 -6 OFFCURVE",
"309 -6 CURVE SMOOTH"
);
}
);
width = 589;
}
);
leftKerningGroup = O;
note = "\012    GF Latin Plus glyph\012  ";
unicode = 0043;
userData = {
com.fontlab.hintData = {
hhints = (
{
position = -6;
width = 24;
},
{
position = 716;
width = 24;
}
);
vhints = (
{
position = 74;
width = 24;
}
);
};
com.typemytype.robofont.layerData = {
background = {
anchors = (
);
components = (
{
baseGlyph = O;
transformation = (
1,
0,
0,
1,
0,
0
);
}
);
contours = (
);
lib = {
};
name = C;
unicodes = (
);
width = 577;
};
};
};
},
{
glyphname = D;
layers = (
{
anchors = (
{
name = bottom;
position = "{310, -150}";
},
{
name = top;
position = "{310, 810}";
}
);
background = {
components = (
{
name = O;
}
);
};
layerId = "970D4E8E-4EF0-498B-97F3-F7DEE39AB542";
paths = (
{
closed = 1;
nodes = (
"361 0 LINE SMOOTH",
"511 0 OFFCURVE",
"590 150 OFFCURVE",
"590 366 CURVE SMOOTH",
"590 616 OFFCURVE",
"520 732 OFFCURVE",
"361 732 CURVE SMOOTH",
"88 732 LINE",
"88 0 LINE"
);
},
{
closed = 1;
nodes = (
"112 710 LINE",
"361 710 LINE SMOOTH",
"508 710 OFFCURVE",
"566 606 OFFCURVE",
"566 366 CURVE SMOOTH",
"566 165 OFFCURVE",
"500 22 OFFCURVE",
"361 22 CURVE SMOOTH",
"112 22 LINE"
);
}
);
width = 660;
},
{
anchors = (
{
name = bottom;
position = "{290, -150}";
},
{
name = top;
position = "{334, 810}";
}
);
background = {
components = (
{
name = O;
transform = "{1, 0, 0, 1, 10, 0}";
}
);
paths = (
{
closed = 1;
nodes = (
"249 164 LINE",
"378 164 LINE SMOOTH",
"435 164 OFFCURVE",
"453 223 OFFCURVE",
"453 364 CURVE SMOOTH",
"453 545 OFFCURVE",
"425 568 OFFCURVE",
"378 568 CURVE SMOOTH",
"249 568 LINE"
);
},
{
closed = 1;
nodes = (
"55 0 LINE",
"55 732 LINE",
"398 732 LINE SMOOTH",
"597 732 OFFCURVE",
"647 570 OFFCURVE",
"647 363 CURVE SMOOTH",
"647 107 OFFCURVE",
"565 0 OFFCURVE",
"398 0 CURVE SMOOTH"
);
}
);
};
layerId = "63BEBE16-5EEB-4E8E-8514-0A5E9B1E5A6A";
paths = (
{
closed = 1;
nodes = (
"383 0 LINE SMOOTH",
"564 0 OFFCURVE",
"652 109.591 OFFCURVE",
"652 371 CURVE SMOOTH",
"652 579.683 OFFCURVE",
"598 743 OFFCURVE",
"383 743 CURVE SMOOTH",
"55 743 LINE",
"55 0 LINE"
);
},
{
closed = 1;
nodes = (
"249 569 LINE",
"363 569 LINE SMOOTH",
"422 569 OFFCURVE",
"458 546.662 OFFCURVE",
"458 371 CURVE SMOOTH",
"458 231.585 OFFCURVE",
"436 174 OFFCURVE",
"363 174 CURVE SMOOTH",
"249 174 LINE"
);
}
);
width = 688;
}
);
note = "\012    GF Latin Plus glyph\012  ";
rightKerningGroup = O;
unicode = 0044;
userData = {
com.fontlab.hintData = {
hhints = (
{
position = 0;
width = 24;
},
{
position = 708;
width = 24;
}
);
vhints = (
{
position = 108;
width = 24;
},
{
position = 596;
width = 24;
}
);
};
com.typemytype.robofont.layerData = {
background = {
anchors = (
);
components = (
{
baseGlyph = O;
transformation = (
1,
0,
0,
1,
0,
0
);
}
);
contours = (
);
lib = {
};
name = D;
unicodes = (
);
width = 660;
};
};
};
},
{
glyphname = Eth;
layers = (
{
background = {
paths = (
{
closed = 1;
nodes = (
"132 24 LINE",
"351 24 LINE SMOOTH",
"518 24 OFFCURVE",
"586 216 OFFCURVE",
"586 364 CURVE SMOOTH",
"586 600 OFFCURVE",
"499 708 OFFCURVE",
"351 708 CURVE SMOOTH",
"132 708 LINE",
"132 380 LINE",
"291 380 LINE",
"291 366 LINE",
"132 366 LINE"
);
},
{
closed = 1;
nodes = (
"43 366 LINE",
"43 380 LINE",
"108 380 LINE",
"108 732 LINE",
"351 732 LINE SMOOTH",
"577 732 OFFCURVE",
"610 513 OFFCURVE",
"610 363 CURVE SMOOTH",
"610 197 OFFCURVE",
"536 0 OFFCURVE",
"351 0 CURVE SMOOTH",
"108 0 LINE",
"108 366 LINE"
);
}
);
};
components = (
{
name = D;
}
);
layerId = "970D4E8E-4EF0-498B-97F3-F7DEE39AB542";
paths = (
{
closed = 1;
nodes = (
"321 361 LINE",
"321 383 LINE",
"17 383 LINE",
"17 361 LINE"
);
}
);
width = 660;
},
{
background = {
paths = (
{
closed = 1;
nodes = (
"239 164 LINE",
"368 164 LINE SMOOTH",
"425 164 OFFCURVE",
"443 223 OFFCURVE",
"443 364 CURVE SMOOTH",
"443 545 OFFCURVE",
"415 568 OFFCURVE",
"368 568 CURVE SMOOTH",
"239 568 LINE",
"239 410 LINE",
"328 410 LINE",
"328 336 LINE",
"239 336 LINE"
);
},
{
closed = 1;
nodes = (
"-20 336 LINE",
"-20 410 LINE",
"45 410 LINE",
"45 732 LINE",
"388 732 LINE SMOOTH",
"587 732 OFFCURVE",
"637 570 OFFCURVE",
"637 363 CURVE SMOOTH",
"637 107 OFFCURVE",
"555 0 OFFCURVE",
"388 0 CURVE SMOOTH",
"45 0 LINE",
"45 336 LINE"
);
}
);
};
components = (
{
name = D;
}
);
layerId = "63BEBE16-5EEB-4E8E-8514-0A5E9B1E5A6A";
paths = (
{
closed = 1;
nodes = (
"334 311 LINE",
"334 435 LINE",
"10 435 LINE",
"10 311 LINE"
);
}
);
width = 688;
}
);
note = "\012    GF Latin Plus glyph\012  ";
rightKerningGroup = O;
unicode = 00D0;
userData = {
com.fontlab.hintData = {
hhints = (
{
position = 0;
width = 24;
},
{
position = 366;
width = 14;
},
{
position = 708;
width = 24;
}
);
vhints = (
{
position = 108;
width = 24;
},
{
position = 586;
width = 24;
}
);
};
com.typemytype.robofont.layerData = {
background = {
anchors = (
);
components = (
);
contours = (
{
points = (
{
segmentType = line;
smooth = 0;
x = 132;
y = 24;
},
{
segmentType = line;
smooth = 1;
x = 351;
y = 24;
},
{
smooth = 0;
x = 518;
y = 24;
},
{
smooth = 0;
x = 586;
y = 216;
},
{
segmentType = curve;
smooth = 1;
x = 586;
y = 364;
},
{
smooth = 0;
x = 586;
y = 600;
},
{
smooth = 0;
x = 499;
y = 708;
},
{
segmentType = curve;
smooth = 1;
x = 351;
y = 708;
},
{
segmentType = line;
smooth = 0;
x = 132;
y = 708;
},
{
segmentType = line;
smooth = 0;
x = 132;
y = 380;
},
{
segmentType = line;
smooth = 0;
x = 291;
y = 380;
},
{
segmentType = line;
smooth = 0;
x = 291;
y = 366;
},
{
segmentType = line;
smooth = 0;
x = 132;
y = 366;
}
);
},
{
points = (
{
segmentType = line;
smooth = 0;
x = 43;
y = 366;
},
{
segmentType = line;
smooth = 0;
x = 43;
y = 380;
},
{
segmentType = line;
smooth = 0;
x = 108;
y = 380;
},
{
segmentType = line;
smooth = 0;
x = 108;
y = 732;
},
{
segmentType = line;
smooth = 1;
x = 351;
y = 732;
},
{
smooth = 0;
x = 577;
y = 732;
},
{
smooth = 0;
x = 610;
y = 513;
},
{
segmentType = curve;
smooth = 1;
x = 610;
y = 363;
},
{
smooth = 0;
x = 610;
y = 197;
},
{
smooth = 0;
x = 536;
y = 0;
},
{
segmentType = curve;
smooth = 1;
x = 351;
y = 0;
},
{
segmentType = line;
smooth = 0;
x = 108;
y = 0;
},
{
segmentType = line;
smooth = 0;
x = 108;
y = 366;
}
);
}
);
lib = {
};
name = Eth;
unicodes = (
);
width = 660;
};
};
};
},
{
glyphname = Dcroat;
layers = (
{
background = {
paths = (
{
closed = 1;
nodes = (
"132 24 LINE",
"351 24 LINE SMOOTH",
"518 24 OFFCURVE",
"586 216 OFFCURVE",
"586 364 CURVE SMOOTH",
"586 600 OFFCURVE",
"499 708 OFFCURVE",
"351 708 CURVE SMOOTH",
"132 708 LINE",
"132 380 LINE",
"291 380 LINE",
"291 366 LINE",
"132 366 LINE"
);
},
{
closed = 1;
nodes = (
"43 366 LINE",
"43 380 LINE",
"108 380 LINE",
"108 732 LINE",
"351 732 LINE SMOOTH",
"577 732 OFFCURVE",
"610 513 OFFCURVE",
"610 363 CURVE SMOOTH",
"610 197 OFFCURVE",
"536 0 OFFCURVE",
"351 0 CURVE SMOOTH",
"108 0 LINE",
"108 366 LINE"
);
}
);
};
components = (
{
name = Eth;
}
);
layerId = "970D4E8E-4EF0-498B-97F3-F7DEE39AB542";
width = 660;
},
{
background = {
paths = (
{
closed = 1;
nodes = (
"239 164 LINE",
"368 164 LINE SMOOTH",
"425 164 OFFCURVE",
"443 223 OFFCURVE",
"443 364 CURVE SMOOTH",
"443 545 OFFCURVE",
"415 568 OFFCURVE",
"368 568 CURVE SMOOTH",
"239 568 LINE",
"239 410 LINE",
"328 410 LINE",
"328 336 LINE",
"239 336 LINE"
);
},
{
closed = 1;
nodes = (
"-20 336 LINE",
"-20 410 LINE",
"45 410 LINE",
"45 732 LINE",
"388 732 LINE SMOOTH",
"587 732 OFFCURVE",
"637 570 OFFCURVE",
"637 363 CURVE SMOOTH",
"637 107 OFFCURVE",
"555 0 OFFCURVE",
"388 0 CURVE SMOOTH",
"45 0 LINE",
"45 336 LINE"
);
}
);
};
components = (
{
name = Eth;
}
);
layerId = "63BEBE16-5EEB-4E8E-8514-0A5E9B1E5A6A";
width = 688;
}
);
note = "\012    GF Latin Plus glyph\012  ";
rightKerningGroup = O;
unicode = 0110;
userData = {
com.fontlab.hintData = {
hhints = (
{
position = 0;
width = 24;
},
{
position = 366;
width = 14;
},
{
position = 708;
width = 24;
}
);
vhints = (
{
position = 108;
width = 24;
},
{
position = 586;
width = 24;
}
);
};
com.typemytype.robofont.layerData = {
background = {
anchors = (
);
components = (
);
contours = (
{
points = (
{
segmentType = line;
smooth = 0;
x = 132;
y = 24;
},
{
segmentType = line;
smooth = 1;
x = 351;
y = 24;
},
{
smooth = 0;
x = 518;
y = 24;
},
{
smooth = 0;
x = 586;
y = 216;
},
{
segmentType = curve;
smooth = 1;
x = 586;
y = 364;
},
{
smooth = 0;
x = 586;
y = 600;
},
{
smooth = 0;
x = 499;
y = 708;
},
{
segmentType = curve;
smooth = 1;
x = 351;
y = 708;
},
{
segmentType = line;
smooth = 0;
x = 132;
y = 708;
},
{
segmentType = line;
smooth = 0;
x = 132;
y = 380;
},
{
segmentType = line;
smooth = 0;
x = 291;
y = 380;
},
{
segmentType = line;
smooth = 0;
x = 291;
y = 366;
},
{
segmentType = line;
smooth = 0;
x = 132;
y = 366;
}
);
},
{
points = (
{
segmentType = line;
smooth = 0;
x = 43;
y = 366;
},
{
segmentType = line;
smooth = 0;
x = 43;
y = 380;
},
{
segmentType = line;
smooth = 0;
x = 108;
y = 380;
},
{
segmentType = line;
smooth = 0;
x = 108;
y = 732;
},
{
segmentType = line;
smooth = 1;
x = 351;
y = 732;
},
{
smooth = 0;
x = 577;
y = 732;
},
{
smooth = 0;
x = 610;
y = 513;
},
{
segmentType = curve;
smooth = 1;
x = 610;
y = 363;
},
{
smooth = 0;
x = 610;
y = 197;
},
{
smooth = 0;
x = 536;
y = 0;
},
{
segmentType = curve;
smooth = 1;
x = 351;
y = 0;
},
{
segmentType = line;
smooth = 0;
x = 108;
y = 0;
},
{
segmentType = line;
smooth = 0;
x = 108;
y = 366;
}
);
}
);
lib = {
};
name = Dcroat;
unicodes = (
);
width = 660;
};
};
};
},
{
glyphname = E;
layers = (
{
anchors = (
{
name = bottom;
position = "{310, -150}";
},
{
name = ogonek;
position = "{501, 3}";
},
{
name = top;
position = "{310, 810}";
}
);
background = {
components = (
{
name = L;
}
);
paths = (
{
closed = 1;
nodes = (
"88 123 CURVE SMOOTH",
"88 602 LINE SMOOTH",
"88 700 OFFCURVE",
"150.005 734.154 OFFCURVE",
"214 732 CURVE SMOOTH",
"511 722 LINE",
"511 708 LINE",
"214 708 LINE SMOOTH",
"152 708 OFFCURVE",
"112 677 OFFCURVE",
"112 602 CURVE SMOOTH",
"112 375 LINE",
"471 370 LINE",
"471 356 LINE",
"112 351 LINE",
"112 123 LINE SMOOTH",
"112 31 OFFCURVE",
"169 21 OFFCURVE",
"224 21 CURVE SMOOTH",
"511 21 LINE",
"511 7 LINE",
"225 -3 LINE SMOOTH",
"158.973 -5.301 OFFCURVE",
"88 10 OFFCURVE"
);
}
);
};
layerId = "970D4E8E-4EF0-498B-97F3-F7DEE39AB542";
paths = (
{
closed = 1;
nodes = (
"320 -1 OFFCURVE",
"416 1 OFFCURVE",
"511 3 CURVE",
"511 19 LINE",
"224 19 LINE SMOOTH",
"169 19 OFFCURVE",
"112 29 OFFCURVE",
"112 123 CURVE SMOOTH",
"112 352 LINE",
"471 355 LINE",
"471 371 LINE",
"112 374 LINE",
"112 602 LINE SMOOTH",
"112 678 OFFCURVE",
"152 710 OFFCURVE",
"214 710 CURVE SMOOTH",
"511 710 LINE",
"511 726 LINE",
"412 728 OFFCURVE",
"313 730 OFFCURVE",
"214 732 CURVE SMOOTH",
"150 733 OFFCURVE",
"88 700 OFFCURVE",
"88 602 CURVE SMOOTH",
"88 123 LINE SMOOTH",
"88 10 OFFCURVE",
"159 -4 OFFCURVE",
"225 -3 CURVE SMOOTH"
);
}
);
width = 579;
},
{
anchors = (
{
name = bottom;
position = "{341, -150}";
},
{
name = ogonek;
position = "{558, 12}";
},
{
name = top;
position = "{314, 810}";
}
);
background = {
paths = (
{
closed = 1;
nodes = (
"55 161 CURVE SMOOTH",
"55 562 LINE SMOOTH",
"55 712.773 OFFCURVE",
"170.3 732 OFFCURVE",
"241 732 CURVE",
"241 732 OFFCURVE",
"451 732 OFFCURVE",
"568 716 CURVE",
"568 553 LINE",
"301 553 LINE SMOOTH",
"249 553 OFFCURVE",
"249 524 OFFCURVE",
"249 497 CURVE SMOOTH",
"249 453 LINE",
"518 442 LINE",
"518 281 LINE",
"249 272 LINE",
"249 228 LINE SMOOTH",
"249 175 OFFCURVE",
"282 176 OFFCURVE",
"311 176 CURVE SMOOTH",
"568 176 LINE",
"568 14 LINE",
"465 0 OFFCURVE",
"251 -3 OFFCURVE",
"251 -3 CURVE",
"186.3 -5 OFFCURVE",
"55 8 OFFCURVE"
);
}
);
};
layerId = "63BEBE16-5EEB-4E8E-8514-0A5E9B1E5A6A";
paths = (
{
closed = 1;
nodes = (
"351 -6 OFFCURVE",
"481 0 OFFCURVE",
"568 12 CURVE",
"568 176 LINE",
"292 176 LINE SMOOTH",
"267 176 OFFCURVE",
"249 192 OFFCURVE",
"249 228 CURVE SMOOTH",
"249 284 LINE",
"518 294 LINE",
"518 448 LINE",
"249 458 LINE",
"249 520 LINE SMOOTH",
"249 549 OFFCURVE",
"267 564 OFFCURVE",
"300 564 CURVE SMOOTH",
"568 564 LINE",
"568 728 LINE",
"499 735 OFFCURVE",
"408 743 OFFCURVE",
"240 743 CURVE SMOOTH",
"156 743 OFFCURVE",
"55 703.874 OFFCURVE",
"55 559 CURVE SMOOTH",
"55 171 LINE SMOOTH",
"55 6 OFFCURVE",
"186 -6 OFFCURVE",
"251 -6 CURVE SMOOTH"
);
}
);
width = 604;
}
);
leftKerningGroup = E;
note = "\012    GF Latin Plus glyph\012  ";
rightKerningGroup = E;
unicode = 0045;
userData = {
com.fontlab.hintData = {
hhints = (
{
position = -3;
width = 24;
},
{
position = 7;
width = 14;
},
{
position = 351;
width = 24;
},
{
position = 708;
width = 24;
},
{
position = 708;
width = 14;
}
);
vhints = (
{
position = 108;
width = 24;
}
);
};
com.typemytype.robofont.layerData = {
background = {
anchors = (
);
components = (
{
baseGlyph = L;
transformation = (
1,
0,
0,
1,
0,
0
);
}
);
contours = (
{
points = (
{
segmentType = curve;
smooth = 1;
x = 88;
y = 123;
},
{
segmentType = line;
smooth = 1;
x = 88;
y = 602;
},
{
smooth = 0;
x = 88;
y = 700;
},
{
smooth = 0;
x = 150.0050;
y = 734.1540;
},
{
segmentType = curve;
smooth = 1;
x = 214;
y = 732;
},
{
segmentType = line;
smooth = 0;
x = 511;
y = 722;
},
{
segmentType = line;
smooth = 0;
x = 511;
y = 708;
},
{
segmentType = line;
smooth = 1;
x = 214;
y = 708;
},
{
smooth = 0;
x = 152;
y = 708;
},
{
smooth = 0;
x = 112;
y = 677;
},
{
segmentType = curve;
smooth = 1;
x = 112;
y = 602;
},
{
segmentType = line;
smooth = 0;
x = 112;
y = 375;
},
{
segmentType = line;
smooth = 0;
x = 471;
y = 370;
},
{
segmentType = line;
smooth = 0;
x = 471;
y = 356;
},
{
segmentType = line;
smooth = 0;
x = 112;
y = 351;
},
{
segmentType = line;
smooth = 1;
x = 112;
y = 123;
},
{
smooth = 0;
x = 112;
y = 31;
},
{
smooth = 0;
x = 169;
y = 21;
},
{
segmentType = curve;
smooth = 1;
x = 224;
y = 21;
},
{
segmentType = line;
smooth = 0;
x = 511;
y = 21;
},
{
segmentType = line;
smooth = 0;
x = 511;
y = 7;
},
{
segmentType = line;
smooth = 1;
x = 225;
y = -3;
},
{
smooth = 0;
x = 158.9730;
y = -5.3008;
},
{
smooth = 0;
x = 88;
y = 10;
}
);
}
);
lib = {
};
name = E;
unicodes = (
);
width = 579;
};
};
};
},
{
glyphname = F;
layers = (
{
anchors = (
{
name = top;
position = "{310, 810}";
}
);
background = {
paths = (
{
closed = 1;
nodes = (
"88 0 LINE",
"88 602 LINE SMOOTH",
"88 700 OFFCURVE",
"150.005 734.154 OFFCURVE",
"214 732 CURVE SMOOTH",
"511 722 LINE",
"511 708 LINE",
"214 708 LINE SMOOTH",
"152 708 OFFCURVE",
"112 677 OFFCURVE",
"112 602 CURVE SMOOTH",
"112 375 LINE",
"471 370 LINE",
"471 356 LINE",
"112 351 LINE",
"112 0 LINE"
);
}
);
};
layerId = "970D4E8E-4EF0-498B-97F3-F7DEE39AB542";
paths = (
{
closed = 1;
nodes = (
"112 0 LINE",
"112 338 LINE",
"471 341 LINE",
"471 357 LINE",
"112 360 LINE",
"112 602 LINE SMOOTH",
"112 677 OFFCURVE",
"152 710 OFFCURVE",
"214 710 CURVE SMOOTH",
"511 710 LINE",
"511 726 LINE",
"412 728 OFFCURVE",
"313 730 OFFCURVE",
"214 732 CURVE SMOOTH",
"150 733 OFFCURVE",
"88 700 OFFCURVE",
"88 602 CURVE SMOOTH",
"88 0 LINE"
);
}
);
width = 555;
},
{
anchors = (
{
name = top;
position = "{314, 810}";
}
);
background = {
components = (
{
name = E;
}
);
paths = (
{
closed = 1;
nodes = (
"40 0 LINE",
"40 558 LINE SMOOTH",
"40 695 OFFCURVE",
"141.3 733 OFFCURVE",
"226 732 CURVE",
"226 732 OFFCURVE",
"436 732 OFFCURVE",
"553 716 CURVE",
"553 553 LINE",
"286 553 LINE SMOOTH",
"234 553 OFFCURVE",
"234 524 OFFCURVE",
"234 497 CURVE SMOOTH",
"234 453 LINE",
"503 442 LINE",
"503 281 LINE",
"234 272 LINE",
"234 0 LINE"
);
}
);
};
layerId = "63BEBE16-5EEB-4E8E-8514-0A5E9B1E5A6A";
paths = (
{
closed = 1;
nodes = (
"249 0 LINE",
"249 264 LINE",
"518 274 LINE",
"518 428 LINE",
"249 438 LINE",
"249 522 LINE SMOOTH",
"249 542 OFFCURVE",
"262.429 564 OFFCURVE",
"296 564 CURVE SMOOTH",
"568 564 LINE",
"568 727 LINE",
"451 743 OFFCURVE",
"301 743 OFFCURVE",
"240 743 CURVE SMOOTH",
"156 743 OFFCURVE",
"55 703.874 OFFCURVE",
"55 559 CURVE SMOOTH",
"55 0 LINE"
);
}
);
width = 593;
}
);
leftKerningGroup = E;
note = "\012    GF Latin Plus glyph\012  ";
rightKerningGroup = F;
unicode = 0046;
userData = {
com.fontlab.hintData = {
hhints = (
{
position = 0;
width = 21;
},
{
position = 351;
width = 24;
},
{
position = 708;
width = 24;
},
{
position = 708;
width = 14;
}
);
vhints = (
{
position = 108;
width = 24;
}
);
};
com.typemytype.robofont.layerData = {
background = {
anchors = (
);
components = (
);
contours = (
{
points = (
{
segmentType = line;
smooth = 0;
x = 88;
y = 0;
},
{
segmentType = line;
smooth = 1;
x = 88;
y = 602;
},
{
smooth = 0;
x = 88;
y = 700;
},
{
smooth = 0;
x = 150.0050;
y = 734.1540;
},
{
segmentType = curve;
smooth = 1;
x = 214;
y = 732;
},
{
segmentType = line;
smooth = 0;
x = 511;
y = 722;
},
{
segmentType = line;
smooth = 0;
x = 511;
y = 708;
},
{
segmentType = line;
smooth = 1;
x = 214;
y = 708;
},
{
smooth = 0;
x = 152;
y = 708;
},
{
smooth = 0;
x = 112;
y = 677;
},
{
segmentType = curve;
smooth = 1;
x = 112;
y = 602;
},
{
segmentType = line;
smooth = 0;
x = 112;
y = 375;
},
{
segmentType = line;
smooth = 0;
x = 471;
y = 370;
},
{
segmentType = line;
smooth = 0;
x = 471;
y = 356;
},
{
segmentType = line;
smooth = 0;
x = 112;
y = 351;
},
{
segmentType = line;
smooth = 0;
x = 112;
y = 0;
}
);
}
);
lib = {
};
name = F;
unicodes = (
);
width = 555;
};
};
};
},
{
glyphname = G;
layers = (
{
anchors = (
{
name = bottom;
position = "{330, -150}";
},
{
name = top;
position = "{330, 810}";
}
);
background = {
components = (
{
name = C;
}
);
};
layerId = "970D4E8E-4EF0-498B-97F3-F7DEE39AB542";
paths = (
{
closed = 1;
nodes = (
"395 -4 OFFCURVE",
"477 27 OFFCURVE",
"532 53 CURVE",
"538 0 LINE",
"554 0 LINE",
"554 363 LINE",
"534.571 366.429 OFFCURVE",
"505 368 OFFCURVE",
"476 368 CURVE SMOOTH",
"410 368 OFFCURVE",
"352.761 363.655 OFFCURVE",
"316 358 CURVE",
"316 344 LINE",
"530 344 LINE",
"530 69 LINE",
"470 44 OFFCURVE",
"384 17 OFFCURVE",
"313 17 CURVE SMOOTH",
"138 17 OFFCURVE",
"94 101 OFFCURVE",
"94 368 CURVE SMOOTH",
"94 613 OFFCURVE",
"141.461 716 OFFCURVE",
"300 716 CURVE SMOOTH",
"386.24 716 OFFCURVE",
"488.628 706.148 OFFCURVE",
"527 702 CURVE",
"527 718 LINE",
"463.732 729.409 OFFCURVE",
"358.485 738 OFFCURVE",
"300 738 CURVE SMOOTH",
"126.491 738 OFFCURVE",
"70 629 OFFCURVE",
"70 370 CURVE SMOOTH",
"70 86 OFFCURVE",
"123 -7 OFFCURVE",
"313 -5 CURVE SMOOTH"
);
}
);
width = 642;
},
{
anchors = (
{
name = bottom;
position = "{360, -150}";
},
{
name = top;
position = "{324, 810}";
}
);
background = {
paths = (
{
closed = 1;
nodes = (
"36 370 CURVE SMOOTH",
"36 593 OFFCURVE",
"80 740 OFFCURVE",
"279 740 CURVE SMOOTH",
"438 740 OFFCURVE",
"448 740 OFFCURVE",
"583 703 CURVE",
"583 554 LINE",
"577 554 OFFCURVE",
"466 576 OFFCURVE",
"339 576 CURVE SMOOTH",
"246 576 OFFCURVE",
"230 531 OFFCURVE",
"230 368 CURVE SMOOTH",
"230 204 OFFCURVE",
"236 173 OFFCURVE",
"324 173 CURVE SMOOTH",
"386 173 OFFCURVE",
"396 219 OFFCURVE",
"396 219 CURVE",
"396 294 LINE",
"347 294 LINE",
"347 414 LINE",
"392 438 OFFCURVE",
"456 439 OFFCURVE",
"522 439 CURVE SMOOTH",
"543 439 OFFCURVE",
"566 438 OFFCURVE",
"590 436 CURVE",
"590 0 LINE",
"453 0 LINE",
"398 49 LINE",
"370 12 OFFCURVE",
"354 0 OFFCURVE",
"274 -5 CURVE SMOOTH",
"67 -18 OFFCURVE",
"36 164 OFFCURVE"
);
}
);
};
layerId = "63BEBE16-5EEB-4E8E-8514-0A5E9B1E5A6A";
paths = (
{
closed = 1;
nodes = (
"343.396 -5 OFFCURVE",
"416 27 OFFCURVE",
"448 49 CURVE",
"474 0 LINE",
"620 0 LINE",
"620 441 LINE",
"589 442 OFFCURVE",
"553.806 443 OFFCURVE",
"506 443 CURVE SMOOTH",
"451.909 443 OFFCURVE",
"374 439 OFFCURVE",
"331 433 CURVE",
"331 279 LINE",
"434 279 LINE",
"434 183 LINE",
"414.596 178.688 OFFCURVE",
"373.608 173 OFFCURVE",
"324 173 CURVE SMOOTH",
"256 173 OFFCURVE",
"230 205 OFFCURVE",
"230 370 CURVE SMOOTH",
"230 532 OFFCURVE",
"246 576 OFFCURVE",
"362 576 CURVE SMOOTH",
"456 576 OFFCURVE",
"538 569 OFFCURVE",
"583 562 CURVE",
"583 713 LINE",
"502 735 OFFCURVE",
"443 750 OFFCURVE",
"325 750 CURVE SMOOTH",
"82 750 OFFCURVE",
"36 599 OFFCURVE",
"36 370 CURVE SMOOTH",
"36 164 OFFCURVE",
"76 -5 OFFCURVE",
"259 -5 CURVE SMOOTH"
);
}
);
width = 675;
}
);
leftKerningGroup = O;
note = "\012    GF Latin Plus glyph\012  ";
unicode = 0047;
userData = {
com.fontlab.hintData = {
hhints = (
{
position = -5;
width = 24;
},
{
position = 364;
width = 25;
},
{
position = 364;
width = 14;
},
{
position = 716;
width = 24;
}
);
vhints = (
{
position = 74;
width = 24;
},
{
position = 534;
width = 24;
},
{
position = 544;
width = 14;
}
);
};
com.typemytype.robofont.layerData = {
background = {
anchors = (
);
components = (
{
baseGlyph = C;
transformation = (
1,
0,
0,
1,
0,
0
);
}
);
contours = (
);
lib = {
};
name = G;
unicodes = (
);
width = 642;
};
};
};
},
{
glyphname = H;
layers = (
{
anchors = (
{
name = bottom;
position = "{332, -150}";
},
{
name = top;
position = "{332, 810}";
}
);
background = {
paths = (
{
closed = 1;
nodes = (
"88 0 LINE",
"88 732 LINE",
"112 732 LINE",
"112 366 LINE",
"552 366 LINE",
"552 732 LINE",
"576 732 LINE",
"576 0 LINE",
"552 0 LINE",
"552 342 LINE",
"112 342 LINE",
"112 0 LINE"
);
}
);
};
layerId = "970D4E8E-4EF0-498B-97F3-F7DEE39AB542";
paths = (
{
closed = 1;
nodes = (
"112 0 LINE",
"112 343 LINE",
"552 343 LINE",
"552 0 LINE",
"576 0 LINE",
"576 732 LINE",
"552 732 LINE",
"552 365 LINE",
"112 365 LINE",
"112 732 LINE",
"88 732 LINE",
"88 0 LINE"
);
}
);
width = 664;
},
{
anchors = (
{
name = bottom;
position = "{359, -150}";
},
{
name = top;
position = "{359, 810}";
}
);
background = {
paths = (
{
closed = 1;
nodes = (
"55 0 LINE",
"55 732 LINE",
"249 732 LINE",
"249 441 LINE",
"419 441 LINE",
"419 732 LINE",
"613 732 LINE",
"613 0 LINE",
"419 0 LINE",
"419 267 LINE",
"249 267 LINE",
"249 0 LINE"
);
}
);
};
layerId = "63BEBE16-5EEB-4E8E-8514-0A5E9B1E5A6A";
paths = (
{
closed = 1;
nodes = (
"249 0 LINE",
"249 283 LINE",
"469 283 LINE",
"469 0 LINE",
"663 0 LINE",
"663 743 LINE",
"469 743 LINE",
"469 457 LINE",
"249 457 LINE",
"249 743 LINE",
"55 743 LINE",
"55 0 LINE"
);
}
);
width = 718;
}
);
leftKerningGroup = H;
note = "\012    GF Latin Plus glyph\012  ";
unicode = 0048;
userData = {
com.fontlab.hintData = {
hhints = (
{
position = 0;
width = 21;
},
{
position = 342;
width = 24;
},
{
position = 712;
width = 20;
}
);
vhints = (
{
position = 108;
width = 24;
},
{
position = 572;
width = 24;
}
);
};
com.typemytype.robofont.layerData = {
background = {
anchors = (
);
components = (
);
contours = (
{
points = (
{
segmentType = line;
smooth = 0;
x = 88;
y = 0;
},
{
segmentType = line;
smooth = 0;
x = 88;
y = 732;
},
{
segmentType = line;
smooth = 0;
x = 112;
y = 732;
},
{
segmentType = line;
smooth = 0;
x = 112;
y = 366;
},
{
segmentType = line;
smooth = 0;
x = 552;
y = 366;
},
{
segmentType = line;
smooth = 0;
x = 552;
y = 732;
},
{
segmentType = line;
smooth = 0;
x = 576;
y = 732;
},
{
segmentType = line;
smooth = 0;
x = 576;
y = 0;
},
{
segmentType = line;
smooth = 0;
x = 552;
y = 0;
},
{
segmentType = line;
smooth = 0;
x = 552;
y = 342;
},
{
segmentType = line;
smooth = 0;
x = 112;
y = 342;
},
{
segmentType = line;
smooth = 0;
x = 112;
y = 0;
}
);
}
);
lib = {
};
name = H;
unicodes = (
);
width = 664;
};
};
};
},
{
glyphname = Hbar;
layers = (
{
background = {
paths = (
{
closed = 1;
nodes = (
"132 366 LINE",
"572 366 LINE",
"572 537 LINE",
"132 537 LINE"
);
},
{
closed = 1;
nodes = (
"43 537 LINE",
"43 552 LINE",
"108 552 LINE",
"108 732 LINE",
"132 732 LINE",
"132 552 LINE",
"572 552 LINE",
"572 732 LINE",
"596 732 LINE",
"596 552 LINE",
"661 552 LINE",
"661 537 LINE",
"596 537 LINE",
"596 0 LINE",
"572 0 LINE",
"572 342 LINE",
"132 342 LINE",
"132 0 LINE",
"108 0 LINE",
"108 537 LINE"
);
}
);
};
components = (
{
name = H;
}
);
layerId = "970D4E8E-4EF0-498B-97F3-F7DEE39AB542";
paths = (
{
closed = 1;
nodes = (
"647 531 LINE",
"647 553 LINE",
"17 553 LINE",
"17 531 LINE"
);
}
);
width = 664;
},
{
background = {
paths = (
{
closed = 1;
nodes = (
"270 441 LINE",
"440 441 LINE",
"440 516 LINE",
"270 516 LINE"
);
},
{
closed = 1;
nodes = (
"11 516 LINE",
"11 590 LINE",
"76 590 LINE",
"76 732 LINE",
"270 732 LINE",
"270 590 LINE",
"440 590 LINE",
"440 732 LINE",
"634 732 LINE",
"634 590 LINE",
"699 590 LINE",
"699 516 LINE",
"634 516 LINE",
"634 0 LINE",
"440 0 LINE",
"440 267 LINE",
"270 267 LINE",
"270 0 LINE",
"76 0 LINE",
"76 516 LINE"
);
}
);
};
components = (
{
name = H;
}
);
layerId = "63BEBE16-5EEB-4E8E-8514-0A5E9B1E5A6A";
paths = (
{
closed = 1;
nodes = (
"708 513 LINE",
"708 607 LINE",
"10 607 LINE",
"10 513 LINE"
);
}
);
width = 718;
}
);
leftKerningGroup = H;
note = "\012    GF Latin Plus glyph\012  ";
unicode = 0126;
userData = {
com.fontlab.hintData = {
hhints = (
{
position = 0;
width = 21;
},
{
position = 342;
width = 24;
},
{
position = 537;
width = 15;
},
{
position = 712;
width = 20;
}
);
vhints = (
{
position = 108;
width = 24;
},
{
position = 572;
width = 24;
}
);
};
com.typemytype.robofont.layerData = {
background = {
anchors = (
);
components = (
);
contours = (
{
points = (
{
segmentType = line;
smooth = 0;
x = 132;
y = 366;
},
{
segmentType = line;
smooth = 0;
x = 572;
y = 366;
},
{
segmentType = line;
smooth = 0;
x = 572;
y = 537;
},
{
segmentType = line;
smooth = 0;
x = 132;
y = 537;
}
);
},
{
points = (
{
segmentType = line;
smooth = 0;
x = 43;
y = 537;
},
{
segmentType = line;
smooth = 0;
x = 43;
y = 552;
},
{
segmentType = line;
smooth = 0;
x = 108;
y = 552;
},
{
segmentType = line;
smooth = 0;
x = 108;
y = 732;
},
{
segmentType = line;
smooth = 0;
x = 132;
y = 732;
},
{
segmentType = line;
smooth = 0;
x = 132;
y = 552;
},
{
segmentType = line;
smooth = 0;
x = 572;
y = 552;
},
{
segmentType = line;
smooth = 0;
x = 572;
y = 732;
},
{
segmentType = line;
smooth = 0;
x = 596;
y = 732;
},
{
segmentType = line;
smooth = 0;
x = 596;
y = 552;
},
{
segmentType = line;
smooth = 0;
x = 661;
y = 552;
},
{
segmentType = line;
smooth = 0;
x = 661;
y = 537;
},
{
segmentType = line;
smooth = 0;
x = 596;
y = 537;
},
{
segmentType = line;
smooth = 0;
x = 596;
y = 0;
},
{
segmentType = line;
smooth = 0;
x = 572;
y = 0;
},
{
segmentType = line;
smooth = 0;
x = 572;
y = 342;
},
{
segmentType = line;
smooth = 0;
x = 132;
y = 342;
},
{
segmentType = line;
smooth = 0;
x = 132;
y = 0;
},
{
segmentType = line;
smooth = 0;
x = 108;
y = 0;
},
{
segmentType = line;
smooth = 0;
x = 108;
y = 537;
}
);
}
);
lib = {
};
name = Hbar;
unicodes = (
);
width = 664;
};
};
};
},
{
glyphname = I;
layers = (
{
anchors = (
{
name = bottom;
position = "{100, -150}";
},
{
name = ogonek;
position = "{102, 0}";
},
{
name = top;
position = "{100, 810}";
}
);
background = {
paths = (
{
closed = 1;
nodes = (
"88 0 LINE",
"88 732 LINE",
"112 732 LINE",
"112 0 LINE"
);
}
);
};
layerId = "970D4E8E-4EF0-498B-97F3-F7DEE39AB542";
paths = (
{
closed = 1;
nodes = (
"112 0 LINE",
"112 732 LINE",
"88 732 LINE",
"88 0 LINE"
);
}
);
width = 200;
},
{
anchors = (
{
name = bottom;
position = "{152, -150}";
},
{
name = ogonek;
position = "{239, 0}";
},
{
name = top;
position = "{152, 810}";
}
);
background = {
paths = (
{
closed = 1;
nodes = (
"55 0 LINE",
"55 732 LINE",
"249 732 LINE",
"249 0 LINE"
);
}
);
};
layerId = "63BEBE16-5EEB-4E8E-8514-0A5E9B1E5A6A";
paths = (
{
closed = 1;
nodes = (
"249 0 LINE",
"249 743 LINE",
"55 743 LINE",
"55 0 LINE"
);
}
);
width = 304;
}
);
note = "\012    GF Latin Plus glyph\012  ";
unicode = 0049;
userData = {
com.fontlab.hintData = {
hhints = (
{
position = 0;
width = 21;
},
{
position = 712;
width = 20;
}
);
vhints = (
{
position = 108;
width = 24;
}
);
};
com.typemytype.robofont.layerData = {
background = {
anchors = (
);
components = (
);
contours = (
{
points = (
{
segmentType = line;
smooth = 0;
x = 88;
y = 0;
},
{
segmentType = line;
smooth = 0;
x = 88;
y = 732;
},
{
segmentType = line;
smooth = 0;
x = 112;
y = 732;
},
{
segmentType = line;
smooth = 0;
x = 112;
y = 0;
}
);
}
);
lib = {
};
name = I;
unicodes = (
);
width = 200;
};
};
};
},
{
glyphname = J;
layers = (
{
anchors = (
{
name = top;
position = "{269, 810}";
}
);
background = {
paths = (
{
closed = 1;
nodes = (
"47 21 CURVE",
"51 35 LINE",
"139 8 OFFCURVE",
"257 -9 OFFCURVE",
"257 165 CURVE SMOOTH",
"257 732 LINE",
"281 732 LINE",
"281 165 LINE SMOOTH",
"281 118 OFFCURVE",
"274 51 OFFCURVE",
"229 18 CURVE SMOOTH",
"186 -14 OFFCURVE",
"99 -13 OFFCURVE"
);
}
);
};
layerId = "970D4E8E-4EF0-498B-97F3-F7DEE39AB542";
paths = (
{
closed = 1;
nodes = (
"227 -6 OFFCURVE",
"281 26 OFFCURVE",
"281 145 CURVE SMOOTH",
"281 732 LINE",
"257 732 LINE",
"257 145 LINE SMOOTH",
"257 37 OFFCURVE",
"205 16 OFFCURVE",
"134 16 CURVE SMOOTH",
"103 16 OFFCURVE",
"56 26 OFFCURVE",
"27 35 CURVE",
"27 19 LINE",
"54 5 OFFCURVE",
"100 -6 OFFCURVE",
"134 -6 CURVE SMOOTH"
);
}
);
width = 369;
},
{
anchors = (
{
name = top;
position = "{265, 810}";
}
);
background = {
paths = (
{
closed = 1;
nodes = (
"60 25 CURVE",
"60 179 LINE",
"165 179 OFFCURVE",
"168 199 OFFCURVE",
"168 276 CURVE SMOOTH",
"168 732 LINE",
"362 732 LINE",
"362 165 LINE SMOOTH",
"362 118 OFFCURVE",
"358 50 OFFCURVE",
"308 18 CURVE SMOOTH",
"255 -16 OFFCURVE",
"112 -9 OFFCURVE"
);
}
);
};
layerId = "63BEBE16-5EEB-4E8E-8514-0A5E9B1E5A6A";
paths = (
{
closed = 1;
nodes = (
"305 -6 OFFCURVE",
"362 67 OFFCURVE",
"362 195 CURVE SMOOTH",
"362 743 LINE",
"168 743 LINE",
"168 225 LINE SMOOTH",
"168 189 OFFCURVE",
"150.689 168 OFFCURVE",
"107 168 CURVE SMOOTH",
"80 168 OFFCURVE",
"53 168 OFFCURVE",
"26 168 CURVE",
"26 12 LINE",
"57 3 OFFCURVE",
"105 -6 OFFCURVE",
"153 -6 CURVE SMOOTH"
);
}
);
width = 417;
}
);
leftKerningGroup = J;
note = "\012    GF Latin Plus glyph\012  ";
rightKerningGroup = J;
unicode = 004A;
userData = {
com.fontlab.hintData = {
hhints = (
{
position = 21;
width = 14;
},
{
position = 712;
width = 20;
}
);
vhints = (
{
position = 257;
width = 24;
}
);
};
com.typemytype.robofont.layerData = {
background = {
anchors = (
);
components = (
);
contours = (
{
points = (
{
segmentType = curve;
smooth = 0;
x = 47;
y = 21;
},
{
segmentType = line;
smooth = 0;
x = 51;
y = 35;
},
{
smooth = 0;
x = 139;
y = 8;
},
{
smooth = 0;
x = 257;
y = -9;
},
{
segmentType = curve;
smooth = 1;
x = 257;
y = 165;
},
{
segmentType = line;
smooth = 0;
x = 257;
y = 732;
},
{
segmentType = line;
smooth = 0;
x = 281;
y = 732;
},
{
segmentType = line;
smooth = 1;
x = 281;
y = 165;
},
{
smooth = 0;
x = 281;
y = 118;
},
{
smooth = 0;
x = 274;
y = 51;
},
{
segmentType = curve;
smooth = 1;
x = 229;
y = 18;
},
{
smooth = 0;
x = 186;
y = -14;
},
{
smooth = 0;
x = 99;
y = -13;
}
);
}
);
lib = {
};
name = J;
unicodes = (
);
width = 369;
};
};
};
},
{
glyphname = K;
layers = (
{
anchors = (
{
name = bottom;
position = "{270, -150}";
},
{
name = top;
position = "{270, 810}";
}
);
background = {
paths = (
{
closed = 1;
nodes = (
"88 0 LINE",
"88 732 LINE",
"112 732 LINE",
"112 379 LINE",
"264 379 LINE",
"505 732 LINE",
"534 732 LINE",
"286 367 LINE",
"534 0 LINE",
"504 0 LINE",
"263 355 LINE",
"113 355 LINE",
"113 0 LINE"
);
}
);
};
layerId = "970D4E8E-4EF0-498B-97F3-F7DEE39AB542";
paths = (
{
closed = 1;
nodes = (
"112 0 LINE",
"112 356 LINE",
"266 356 LINE",
"507 0 LINE",
"534 0 LINE",
"286 367 LINE",
"534 732 LINE",
"508 732 LINE",
"267 378 LINE",
"112 378 LINE",
"112 732 LINE",
"88 732 LINE",
"88 0 LINE"
);
}
);
width = 573;
},
{
anchors = (
{
name = bottom;
position = "{340, -150}";
},
{
name = top;
position = "{340, 810}";
}
);
background = {
paths = (
{
closed = 1;
nodes = (
"55 0 LINE",
"55 732 LINE",
"239 732 LINE",
"239 444 LINE",
"279 444 LINE",
"428 732 LINE",
"651 732 LINE",
"450 364 LINE",
"651 0 LINE",
"428 0 LINE",
"279 280 LINE",
"240 280 LINE",
"240 0 LINE"
);
}
);
};
layerId = "63BEBE16-5EEB-4E8E-8514-0A5E9B1E5A6A";
paths = (
{
closed = 1;
nodes = (
"249 0 LINE",
"249 280 LINE",
"326 280 LINE",
"454 0 LINE",
"660 0 LINE",
"480 369 LINE",
"651 743 LINE",
"445 743 LINE",
"326 454 LINE",
"249 454 LINE",
"249 743 LINE",
"55 743 LINE",
"55 0 LINE"
);
}
);
width = 672;
}
);
note = "\012    GF Latin Plus glyph\012  ";
rightKerningGroup = K;
unicode = 004B;
userData = {
com.fontlab.hintData = {
hhints = (
{
position = 0;
width = 21;
},
{
position = 355;
width = 24;
},
{
position = 712;
width = 20;
}
);
vhints = (
{
position = 108;
width = 25;
}
);
};
com.typemytype.robofont.layerData = {
background = {
anchors = (
);
components = (
);
contours = (
{
points = (
{
segmentType = line;
smooth = 0;
x = 88;
y = 0;
},
{
segmentType = line;
smooth = 0;
x = 88;
y = 732;
},
{
segmentType = line;
smooth = 0;
x = 112;
y = 732;
},
{
segmentType = line;
smooth = 0;
x = 112;
y = 379;
},
{
segmentType = line;
smooth = 0;
x = 264;
y = 379;
},
{
segmentType = line;
smooth = 0;
x = 505;
y = 732;
},
{
segmentType = line;
smooth = 0;
x = 534;
y = 732;
},
{
segmentType = line;
smooth = 0;
x = 286;
y = 367;
},
{
segmentType = line;
smooth = 0;
x = 534;
y = 0;
},
{
segmentType = line;
smooth = 0;
x = 504;
y = 0;
},
{
segmentType = line;
smooth = 0;
x = 263;
y = 355;
},
{
segmentType = line;
smooth = 0;
x = 113;
y = 355;
},
{
segmentType = line;
smooth = 0;
x = 113;
y = 0;
}
);
}
);
lib = {
};
name = K;
unicodes = (
);
width = 573;
};
};
};
},
{
glyphname = L;
layers = (
{
anchors = (
{
name = altcaron;
position = "{152, 650}";
},
{
name = bottom;
position = "{260, -150}";
},
{
name = dot;
position = "{342, 400}";
},
{
name = top;
position = "{100, 810}";
}
);
background = {
paths = (
{
closed = 1;
nodes = (
"88 126 CURVE SMOOTH",
"88 732 LINE",
"112 732 LINE",
"112 126 LINE SMOOTH",
"112 34 OFFCURVE",
"170 24 OFFCURVE",
"224 24 CURVE SMOOTH",
"500 24 LINE",
"500 0 LINE",
"224 0 LINE SMOOTH",
"158 0 OFFCURVE",
"88 13 OFFCURVE"
);
}
);
};
layerId = "970D4E8E-4EF0-498B-97F3-F7DEE39AB542";
paths = (
{
closed = 1;
nodes = (
"500 0 LINE",
"500 24 LINE",
"214 24 LINE SMOOTH",
"165 24 OFFCURVE",
"112 37 OFFCURVE",
"112 126 CURVE SMOOTH",
"112 732 LINE",
"88 732 LINE",
"88 126 LINE SMOOTH",
"88 23 OFFCURVE",
"151 0 OFFCURVE",
"214 0 CURVE SMOOTH"
);
}
);
width = 529;
},
{
anchors = (
{
name = altcaron;
position = "{289, 650}";
},
{
name = bottom;
position = "{300, -150}";
},
{
name = dot;
position = "{349, 400}";
},
{
name = top;
position = "{152, 810}";
}
);
background = {
paths = (
{
closed = 1;
nodes = (
"55 156 CURVE SMOOTH",
"55 732 LINE",
"249 732 LINE",
"249 226 LINE SMOOTH",
"249 173 OFFCURVE",
"282 174 OFFCURVE",
"311 174 CURVE SMOOTH",
"517 174 LINE",
"517 0 LINE",
"221 0 LINE SMOOTH",
"130 0 OFFCURVE",
"55 43 OFFCURVE"
);
}
);
};
layerId = "63BEBE16-5EEB-4E8E-8514-0A5E9B1E5A6A";
paths = (
{
closed = 1;
nodes = (
"517 0 LINE",
"517 174 LINE",
"301 174 LINE SMOOTH",
"266 174 OFFCURVE",
"249 191 OFFCURVE",
"249 226 CURVE SMOOTH",
"249 743 LINE",
"55 743 LINE",
"55 193 LINE SMOOTH",
"55 58.005 OFFCURVE",
"113.005 0 OFFCURVE",
"248 0 CURVE SMOOTH"
);
}
);
width = 537;
}
);
note = "\012    GF Latin Plus glyph\012  ";
rightKerningGroup = L;
unicode = 004C;
userData = {
com.fontlab.hintData = {
hhints = (
{
position = 0;
width = 24;
},
{
position = 712;
width = 20;
}
);
vhints = (
{
position = 108;
width = 24;
}
);
};
com.typemytype.robofont.layerData = {
background = {
anchors = (
);
components = (
);
contours = (
{
points = (
{
segmentType = curve;
smooth = 1;
x = 88;
y = 126;
},
{
segmentType = line;
smooth = 0;
x = 88;
y = 732;
},
{
segmentType = line;
smooth = 0;
x = 112;
y = 732;
},
{
segmentType = line;
smooth = 1;
x = 112;
y = 126;
},
{
smooth = 0;
x = 112;
y = 34;
},
{
smooth = 0;
x = 170;
y = 24;
},
{
segmentType = curve;
smooth = 1;
x = 224;
y = 24;
},
{
segmentType = line;
smooth = 0;
x = 500;
y = 24;
},
{
segmentType = line;
smooth = 0;
x = 500;
y = 0;
},
{
segmentType = line;
smooth = 1;
x = 224;
y = 0;
},
{
smooth = 0;
x = 158;
y = 0;
},
{
smooth = 0;
x = 88;
y = 13;
}
);
}
);
lib = {
};
name = L;
unicodes = (
);
width = 529;
};
};
};
},
{
glyphname = Lslash;
layers = (
{
background = {
paths = (
{
closed = 1;
nodes = (
"26 360 LINE",
"26 381 LINE",
"108 417 LINE",
"108 732 LINE",
"132 732 LINE",
"132 427 LINE",
"252 479 LINE",
"252 459 LINE",
"132 407 LINE",
"132 126 LINE SMOOTH",
"132 34 OFFCURVE",
"190 24 OFFCURVE",
"244 24 CURVE SMOOTH",
"520 24 LINE",
"520 0 LINE",
"244 0 LINE SMOOTH",
"178 0 OFFCURVE",
"108 13 OFFCURVE",
"108 126 CURVE SMOOTH",
"108 396 LINE"
);
}
);
};
components = (
{
name = L;
}
);
layerId = "970D4E8E-4EF0-498B-97F3-F7DEE39AB542";
paths = (
{
closed = 1;
nodes = (
"93 359 LINE",
"109 364 LINE",
"254 427 LINE",
"254 447 LINE",
"109 384 LINE",
"93 380 LINE",
"6 343 LINE",
"6 322 LINE"
);
}
);
width = 529;
},
{
background = {
paths = (
{
closed = 1;
nodes = (
"28 293 LINE",
"28 374 LINE",
"102 405 LINE",
"102 732 LINE",
"296 732 LINE",
"296 488 LINE",
"386 526 LINE",
"386 445 LINE",
"296 407 LINE",
"296 226 LINE SMOOTH",
"296 173 OFFCURVE",
"329 174 OFFCURVE",
"358 174 CURVE SMOOTH",
"564 174 LINE",
"564 0 LINE",
"268 0 LINE SMOOTH",
"177 0 OFFCURVE",
"102 43 OFFCURVE",
"102 156 CURVE SMOOTH",
"102 324 LINE"
);
}
);
};
components = (
{
name = L;
}
);
layerId = "63BEBE16-5EEB-4E8E-8514-0A5E9B1E5A6A";
paths = (
{
closed = 1;
nodes = (
"76 333 LINE",
"228 375 LINE",
"372 438 LINE",
"372 539 LINE",
"228 476 LINE",
"76 434 LINE",
"-7 398 LINE",
"-7 297 LINE"
);
}
);
width = 537;
}
);
note = "\012    GF Latin Plus glyph\012  ";
rightKerningGroup = L;
unicode = 0141;
userData = {
com.fontlab.hintData = {
hhints = (
{
position = 0;
width = 24;
},
{
position = 712;
width = 20;
}
);
vhints = (
{
position = 108;
width = 24;
}
);
};
com.typemytype.robofont.layerData = {
background = {
anchors = (
);
components = (
);
contours = (
{
points = (
{
segmentType = line;
smooth = 0;
x = 26;
y = 360;
},
{
segmentType = line;
smooth = 0;
x = 26;
y = 381;
},
{
segmentType = line;
smooth = 0;
x = 108;
y = 417;
},
{
segmentType = line;
smooth = 0;
x = 108;
y = 732;
},
{
segmentType = line;
smooth = 0;
x = 132;
y = 732;
},
{
segmentType = line;
smooth = 0;
x = 132;
y = 427;
},
{
segmentType = line;
smooth = 0;
x = 252;
y = 479;
},
{
segmentType = line;
smooth = 0;
x = 252;
y = 459;
},
{
segmentType = line;
smooth = 0;
x = 132;
y = 407;
},
{
segmentType = line;
smooth = 1;
x = 132;
y = 126;
},
{
smooth = 0;
x = 132;
y = 34;
},
{
smooth = 0;
x = 190;
y = 24;
},
{
segmentType = curve;
smooth = 1;
x = 244;
y = 24;
},
{
segmentType = line;
smooth = 0;
x = 520;
y = 24;
},
{
segmentType = line;
smooth = 0;
x = 520;
y = 0;
},
{
segmentType = line;
smooth = 1;
x = 244;
y = 0;
},
{
smooth = 0;
x = 178;
y = 0;
},
{
smooth = 0;
x = 108;
y = 13;
},
{
segmentType = curve;
smooth = 1;
x = 108;
y = 126;
},
{
segmentType = line;
smooth = 0;
x = 108;
y = 396;
}
);
}
);
lib = {
};
name = Lslash;
unicodes = (
);
width = 529;
};
};
};
},
{
glyphname = M;
layers = (
{
anchors = (
{
name = bottom;
position = "{398, -150}";
},
{
name = top;
position = "{398, 810}";
}
);
background = {
paths = (
{
closed = 1;
nodes = (
"68 0 LINE",
"149 732 LINE",
"185 732 LINE",
"398 41 LINE",
"607 732 LINE",
"645 732 LINE",
"729 0 LINE",
"705 0 LINE",
"624 703 LINE",
"412 0 LINE",
"385 0 LINE",
"169 703 LINE",
"92 0 LINE"
);
}
);
};
layerId = "970D4E8E-4EF0-498B-97F3-F7DEE39AB542";
paths = (
{
closed = 1;
nodes = (
"91 0 LINE",
"170 724 LINE",
"163 722 LINE",
"388 0 LINE",
"409 0 LINE",
"629 723 LINE",
"622 726 LINE",
"705 0 LINE",
"729 0 LINE",
"645 732 LINE",
"610 732 LINE",
"398 41 LINE",
"182 732 LINE",
"149 732 LINE",
"68 0 LINE"
);
}
);
width = 797;
},
{
anchors = (
{
name = bottom;
position = "{447, -150}";
},
{
name = top;
position = "{447, 810}";
}
);
background = {
paths = (
{
closed = 1;
nodes = (
"35 0 LINE",
"113 732 LINE",
"383 732 LINE",
"445 321 LINE",
"511 732 LINE",
"781 732 LINE",
"860 0 LINE",
"669 0 LINE",
"619 399 LINE",
"558 0 LINE",
"336 0 LINE",
"272 399 LINE",
"226 0 LINE"
);
}
);
};
layerId = "63BEBE16-5EEB-4E8E-8514-0A5E9B1E5A6A";
paths = (
{
closed = 1;
nodes = (
"222 0 LINE",
"278 478 LINE",
"247 477 LINE",
"365 0 LINE",
"547 0 LINE",
"664 477 LINE",
"636 478 LINE",
"693 0 LINE",
"880 0 LINE",
"791 743 LINE",
"611 743 LINE",
"458 221 LINE",
"305 743 LINE",
"123 743 LINE",
"35 0 LINE"
);
}
);
width = 915;
}
);
note = "\012    GF Latin Plus glyph\012  ";
unicode = 004D;
userData = {
com.fontlab.hintData = {
hhints = (
{
position = 0;
width = 21;
},
{
position = 712;
width = 20;
}
);
};
com.typemytype.robofont.layerData = {
background = {
anchors = (
);
components = (
);
contours = (
{
points = (
{
segmentType = line;
smooth = 0;
x = 68;
y = 0;
},
{
segmentType = line;
smooth = 0;
x = 149;
y = 732;
},
{
segmentType = line;
smooth = 0;
x = 185;
y = 732;
},
{
segmentType = line;
smooth = 0;
x = 398;
y = 41;
},
{
segmentType = line;
smooth = 0;
x = 607;
y = 732;
},
{
segmentType = line;
smooth = 0;
x = 645;
y = 732;
},
{
segmentType = line;
smooth = 0;
x = 729;
y = 0;
},
{
segmentType = line;
smooth = 0;
x = 705;
y = 0;
},
{
segmentType = line;
smooth = 0;
x = 624;
y = 703;
},
{
segmentType = line;
smooth = 0;
x = 412;
y = 0;
},
{
segmentType = line;
smooth = 0;
x = 385;
y = 0;
},
{
segmentType = line;
smooth = 0;
x = 169;
y = 703;
},
{
segmentType = line;
smooth = 0;
x = 92;
y = 0;
}
);
}
);
lib = {
};
name = M;
unicodes = (
);
width = 797;
};
};
};
},
{
glyphname = N;
layers = (
{
anchors = (
{
name = bottom;
position = "{337, -150}";
},
{
name = top;
position = "{337, 810}";
}
);
background = {
paths = (
{
closed = 1;
nodes = (
"108 0 LINE",
"108 732 LINE",
"133 732 LINE",
"573 46 LINE",
"573 732 LINE",
"597 732 LINE",
"597 0 LINE",
"573 0 LINE",
"132 686 LINE",
"132 0 LINE"
);
}
);
};
layerId = "970D4E8E-4EF0-498B-97F3-F7DEE39AB542";
paths = (
{
closed = 1;
nodes = (
"132 0 LINE",
"132 688 LINE",
"575 0 LINE",
"597 0 LINE",
"597 732 LINE",
"573 732 LINE",
"573 44 LINE",
"130 732 LINE",
"108 732 LINE",
"108 0 LINE"
);
}
);
width = 665;
},
{
anchors = (
{
name = bottom;
position = "{344, -150}";
},
{
name = top;
position = "{344, 810}";
}
);
background = {
paths = (
{
closed = 1;
nodes = (
"55 0 LINE",
"55 732 LINE",
"251 732 LINE",
"460 358 LINE",
"460 732 LINE",
"654 732 LINE",
"654 0 LINE",
"460 0 LINE",
"250 364 LINE",
"250 0 LINE"
);
}
);
};
layerId = "63BEBE16-5EEB-4E8E-8514-0A5E9B1E5A6A";
paths = (
{
closed = 1;
nodes = (
"249 0 LINE",
"249 414 LINE",
"510 0 LINE",
"664 0 LINE",
"664 743 LINE",
"470 743 LINE",
"470 329 LINE",
"209 743 LINE",
"55 743 LINE",
"55 0 LINE"
);
}
);
width = 719;
}
);
note = "\012    GF Latin Plus glyph\012  ";
unicode = 004E;
userData = {
com.fontlab.hintData = {
hhints = (
{
position = 0;
width = 21;
},
{
position = 712;
width = 20;
}
);
vhints = (
{
position = 108;
width = 24;
},
{
position = 573;
width = 24;
}
);
};
com.typemytype.robofont.layerData = {
background = {
anchors = (
);
components = (
);
contours = (
{
points = (
{
segmentType = line;
smooth = 0;
x = 108;
y = 0;
},
{
segmentType = line;
smooth = 0;
x = 108;
y = 732;
},
{
segmentType = line;
smooth = 0;
x = 133;
y = 732;
},
{
segmentType = line;
smooth = 0;
x = 573;
y = 46;
},
{
segmentType = line;
smooth = 0;
x = 573;
y = 732;
},
{
segmentType = line;
smooth = 0;
x = 597;
y = 732;
},
{
segmentType = line;
smooth = 0;
x = 597;
y = 0;
},
{
segmentType = line;
smooth = 0;
x = 573;
y = 0;
},
{
segmentType = line;
smooth = 0;
x = 132;
y = 686;
},
{
segmentType = line;
smooth = 0;
x = 132;
y = 0;
}
);
}
);
lib = {
};
name = N;
unicodes = (
);
width = 665;
};
};
};
},
{
glyphname = Eng;
layers = (
{
background = {
paths = (
{
closed = 1;
nodes = (
"108 0 LINE",
"108 732 LINE",
"133 732 LINE",
"573 48 LINE",
"573 732 LINE",
"597 732 LINE",
"597 0 LINE",
"597 -84 LINE SMOOTH",
"597 -236 OFFCURVE",
"551 -257 OFFCURVE",
"433 -257 CURVE",
"433 -239 LINE",
"519 -229 OFFCURVE",
"573 -236 OFFCURVE",
"573 -85 CURVE SMOOTH",
"573 0 LINE",
"133 684 LINE",
"133 0 LINE"
);
}
);
};
components = (
{
name = N;
}
);
layerId = "970D4E8E-4EF0-498B-97F3-F7DEE39AB542";
paths = (
{
closed = 1;
nodes = (
"536.388 -243 OFFCURVE",
"597 -211 OFFCURVE",
"597 -92 CURVE SMOOTH",
"597 22 LINE",
"573 22 LINE",
"573 -92 LINE SMOOTH",
"573 -200 OFFCURVE",
"513.39 -221 OFFCURVE",
"432 -221 CURVE SMOOTH",
"401 -221 OFFCURVE",
"354 -211 OFFCURVE",
"325 -202 CURVE",
"325 -218 LINE",
"352 -232 OFFCURVE",
"398 -243 OFFCURVE",
"432 -243 CURVE SMOOTH"
);
}
);
width = 665;
},
{
background = {
paths = (
{
closed = 1;
nodes = (
"45 0 LINE",
"45 732 LINE",
"241 732 LINE",
"450 358 LINE",
"450 732 LINE",
"644 732 LINE",
"644 0 LINE",
"644 -64 LINE SMOOTH",
"644 -257 OFFCURVE",
"480 -270 OFFCURVE",
"360 -257 CURVE",
"360 -120 LINE",
"411 -119 OFFCURVE",
"450 -118 OFFCURVE",
"450 -60 CURVE SMOOTH",
"450 0 LINE",
"240 364 LINE",
"240 0 LINE"
);
}
);
};
components = (
{
name = N;
}
);
layerId = "63BEBE16-5EEB-4E8E-8514-0A5E9B1E5A6A";
paths = (
{
closed = 1;
nodes = (
"607 -243 OFFCURVE",
"664 -170 OFFCURVE",
"664 -42 CURVE SMOOTH",
"664 79 LINE",
"470 79 LINE",
"470 -12 LINE SMOOTH",
"470 -48 OFFCURVE",
"455 -69 OFFCURVE",
"416 -69 CURVE SMOOTH",
"387 -69 OFFCURVE",
"357 -69 OFFCURVE",
"328 -69 CURVE",
"328 -225 LINE",
"359 -234 OFFCURVE",
"407 -243 OFFCURVE",
"455 -243 CURVE SMOOTH"
);
}
);
width = 709;
}
);
note = "\012    GF Latin Plus glyph\012  ";
unicode = 014A;
userData = {
com.fontlab.hintData = {
hhints = (
{
position = -257;
width = 18;
},
{
position = 0;
width = 21;
},
{
position = 712;
width = 20;
}
);
vhints = (
{
position = 108;
width = 25;
},
{
position = 573;
width = 24;
}
);
};
com.typemytype.robofont.layerData = {
background = {
anchors = (
);
components = (
);
contours = (
{
points = (
{
segmentType = line;
smooth = 0;
x = 108;
y = 0;
},
{
segmentType = line;
smooth = 0;
x = 108;
y = 732;
},
{
segmentType = line;
smooth = 0;
x = 133;
y = 732;
},
{
segmentType = line;
smooth = 0;
x = 573;
y = 48;
},
{
segmentType = line;
smooth = 0;
x = 573;
y = 732;
},
{
segmentType = line;
smooth = 0;
x = 597;
y = 732;
},
{
segmentType = line;
smooth = 0;
x = 597;
y = 0;
},
{
segmentType = line;
smooth = 1;
x = 597;
y = -84;
},
{
smooth = 0;
x = 597;
y = -236;
},
{
smooth = 0;
x = 551;
y = -257;
},
{
segmentType = curve;
smooth = 0;
x = 433;
y = -257;
},
{
segmentType = line;
smooth = 0;
x = 433;
y = -239;
},
{
smooth = 0;
x = 519;
y = -229;
},
{
smooth = 0;
x = 573;
y = -236;
},
{
segmentType = curve;
smooth = 1;
x = 573;
y = -85;
},
{
segmentType = line;
smooth = 0;
x = 573;
y = 0;
},
{
segmentType = line;
smooth = 0;
x = 133;
y = 684;
},
{
segmentType = line;
smooth = 0;
x = 133;
y = 0;
}
);
}
);
lib = {
};
name = Eng;
unicodes = (
);
width = 665;
};
};
};
},
{
glyphname = O;
layers = (
{
anchors = (
{
name = bottom;
position = "{338, -150}";
},
{
name = ogonek;
position = "{398, 0}";
},
{
name = top;
position = "{338, 810}";
}
);
background = {
paths = (
{
closed = 1;
nodes = (
"94 361 CURVE SMOOTH",
"94 63 OFFCURVE",
"159 20 OFFCURVE",
"338 20 CURVE SMOOTH",
"509 20 OFFCURVE",
"582 65 OFFCURVE",
"582 361 CURVE SMOOTH",
"582 685 OFFCURVE",
"498 713 OFFCURVE",
"338 713 CURVE SMOOTH",
"190 713 OFFCURVE",
"94 698 OFFCURVE"
);
},
{
closed = 1;
nodes = (
"70 361 CURVE SMOOTH",
"70 704 OFFCURVE",
"166 737 OFFCURVE",
"338 737 CURVE SMOOTH",
"511 737 OFFCURVE",
"606 704 OFFCURVE",
"606 361 CURVE SMOOTH",
"606 38 OFFCURVE",
"518 -4 OFFCURVE",
"338 -4 CURVE SMOOTH",
"158 -4 OFFCURVE",
"70 28 OFFCURVE"
);
}
);
};
layerId = "970D4E8E-4EF0-498B-97F3-F7DEE39AB542";
paths = (
{
closed = 1;
nodes = (
"518 -6 OFFCURVE",
"606 37 OFFCURVE",
"606 361 CURVE SMOOTH",
"606 685 OFFCURVE",
"521 738 OFFCURVE",
"338 738 CURVE SMOOTH",
"163 738 OFFCURVE",
"70 685 OFFCURVE",
"70 361 CURVE SMOOTH",
"70 37 OFFCURVE",
"158 -6 OFFCURVE",
"338 -6 CURVE SMOOTH"
);
},
{
closed = 1;
nodes = (
"159 16 OFFCURVE",
"94 59 OFFCURVE",
"94 361 CURVE SMOOTH",
"94 678 OFFCURVE",
"180 716 OFFCURVE",
"338 716 CURVE SMOOTH",
"508 716 OFFCURVE",
"582 678 OFFCURVE",
"582 361 CURVE SMOOTH",
"582 59 OFFCURVE",
"509 16 OFFCURVE",
"338 16 CURVE SMOOTH"
);
}
);
width = 676;
},
{
anchors = (
{
name = bottom;
position = "{354, -150}";
},
{
name = ogonek;
position = "{421, 0}";
},
{
name = top;
position = "{354, 810}";
}
);
background = {
paths = (
{
closed = 1;
nodes = (
"230 361 CURVE SMOOTH",
"230 208 OFFCURVE",
"241 170 OFFCURVE",
"339 170 CURVE SMOOTH",
"425 170 OFFCURVE",
"448 206 OFFCURVE",
"448 361 CURVE SMOOTH",
"448 531 OFFCURVE",
"430 563 OFFCURVE",
"339 563 CURVE SMOOTH",
"251 563 OFFCURVE",
"230 540 OFFCURVE"
);
},
{
closed = 1;
nodes = (
"36 361 CURVE SMOOTH",
"36 704 OFFCURVE",
"171 737 OFFCURVE",
"339 737 CURVE SMOOTH",
"512 737 OFFCURVE",
"642 704 OFFCURVE",
"642 361 CURVE SMOOTH",
"642 38 OFFCURVE",
"519 -4 OFFCURVE",
"339 -4 CURVE SMOOTH",
"159 -4 OFFCURVE",
"36 28 OFFCURVE"
);
}
);
};
layerId = "63BEBE16-5EEB-4E8E-8514-0A5E9B1E5A6A";
paths = (
{
closed = 1;
nodes = (
"564 -6 OFFCURVE",
"672 57 OFFCURVE",
"672 372 CURVE SMOOTH",
"672 687 OFFCURVE",
"564 750 OFFCURVE",
"354 750 CURVE SMOOTH",
"144 750 OFFCURVE",
"36 687 OFFCURVE",
"36 372 CURVE SMOOTH",
"36 57 OFFCURVE",
"144 -6 OFFCURVE",
"354 -6 CURVE SMOOTH"
);
},
{
closed = 1;
nodes = (
"254 168 OFFCURVE",
"230 206 OFFCURVE",
"230 372 CURVE SMOOTH",
"230 544 OFFCURVE",
"254 576 OFFCURVE",
"354 576 CURVE SMOOTH",
"454 576 OFFCURVE",
"478 544 OFFCURVE",
"478 372 CURVE SMOOTH",
"478 206 OFFCURVE",
"454 168 OFFCURVE",
"354 168 CURVE SMOOTH"
);
}
);
width = 708;
}
);
leftKerningGroup = O;
note = "\012    GF Latin Plus glyph\012  ";
rightKerningGroup = O;
unicode = 004F;
userData = {
com.fontlab.hintData = {
hhints = (
{
position = -4;
width = 24;
},
{
position = 713;
width = 24;
}
);
vhints = (
{
position = 88;
width = 24;
},
{
position = 600;
width = 24;
}
);
};
com.typemytype.robofont.layerData = {
background = {
anchors = (
);
components = (
);
contours = (
{
points = (
{
segmentType = curve;
smooth = 1;
x = 94;
y = 361;
},
{
smooth = 0;
x = 94;
y = 63;
},
{
smooth = 0;
x = 159;
y = 20;
},
{
segmentType = curve;
smooth = 1;
x = 338;
y = 20;
},
{
smooth = 0;
x = 509;
y = 20;
},
{
smooth = 0;
x = 582;
y = 65;
},
{
segmentType = curve;
smooth = 1;
x = 582;
y = 361;
},
{
smooth = 0;
x = 582;
y = 685;
},
{
smooth = 0;
x = 498;
y = 713;
},
{
segmentType = curve;
smooth = 1;
x = 338;
y = 713;
},
{
smooth = 0;
x = 190;
y = 713;
},
{
smooth = 0;
x = 94;
y = 698;
}
);
},
{
points = (
{
segmentType = curve;
smooth = 1;
x = 70;
y = 361;
},
{
smooth = 0;
x = 70;
y = 704;
},
{
smooth = 0;
x = 166;
y = 737;
},
{
segmentType = curve;
smooth = 1;
x = 338;
y = 737;
},
{
smooth = 0;
x = 511;
y = 737;
},
{
smooth = 0;
x = 606;
y = 704;
},
{
segmentType = curve;
smooth = 1;
x = 606;
y = 361;
},
{
smooth = 0;
x = 606;
y = 38;
},
{
smooth = 0;
x = 518;
y = -4;
},
{
segmentType = curve;
smooth = 1;
x = 338;
y = -4;
},
{
smooth = 0;
x = 158;
y = -4;
},
{
smooth = 0;
x = 70;
y = 28;
}
);
}
);
lib = {
};
name = O;
unicodes = (
);
width = 676;
};
};
};
},
{
glyphname = Ohorn;
layers = (
{
anchors = (
{
name = bottom;
position = "{338, -150}";
},
{
name = top;
position = "{338, 810}";
}
);
components = (
{
name = O;
}
);
layerId = "970D4E8E-4EF0-498B-97F3-F7DEE39AB542";
paths = (
{
closed = 1;
nodes = (
"509 716 LINE SMOOTH",
"559 716 OFFCURVE",
"615 740 OFFCURVE",
"615 848 CURVE",
"593 848 LINE",
"593 761 OFFCURVE",
"557 732 OFFCURVE",
"509 732 CURVE SMOOTH",
"381 732 LINE",
"381 716 LINE"
);
}
);
width = 676;
},
{
anchors = (
{
name = bottom;
position = "{354, -150}";
},
{
name = top;
position = "{354, 810}";
}
);
components = (
{
name = O;
}
);
layerId = "63BEBE16-5EEB-4E8E-8514-0A5E9B1E5A6A";
paths = (
{
closed = 1;
nodes = (
"531 639 LINE SMOOTH",
"632 639 OFFCURVE",
"693 717 OFFCURVE",
"693 851 CURVE",
"561 851 LINE",
"561 770 OFFCURVE",
"538 743 OFFCURVE",
"494 743 CURVE SMOOTH",
"373 743 LINE",
"373 639 LINE"
);
}
);
width = 708;
}
);
leftKerningGroup = O;
note = "\012    GF Latin Plus glyph\012  ";
rightKerningGroup = O;
unicode = 01A0;
},
{
glyphname = Oslash;
layers = (
{
anchors = (
{
name = top;
position = "{338, 810}";
}
);
background = {
paths = (
{
closed = 1;
nodes = (
"175 70 LINE",
"214 30 OFFCURVE",
"272 20 OFFCURVE",
"356 20 CURVE SMOOTH",
"527 20 OFFCURVE",
"600 65 OFFCURVE",
"600 361 CURVE SMOOTH",
"600 511 OFFCURVE",
"582 597 OFFCURVE",
"547 647 CURVE"
);
},
{
closed = 1;
nodes = (
"112 361 CURVE SMOOTH",
"112 215 OFFCURVE",
"128 131 OFFCURVE",
"165 82 CURVE",
"537 660 LINE",
"496 706 OFFCURVE",
"435 713 OFFCURVE",
"356 713 CURVE SMOOTH",
"208 713 OFFCURVE",
"112 698 OFFCURVE"
);
},
{
closed = 1;
nodes = (
"88 361 CURVE SMOOTH",
"88 704 OFFCURVE",
"184 737 OFFCURVE",
"356 737 CURVE SMOOTH",
"440 737 OFFCURVE",
"506 729 OFFCURVE",
"551 682 CURVE",
"583 732 LINE",
"601 732 LINE",
"561 670 LINE",
"602 617 OFFCURVE",
"624 524 OFFCURVE",
"624 361 CURVE SMOOTH",
"624 38 OFFCURVE",
"536 -4 OFFCURVE",
"356 -4 CURVE SMOOTH",
"270 -4 OFFCURVE",
"205 3 OFFCURVE",
"161 47 CURVE",
"130 0 LINE",
"112 0 LINE",
"150 59 LINE",
"109 110 OFFCURVE",
"88 200 OFFCURVE"
);
}
);
};
components = (
{
name = O;
}
);
layerId = "970D4E8E-4EF0-498B-97F3-F7DEE39AB542";
paths = (
{
closed = 1;
nodes = (
"110 0 LINE",
"591 732 LINE",
"566 732 LINE",
"85 0 LINE"
);
}
);
width = 676;
},
{
anchors = (
{
name = top;
position = "{354, 810}";
}
);
background = {
paths = (
{
closed = 1;
nodes = (
"262 202 LINE",
"278 178 OFFCURVE",
"304 170 OFFCURVE",
"349 170 CURVE SMOOTH",
"435 170 OFFCURVE",
"458 206 OFFCURVE",
"458 361 CURVE SMOOTH",
"458 406 OFFCURVE",
"457 441 OFFCURVE",
"453 469 CURVE"
);
},
{
closed = 1;
nodes = (
"240 361 CURVE SMOOTH",
"240 335 OFFCURVE",
"240 313 OFFCURVE",
"241 293 CURVE",
"422 545 LINE",
"406 559 OFFCURVE",
"382 563 OFFCURVE",
"349 563 CURVE SMOOTH",
"261 563 OFFCURVE",
"240 540 OFFCURVE"
);
},
{
closed = 1;
nodes = (
"46 361 CURVE SMOOTH",
"46 704 OFFCURVE",
"181 737 OFFCURVE",
"349 737 CURVE SMOOTH",
"420 737 OFFCURVE",
"484 731 OFFCURVE",
"534 701 CURVE",
"556 732 LINE",
"642 732 LINE",
"586 654 LINE",
"627 599 OFFCURVE",
"652 509 OFFCURVE",
"652 361 CURVE SMOOTH",
"652 38 OFFCURVE",
"529 -4 OFFCURVE",
"349 -4 CURVE SMOOTH",
"268 -4 OFFCURVE",
"198 2 OFFCURVE",
"146 40 CURVE",
"117 0 LINE",
"31 0 LINE",
"98 93 LINE",
"65 147 OFFCURVE",
"46 231 OFFCURVE"
);
}
);
};
components = (
{
name = O;
}
);
layerId = "63BEBE16-5EEB-4E8E-8514-0A5E9B1E5A6A";
paths = (
{
closed = 1;
nodes = (
"170 0 LINE",
"664 743 LINE",
"539 743 LINE",
"45 0 LINE"
);
}
);
width = 708;
}
);
leftKerningGroup = O;
note = "\012    GF Latin Plus glyph\012  ";
rightKerningGroup = O;
unicode = 00D8;
userData = {
com.fontlab.hintData = {
hhints = (
{
position = -4;
width = 24;
},
{
position = 713;
width = 24;
}
);
vhints = (
{
position = 88;
width = 24;
},
{
position = 600;
width = 24;
}
);
};
com.typemytype.robofont.layerData = {
background = {
anchors = (
);
components = (
);
contours = (
{
points = (
{
segmentType = line;
smooth = 0;
x = 175;
y = 70;
},
{
smooth = 0;
x = 214;
y = 30;
},
{
smooth = 0;
x = 272;
y = 20;
},
{
segmentType = curve;
smooth = 1;
x = 356;
y = 20;
},
{
smooth = 0;
x = 527;
y = 20;
},
{
smooth = 0;
x = 600;
y = 65;
},
{
segmentType = curve;
smooth = 1;
x = 600;
y = 361;
},
{
smooth = 0;
x = 600;
y = 511;
},
{
smooth = 0;
x = 582;
y = 597;
},
{
segmentType = curve;
smooth = 0;
x = 547;
y = 647;
}
);
},
{
points = (
{
segmentType = curve;
smooth = 1;
x = 112;
y = 361;
},
{
smooth = 0;
x = 112;
y = 215;
},
{
smooth = 0;
x = 128;
y = 131;
},
{
segmentType = curve;
smooth = 0;
x = 165;
y = 82;
},
{
segmentType = line;
smooth = 0;
x = 537;
y = 660;
},
{
smooth = 0;
x = 496;
y = 706;
},
{
smooth = 0;
x = 435;
y = 713;
},
{
segmentType = curve;
smooth = 1;
x = 356;
y = 713;
},
{
smooth = 0;
x = 208;
y = 713;
},
{
smooth = 0;
x = 112;
y = 698;
}
);
},
{
points = (
{
segmentType = curve;
smooth = 1;
x = 88;
y = 361;
},
{
smooth = 0;
x = 88;
y = 704;
},
{
smooth = 0;
x = 184;
y = 737;
},
{
segmentType = curve;
smooth = 1;
x = 356;
y = 737;
},
{
smooth = 0;
x = 440;
y = 737;
},
{
smooth = 0;
x = 506;
y = 729;
},
{
segmentType = curve;
smooth = 0;
x = 551;
y = 682;
},
{
segmentType = line;
smooth = 0;
x = 583;
y = 732;
},
{
segmentType = line;
smooth = 0;
x = 601;
y = 732;
},
{
segmentType = line;
smooth = 0;
x = 561;
y = 670;
},
{
smooth = 0;
x = 602;
y = 617;
},
{
smooth = 0;
x = 624;
y = 524;
},
{
segmentType = curve;
smooth = 1;
x = 624;
y = 361;
},
{
smooth = 0;
x = 624;
y = 38;
},
{
smooth = 0;
x = 536;
y = -4;
},
{
segmentType = curve;
smooth = 1;
x = 356;
y = -4;
},
{
smooth = 0;
x = 270;
y = -4;
},
{
smooth = 0;
x = 205;
y = 3;
},
{
segmentType = curve;
smooth = 0;
x = 161;
y = 47;
},
{
segmentType = line;
smooth = 0;
x = 130;
y = 0;
},
{
segmentType = line;
smooth = 0;
x = 112;
y = 0;
},
{
segmentType = line;
smooth = 0;
x = 150;
y = 59;
},
{
smooth = 0;
x = 109;
y = 110;
},
{
smooth = 0;
x = 88;
y = 200;
}
);
}
);
lib = {
};
name = Oslash;
unicodes = (
);
width = 676;
};
};
};
},
{
glyphname = OE;
layers = (
{
background = {
paths = (
{
closed = 1;
nodes = (
"88 361 CURVE SMOOTH",
"88 704 OFFCURVE",
"184 737 OFFCURVE",
"356 737 CURVE SMOOTH",
"477 737 OFFCURVE",
"560 721 OFFCURVE",
"599 593 CURVE",
"599 696 OFFCURVE",
"656 735 OFFCURVE",
"725 732 CURVE SMOOTH",
"992 722 LINE",
"992 708 LINE",
"725 708 LINE SMOOTH",
"663 708 OFFCURVE",
"623 677 OFFCURVE",
"623 602 CURVE SMOOTH",
"623 602 OFFCURVE",
"623 449 OFFCURVE",
"624 375 CURVE",
"952 370 LINE",
"952 356 LINE",
"624 351 LINE",
"624 276 OFFCURVE",
"623 123 OFFCURVE",
"623 123 CURVE SMOOTH",
"623 31 OFFCURVE",
"680 21 OFFCURVE",
"735 21 CURVE SMOOTH",
"992 21 LINE",
"992 7 LINE",
"735 -3 LINE SMOOTH",
"661 -6 OFFCURVE",
"599 15 OFFCURVE",
"599 136 CURVE",
"561 16 OFFCURVE",
"481 -4 OFFCURVE",
"356 -4 CURVE SMOOTH",
"176 -4 OFFCURVE",
"88 28 OFFCURVE"
);
},
{
closed = 1;
nodes = (
"112 361 CURVE SMOOTH",
"112 63 OFFCURVE",
"177 20 OFFCURVE",
"356 20 CURVE SMOOTH",
"546 20 OFFCURVE",
"599 80 OFFCURVE",
"599 370 CURVE SMOOTH",
"599 674 OFFCURVE",
"523 713 OFFCURVE",
"356 713 CURVE SMOOTH",
"208 713 OFFCURVE",
"112 698 OFFCURVE"
);
}
);
};
components = (
{
name = O;
},
{
name = E;
transform = "{1, 0, 0, 1, 494, 0}";
}
);
layerId = "970D4E8E-4EF0-498B-97F3-F7DEE39AB542";
width = 1073;
},
{
background = {
paths = (
{
closed = 1;
nodes = (
"37 361 CURVE SMOOTH",
"37 704 OFFCURVE",
"172 737 OFFCURVE",
"340 737 CURVE SMOOTH",
"406 737 OFFCURVE",
"465 732 OFFCURVE",
"514 707 CURVE",
"548 728 OFFCURVE",
"592 734 OFFCURVE",
"634 732 CURVE SMOOTH",
"634 732 OFFCURVE",
"824 732 OFFCURVE",
"941 716 CURVE",
"941 553 LINE",
"694 553 LINE SMOOTH",
"642 553 OFFCURVE",
"642 524 OFFCURVE",
"642 497 CURVE SMOOTH",
"642 453 LINE",
"891 442 LINE",
"891 281 LINE",
"642 272 LINE",
"642 228 LINE SMOOTH",
"642 175 OFFCURVE",
"675 176 OFFCURVE",
"704 176 CURVE SMOOTH",
"941 176 LINE",
"941 14 LINE",
"838 0 OFFCURVE",
"644 -3 OFFCURVE",
"644 -3 CURVE SMOOTH",
"608 -5 OFFCURVE",
"551 -4 OFFCURVE",
"508 23 CURVE",
"461 1 OFFCURVE",
"405 -4 OFFCURVE",
"340 -4 CURVE SMOOTH",
"160 -4 OFFCURVE",
"37 28 OFFCURVE"
);
},
{
closed = 1;
nodes = (
"231 361 CURVE SMOOTH",
"231 208 OFFCURVE",
"242 170 OFFCURVE",
"340 170 CURVE SMOOTH",
"426 170 OFFCURVE",
"448 206 OFFCURVE",
"448 361 CURVE SMOOTH",
"448 531 OFFCURVE",
"431 563 OFFCURVE",
"340 563 CURVE SMOOTH",
"252 563 OFFCURVE",
"231 540 OFFCURVE"
);
}
);
};
components = (
{
name = O;
},
{
name = E;
transform = "{1, 0, 0, 1, 423, 0}";
}
);
layerId = "63BEBE16-5EEB-4E8E-8514-0A5E9B1E5A6A";
width = 1027;
}
);
leftKerningGroup = O;
note = "\012    GF Latin Plus glyph\012  ";
rightKerningGroup = E;
unicode = 0152;
userData = {
com.fontlab.hintData = {
hhints = (
{
position = -4;
width = 24;
},
{
position = 7;
width = 14;
},
{
position = 351;
width = 24;
},
{
position = 708;
width = 14;
},
{
position = 713;
width = 24;
}
);
vhints = (
{
position = 88;
width = 24;
},
{
position = 599;
width = 25;
}
);
};
com.typemytype.robofont.layerData = {
background = {
anchors = (
);
components = (
);
contours = (
{
points = (
{
segmentType = curve;
smooth = 1;
x = 88;
y = 361;
},
{
smooth = 0;
x = 88;
y = 704;
},
{
smooth = 0;
x = 184;
y = 737;
},
{
segmentType = curve;
smooth = 1;
x = 356;
y = 737;
},
{
smooth = 0;
x = 477;
y = 737;
},
{
smooth = 0;
x = 560;
y = 721;
},
{
segmentType = curve;
smooth = 0;
x = 599;
y = 593;
},
{
smooth = 0;
x = 599;
y = 696;
},
{
smooth = 0;
x = 656;
y = 735;
},
{
segmentType = curve;
smooth = 1;
x = 725;
y = 732;
},
{
segmentType = line;
smooth = 0;
x = 992;
y = 722;
},
{
segmentType = line;
smooth = 0;
x = 992;
y = 708;
},
{
segmentType = line;
smooth = 1;
x = 725;
y = 708;
},
{
smooth = 0;
x = 663;
y = 708;
},
{
smooth = 0;
x = 623;
y = 677;
},
{
segmentType = curve;
smooth = 1;
x = 623;
y = 602;
},
{
smooth = 0;
x = 623;
y = 602;
},
{
smooth = 0;
x = 623;
y = 449;
},
{
segmentType = curve;
smooth = 0;
x = 624;
y = 375;
},
{
segmentType = line;
smooth = 0;
x = 952;
y = 370;
},
{
segmentType = line;
smooth = 0;
x = 952;
y = 356;
},
{
segmentType = line;
smooth = 0;
x = 624;
y = 351;
},
{
smooth = 0;
x = 624;
y = 276;
},
{
smooth = 0;
x = 623;
y = 123;
},
{
segmentType = curve;
smooth = 1;
x = 623;
y = 123;
},
{
smooth = 0;
x = 623;
y = 31;
},
{
smooth = 0;
x = 680;
y = 21;
},
{
segmentType = curve;
smooth = 1;
x = 735;
y = 21;
},
{
segmentType = line;
smooth = 0;
x = 992;
y = 21;
},
{
segmentType = line;
smooth = 0;
x = 992;
y = 7;
},
{
segmentType = line;
smooth = 1;
x = 735;
y = -3;
},
{
smooth = 0;
x = 661;
y = -6;
},
{
smooth = 0;
x = 599;
y = 15;
},
{
segmentType = curve;
smooth = 0;
x = 599;
y = 136;
},
{
smooth = 0;
x = 561;
y = 16;
},
{
smooth = 0;
x = 481;
y = -4;
},
{
segmentType = curve;
smooth = 1;
x = 356;
y = -4;
},
{
smooth = 0;
x = 176;
y = -4;
},
{
smooth = 0;
x = 88;
y = 28;
}
);
},
{
points = (
{
segmentType = curve;
smooth = 1;
x = 112;
y = 361;
},
{
smooth = 0;
x = 112;
y = 63;
},
{
smooth = 0;
x = 177;
y = 20;
},
{
segmentType = curve;
smooth = 1;
x = 356;
y = 20;
},
{
smooth = 0;
x = 546;
y = 20;
},
{
smooth = 0;
x = 599;
y = 80;
},
{
segmentType = curve;
smooth = 1;
x = 599;
y = 370;
},
{
smooth = 0;
x = 599;
y = 674;
},
{
smooth = 0;
x = 523;
y = 713;
},
{
segmentType = curve;
smooth = 1;
x = 356;
y = 713;
},
{
smooth = 0;
x = 208;
y = 713;
},
{
smooth = 0;
x = 112;
y = 698;
}
);
}
);
lib = {
};
name = OE;
unicodes = (
);
width = 1073;
};
};
};
},
{
glyphname = P;
layers = (
{
anchors = (
{
name = top;
position = "{278, 810}";
}
);
background = {
paths = (
{
closed = 1;
nodes = (
"112 347 LINE",
"364 347 LINE SMOOTH",
"443 347 OFFCURVE",
"517 373 OFFCURVE",
"515 532 CURVE",
"515 686 OFFCURVE",
"440 707 OFFCURVE",
"364 707 CURVE SMOOTH",
"112 707 LINE"
);
},
{
closed = 1;
nodes = (
"88 0 LINE",
"88 732 LINE",
"364 732 LINE SMOOTH",
"443 732 OFFCURVE",
"540 711 OFFCURVE",
"540 532 CURVE SMOOTH",
"540 328 OFFCURVE",
"438 323 OFFCURVE",
"364 323 CURVE SMOOTH",
"324 323 OFFCURVE",
"117 330 OFFCURVE",
"112 333 CURVE",
"112 0 LINE"
);
}
);
};
layerId = "970D4E8E-4EF0-498B-97F3-F7DEE39AB542";
paths = (
{
closed = 1;
nodes = (
"112 0 LINE",
"112 291 LINE",
"157 289 OFFCURVE",
"316 285 OFFCURVE",
"354 285 CURVE SMOOTH",
"432 285 OFFCURVE",
"540 323.382 OFFCURVE",
"540 512 CURVE SMOOTH",
"540 697.9 OFFCURVE",
"443 732 OFFCURVE",
"364 732 CURVE SMOOTH",
"88 732 LINE",
"88 0 LINE"
);
},
{
closed = 1;
nodes = (
"112 710 LINE",
"364 710 LINE SMOOTH",
"440 710 OFFCURVE",
"515 675.517 OFFCURVE",
"515 512 CURVE SMOOTH",
"515 346.892 OFFCURVE",
"438 307 OFFCURVE",
"354 307 CURVE SMOOTH",
"112 307 LINE"
);
}
);
width = 590;
},
{
anchors = (
{
name = top;
position = "{314, 810}";
}
);
background = {
paths = (
{
closed = 1;
nodes = (
"249 412 LINE",
"361 412 LINE SMOOTH",
"399 412 OFFCURVE",
"412 441 OFFCURVE",
"412 492 CURVE SMOOTH",
"412 542 OFFCURVE",
"396 567 OFFCURVE",
"361 567 CURVE SMOOTH",
"249 567 LINE"
);
},
{
closed = 1;
nodes = (
"55 0 LINE",
"55 732 LINE",
"381 732 LINE SMOOTH",
"483 732 OFFCURVE",
"607 707 OFFCURVE",
"607 495 CURVE SMOOTH",
"607 260 OFFCURVE",
"473 241 OFFCURVE",
"381 248 CURVE SMOOTH",
"341 251 OFFCURVE",
"254 265 OFFCURVE",
"249 268 CURVE",
"249 0 LINE"
);
}
);
};
layerId = "63BEBE16-5EEB-4E8E-8514-0A5E9B1E5A6A";
paths = (
{
closed = 1;
nodes = (
"249 0 LINE",
"249 224 LINE",
"279 218 OFFCURVE",
"341 204 OFFCURVE",
"392 204 CURVE SMOOTH",
"487 204 OFFCURVE",
"607 236.179 OFFCURVE",
"607 477 CURVE SMOOTH",
"607 714.945 OFFCURVE",
"483 743 OFFCURVE",
"381 743 CURVE SMOOTH",
"55 743 LINE",
"55 0 LINE"
);
},
{
closed = 1;
nodes = (
"249 569 LINE",
"361 569 LINE SMOOTH",
"398 569 OFFCURVE",
"413 536.548 OFFCURVE",
"413 475 CURVE SMOOTH",
"413 411.448 OFFCURVE",
"401 378 OFFCURVE",
"361 378 CURVE SMOOTH",
"249 378 LINE"
);
}
);
width = 633;
}
);
note = "\012    GF Latin Plus glyph\012  ";
rightKerningGroup = P;
unicode = 0050;
userData = {
com.fontlab.hintData = {
hhints = (
{
position = 0;
width = 21;
},
{
position = 323;
width = 24;
},
{
position = 333;
width = 14;
},
{
position = 707;
width = 25;
}
);
vhints = (
{
position = 81;
width = 24;
},
{
position = 508;
width = 25;
}
);
};
com.typemytype.robofont.layerData = {
background = {
anchors = (
);
components = (
);
contours = (
{
points = (
{
segmentType = line;
smooth = 0;
x = 112;
y = 347;
},
{
segmentType = line;
smooth = 1;
x = 364;
y = 347;
},
{
smooth = 0;
x = 443;
y = 347;
},
{
smooth = 0;
x = 517;
y = 373;
},
{
segmentType = curve;
smooth = 0;
x = 515;
y = 532;
},
{
smooth = 0;
x = 515;
y = 686;
},
{
smooth = 0;
x = 440;
y = 707;
},
{
segmentType = curve;
smooth = 1;
x = 364;
y = 707;
},
{
segmentType = line;
smooth = 0;
x = 112;
y = 707;
}
);
},
{
points = (
{
segmentType = line;
smooth = 0;
x = 88;
y = 0;
},
{
segmentType = line;
smooth = 0;
x = 88;
y = 732;
},
{
segmentType = line;
smooth = 1;
x = 364;
y = 732;
},
{
smooth = 0;
x = 443;
y = 732;
},
{
smooth = 0;
x = 540;
y = 711;
},
{
segmentType = curve;
smooth = 1;
x = 540;
y = 532;
},
{
smooth = 0;
x = 540;
y = 328;
},
{
smooth = 0;
x = 438;
y = 323;
},
{
segmentType = curve;
smooth = 1;
x = 364;
y = 323;
},
{
smooth = 0;
x = 324;
y = 323;
},
{
smooth = 0;
x = 117;
y = 330;
},
{
segmentType = curve;
smooth = 0;
x = 112;
y = 333;
},
{
segmentType = line;
smooth = 0;
x = 112;
y = 0;
}
);
}
);
lib = {
};
name = P;
unicodes = (
);
width = 590;
};
};
};
},
{
glyphname = Thorn;
layers = (
{
background = {
paths = (
{
closed = 1;
nodes = (
"105 173 LINE",
"322 173 LINE SMOOTH",
"416 173 OFFCURVE",
"474 220 OFFCURVE",
"474 377 CURVE SMOOTH",
"474 540 OFFCURVE",
"388 563 OFFCURVE",
"322 564 CURVE",
"105 564 LINE"
);
},
{
closed = 1;
nodes = (
"81 0 LINE",
"81 243 OFFCURVE",
"81 486 OFFCURVE",
"81 729 CURVE",
"105 729 LINE",
"105 588 LINE",
"322 588 LINE SMOOTH",
"401 588 OFFCURVE",
"498 554 OFFCURVE",
"498 375 CURVE SMOOTH",
"498 171 OFFCURVE",
"396 149 OFFCURVE",
"322 149 CURVE",
"282 150 OFFCURVE",
"140 154 OFFCURVE",
"105 159 CURVE",
"105 0 LINE"
);
}
);
};
layerId = "970D4E8E-4EF0-498B-97F3-F7DEE39AB542";
paths = (
{
closed = 1;
nodes = (
"112 0 LINE",
"112 184 LINE",
"147.723 182.412 OFFCURVE",
"273.851 178 OFFCURVE",
"304 178 CURVE SMOOTH",
"382 178 OFFCURVE",
"490 213 OFFCURVE",
"490 385 CURVE SMOOTH",
"490 554 OFFCURVE",
"393 585 OFFCURVE",
"314 585 CURVE SMOOTH",
"112 585 LINE",
"112 732 LINE",
"88 732 LINE",
"88 0 LINE"
);
},
{
closed = 1;
nodes = (
"112 563 LINE",
"314 563 LINE SMOOTH",
"390 563 OFFCURVE",
"465 532 OFFCURVE",
"465 385 CURVE SMOOTH",
"465 236 OFFCURVE",
"388 200 OFFCURVE",
"304 200 CURVE SMOOTH",
"112 200 LINE"
);
}
);
width = 540;
},
{
background = {
paths = (
{
closed = 1;
nodes = (
"228 313 LINE",
"255 313 LINE SMOOTH",
"307 313 OFFCURVE",
"316 317 OFFCURVE",
"316 372 CURVE SMOOTH",
"316 423 OFFCURVE",
"295 424 OFFCURVE",
"255 424 CURVE SMOOTH",
"228 424 LINE"
);
},
{
closed = 1;
nodes = (
"34 0 LINE",
"34 243 OFFCURVE",
"34 486 OFFCURVE",
"34 729 CURVE",
"228 729 LINE",
"228 588 LINE",
"335 588 LINE SMOOTH",
"414 588 OFFCURVE",
"511 554 OFFCURVE",
"511 375 CURVE SMOOTH",
"511 171 OFFCURVE",
"409 152 OFFCURVE",
"335 149 CURVE SMOOTH",
"289 147 OFFCURVE",
"271 147 OFFCURVE",
"228 168 CURVE",
"228 0 LINE"
);
}
);
};
layerId = "63BEBE16-5EEB-4E8E-8514-0A5E9B1E5A6A";
paths = (
{
closed = 1;
nodes = (
"249 0 LINE",
"249 134 LINE",
"273 129 OFFCURVE",
"322 114 OFFCURVE",
"362 114 CURVE SMOOTH",
"457 114 OFFCURVE",
"577 145 OFFCURVE",
"577 377 CURVE SMOOTH",
"577 606 OFFCURVE",
"453 633 OFFCURVE",
"351 633 CURVE SMOOTH",
"249 633 LINE",
"249 743 LINE",
"55 743 LINE",
"55 0 LINE"
);
},
{
closed = 1;
nodes = (
"249 459 LINE",
"331 459 LINE SMOOTH",
"368 459 OFFCURVE",
"383 430 OFFCURVE",
"383 375 CURVE SMOOTH",
"383 318 OFFCURVE",
"371 288 OFFCURVE",
"331 288 CURVE SMOOTH",
"249 288 LINE"
);
}
);
width = 603;
}
);
note = "\012    GF Latin Plus glyph\012  ";
unicode = 00DE;
userData = {
com.fontlab.hintData = {
hhints = (
{
position = 0;
width = 21;
},
{
position = 149;
width = 24;
},
{
position = 159;
width = 14;
},
{
position = 564;
width = 24;
}
);
vhints = (
{
position = 81;
width = 24;
},
{
position = 474;
width = 24;
}
);
};
com.typemytype.robofont.layerData = {
background = {
anchors = (
);
components = (
);
contours = (
{
points = (
{
segmentType = line;
smooth = 0;
x = 105;
y = 173;
},
{
segmentType = line;
smooth = 1;
x = 322;
y = 173;
},
{
smooth = 0;
x = 416;
y = 173;
},
{
smooth = 0;
x = 474;
y = 220;
},
{
segmentType = curve;
smooth = 1;
x = 474;
y = 377;
},
{
smooth = 0;
x = 474;
y = 540;
},
{
smooth = 0;
x = 388;
y = 563;
},
{
segmentType = curve;
smooth = 0;
x = 322;
y = 564;
},
{
segmentType = line;
smooth = 0;
x = 105;
y = 564;
}
);
},
{
points = (
{
segmentType = line;
smooth = 0;
x = 81;
y = 0;
},
{
smooth = 0;
x = 81;
y = 243;
},
{
smooth = 0;
x = 81;
y = 486;
},
{
segmentType = curve;
smooth = 0;
x = 81;
y = 729;
},
{
segmentType = line;
smooth = 0;
x = 105;
y = 729;
},
{
segmentType = line;
smooth = 0;
x = 105;
y = 588;
},
{
segmentType = line;
smooth = 1;
x = 322;
y = 588;
},
{
smooth = 0;
x = 401;
y = 588;
},
{
smooth = 0;
x = 498;
y = 554;
},
{
segmentType = curve;
smooth = 1;
x = 498;
y = 375;
},
{
smooth = 0;
x = 498;
y = 171;
},
{
smooth = 0;
x = 396;
y = 149;
},
{
segmentType = curve;
smooth = 0;
x = 322;
y = 149;
},
{
smooth = 0;
x = 282;
y = 150;
},
{
smooth = 0;
x = 140;
y = 154;
},
{
segmentType = curve;
smooth = 0;
x = 105;
y = 159;
},
{
segmentType = line;
smooth = 0;
x = 105;
y = 0;
}
);
}
);
lib = {
};
name = Thorn;
unicodes = (
);
width = 540;
};
};
};
},
{
glyphname = Q;
layers = (
{
background = {
paths = (
{
closed = 1;
nodes = (
"348 -33 CURVE",
"362 -33 LINE",
"392 -115 OFFCURVE",
"479 -116 OFFCURVE",
"538 -96 CURVE",
"538 -120 LINE",
"466 -147 OFFCURVE",
"368 -127 OFFCURVE"
);
},
{
closed = 1;
nodes = (
"112 361 CURVE SMOOTH",
"112 63 OFFCURVE",
"177 20 OFFCURVE",
"356 20 CURVE SMOOTH",
"527 20 OFFCURVE",
"600 65 OFFCURVE",
"600 361 CURVE SMOOTH",
"600 685 OFFCURVE",
"516 713 OFFCURVE",
"356 713 CURVE SMOOTH",
"208 713 OFFCURVE",
"112 698 OFFCURVE"
);
},
{
closed = 1;
nodes = (
"88 361 CURVE SMOOTH",
"88 704 OFFCURVE",
"184 737 OFFCURVE",
"356 737 CURVE SMOOTH",
"529 737 OFFCURVE",
"624 704 OFFCURVE",
"624 361 CURVE SMOOTH",
"624 38 OFFCURVE",
"536 -4 OFFCURVE",
"356 -4 CURVE SMOOTH",
"176 -4 OFFCURVE",
"88 28 OFFCURVE"
);
}
);
};
components = (
{
name = O;
}
);
layerId = "970D4E8E-4EF0-498B-97F3-F7DEE39AB542";
paths = (
{
closed = 1;
nodes = (
"517 -148 OFFCURVE",
"533 -146 OFFCURVE",
"548 -140 CURVE",
"548 -116 LINE",
"535 -121 OFFCURVE",
"519 -123 OFFCURVE",
"503 -123 CURVE SMOOTH",
"456.77 -123 OFFCURVE",
"406.636 -95.003 OFFCURVE",
"384 -33 CURVE",
"368 -33 LINE",
"383.914 -107.598 OFFCURVE",
"443.553 -148 OFFCURVE",
"500 -148 CURVE SMOOTH"
);
}
);
width = 676;
},
{
background = {
paths = (
{
closed = 1;
nodes = (
"286 -33 CURVE",
"388 -33 LINE",
"394 -94 OFFCURVE",
"486 -80 OFFCURVE",
"546 -68 CURVE",
"546 -208 LINE",
"422 -226 OFFCURVE",
"287 -184 OFFCURVE"
);
},
{
closed = 1;
nodes = (
"231 361 CURVE SMOOTH",
"231 208 OFFCURVE",
"242 170 OFFCURVE",
"340 170 CURVE SMOOTH",
"426 170 OFFCURVE",
"449 206 OFFCURVE",
"449 361 CURVE SMOOTH",
"449 531 OFFCURVE",
"431 563 OFFCURVE",
"340 563 CURVE SMOOTH",
"252 563 OFFCURVE",
"231 540 OFFCURVE"
);
},
{
closed = 1;
nodes = (
"37 361 CURVE SMOOTH",
"37 704 OFFCURVE",
"172 737 OFFCURVE",
"340 737 CURVE SMOOTH",
"513 737 OFFCURVE",
"643 704 OFFCURVE",
"643 361 CURVE SMOOTH",
"643 38 OFFCURVE",
"520 -2 OFFCURVE",
"340 -4 CURVE",
"160 -4 OFFCURVE",
"37 28 OFFCURVE"
);
}
);
};
components = (
{
name = O;
}
);
layerId = "63BEBE16-5EEB-4E8E-8514-0A5E9B1E5A6A";
paths = (
{
closed = 1;
nodes = (
"538 -215 OFFCURVE",
"556 -210 OFFCURVE",
"576 -208 CURVE",
"576 -68 LINE",
"556 -72 OFFCURVE",
"532 -79 OFFCURVE",
"508 -79 CURVE SMOOTH",
"472 -79 OFFCURVE",
"436.571 -69.248 OFFCURVE",
"433 -38 CURVE",
"299 -38 LINE",
"300 -162 OFFCURVE",
"409.516 -215 OFFCURVE",
"519 -215 CURVE SMOOTH"
);
}
);
width = 708;
}
);
leftKerningGroup = O;
note = "\012    GF Latin Plus glyph\012  ";
rightKerningGroup = O;
unicode = 0051;
userData = {
com.fontlab.hintData = {
hhints = (
{
position = -4;
width = 24;
},
{
position = 713;
width = 24;
}
);
vhints = (
{
position = 88;
width = 24;
},
{
position = 600;
width = 24;
}
);
};
com.typemytype.robofont.layerData = {
background = {
anchors = (
);
components = (
);
contours = (
{
points = (
{
segmentType = curve;
smooth = 0;
x = 348;
y = -33;
},
{
segmentType = line;
smooth = 0;
x = 362;
y = -33;
},
{
smooth = 0;
x = 392;
y = -115;
},
{
smooth = 0;
x = 479;
y = -116;
},
{
segmentType = curve;
smooth = 0;
x = 538;
y = -96;
},
{
segmentType = line;
smooth = 0;
x = 538;
y = -120;
},
{
smooth = 0;
x = 466;
y = -147;
},
{
smooth = 0;
x = 368;
y = -127;
}
);
},
{
points = (
{
segmentType = curve;
smooth = 1;
x = 112;
y = 361;
},
{
smooth = 0;
x = 112;
y = 63;
},
{
smooth = 0;
x = 177;
y = 20;
},
{
segmentType = curve;
smooth = 1;
x = 356;
y = 20;
},
{
smooth = 0;
x = 527;
y = 20;
},
{
smooth = 0;
x = 600;
y = 65;
},
{
segmentType = curve;
smooth = 1;
x = 600;
y = 361;
},
{
smooth = 0;
x = 600;
y = 685;
},
{
smooth = 0;
x = 516;
y = 713;
},
{
segmentType = curve;
smooth = 1;
x = 356;
y = 713;
},
{
smooth = 0;
x = 208;
y = 713;
},
{
smooth = 0;
x = 112;
y = 698;
}
);
},
{
points = (
{
segmentType = curve;
smooth = 1;
x = 88;
y = 361;
},
{
smooth = 0;
x = 88;
y = 704;
},
{
smooth = 0;
x = 184;
y = 737;
},
{
segmentType = curve;
smooth = 1;
x = 356;
y = 737;
},
{
smooth = 0;
x = 529;
y = 737;
},
{
smooth = 0;
x = 624;
y = 704;
},
{
segmentType = curve;
smooth = 1;
x = 624;
y = 361;
},
{
smooth = 0;
x = 624;
y = 38;
},
{
smooth = 0;
x = 536;
y = -4;
},
{
segmentType = curve;
smooth = 1;
x = 356;
y = -4;
},
{
smooth = 0;
x = 176;
y = -4;
},
{
smooth = 0;
x = 88;
y = 28;
}
);
}
);
lib = {
};
name = Q;
unicodes = (
);
width = 676;
};
};
};
},
{
glyphname = R;
layers = (
{
anchors = (
{
name = bottom;
position = "{288, -150}";
},
{
name = top;
position = "{288, 810}";
}
);
background = {
paths = (
{
closed = 1;
nodes = (
"112 347 LINE",
"364 347 LINE SMOOTH",
"443 347 OFFCURVE",
"515 370 OFFCURVE",
"515 532 CURVE SMOOTH",
"515 686 OFFCURVE",
"440 707 OFFCURVE",
"364 707 CURVE SMOOTH",
"112 707 LINE"
);
},
{
closed = 1;
nodes = (
"88 0 LINE",
"88 732 LINE",
"364 732 LINE SMOOTH",
"443 732 OFFCURVE",
"540 711 OFFCURVE",
"540 532 CURVE SMOOTH",
"540 344 OFFCURVE",
"453 325 OFFCURVE",
"381 323 CURVE",
"542 0 LINE",
"517 0 LINE",
"355 323 LINE",
"302 324 OFFCURVE",
"117 330 OFFCURVE",
"112 333 CURVE",
"112 0 LINE"
);
}
);
};
layerId = "970D4E8E-4EF0-498B-97F3-F7DEE39AB542";
paths = (
{
closed = 1;
nodes = (
"112 0 LINE",
"112 329 LINE",
"177 326 OFFCURVE",
"303 324 OFFCURVE",
"356 323 CURVE",
"518 0 LINE",
"542 0 LINE",
"381 323 LINE",
"444 326 OFFCURVE",
"540 354 OFFCURVE",
"540 532 CURVE SMOOTH",
"540 711 OFFCURVE",
"443 732 OFFCURVE",
"364 732 CURVE SMOOTH",
"88 732 LINE",
"88 0 LINE"
);
},
{
closed = 1;
nodes = (
"112 710 LINE",
"364 710 LINE SMOOTH",
"440 710 OFFCURVE",
"516 686 OFFCURVE",
"516 532 CURVE SMOOTH",
"516 370 OFFCURVE",
"443 345 OFFCURVE",
"364 345 CURVE SMOOTH",
"112 345 LINE"
);
}
);
width = 592;
},
{
anchors = (
{
name = bottom;
position = "{310, -150}";
},
{
name = top;
position = "{304, 810}";
}
);
background = {
paths = (
{
closed = 1;
nodes = (
"250 419 LINE",
"357 419 LINE SMOOTH",
"408 419 OFFCURVE",
"411 445 OFFCURVE",
"411 497 CURVE SMOOTH",
"411 541 OFFCURVE",
"401 567 OFFCURVE",
"357 567 CURVE SMOOTH",
"250 567 LINE"
);
},
{
closed = 1;
nodes = (
"55 0 LINE",
"55 732 LINE",
"382 732 LINE SMOOTH",
"512 732 OFFCURVE",
"606 679 OFFCURVE",
"606 497 CURVE SMOOTH",
"606 323 OFFCURVE",
"549 297 OFFCURVE",
"498 277 CURVE",
"624 0 LINE",
"403 0 LINE",
"309 259 LINE",
"249 273 LINE",
"249 0 LINE"
);
}
);
};
layerId = "63BEBE16-5EEB-4E8E-8514-0A5E9B1E5A6A";
paths = (
{
closed = 1;
nodes = (
"249 0 LINE",
"249 256 LINE",
"274 256 OFFCURVE",
"298 256 OFFCURVE",
"323 256 CURVE",
"427 0 LINE",
"624 0 LINE",
"495 288 LINE",
"551.268 319.85 OFFCURVE",
"596 369 OFFCURVE",
"596 493 CURVE SMOOTH",
"596 687 OFFCURVE",
"502 743 OFFCURVE",
"372 743 CURVE SMOOTH",
"55 743 LINE",
"55 0 LINE"
);
},
{
closed = 1;
nodes = (
"249 569 LINE",
"337 569 LINE SMOOTH",
"380 569 OFFCURVE",
"402 551 OFFCURVE",
"402 492 CURVE SMOOTH",
"402 433 OFFCURVE",
"380 410 OFFCURVE",
"337 410 CURVE SMOOTH",
"249 410 LINE"
);
}
);
width = 640;
}
);
note = "\012    GF Latin Plus glyph\012  ";
rightKerningGroup = R;
unicode = 0052;
userData = {
com.fontlab.hintData = {
hhints = (
{
position = 0;
width = 21;
},
{
position = 323;
width = 24;
},
{
position = 333;
width = 14;
},
{
position = 707;
width = 25;
}
);
vhints = (
{
position = 81;
width = 24;
},
{
position = 508;
width = 25;
}
);
};
com.typemytype.robofont.layerData = {
background = {
anchors = (
);
components = (
);
contours = (
{
points = (
{
segmentType = line;
smooth = 0;
x = 112;
y = 347;
},
{
segmentType = line;
smooth = 1;
x = 364;
y = 347;
},
{
smooth = 0;
x = 443;
y = 347;
},
{
smooth = 0;
x = 515;
y = 370;
},
{
segmentType = curve;
smooth = 1;
x = 515;
y = 532;
},
{
smooth = 0;
x = 515;
y = 686;
},
{
smooth = 0;
x = 440;
y = 707;
},
{
segmentType = curve;
smooth = 1;
x = 364;
y = 707;
},
{
segmentType = line;
smooth = 0;
x = 112;
y = 707;
}
);
},
{
points = (
{
segmentType = line;
smooth = 0;
x = 88;
y = 0;
},
{
segmentType = line;
smooth = 0;
x = 88;
y = 732;
},
{
segmentType = line;
smooth = 1;
x = 364;
y = 732;
},
{
smooth = 0;
x = 443;
y = 732;
},
{
smooth = 0;
x = 540;
y = 711;
},
{
segmentType = curve;
smooth = 1;
x = 540;
y = 532;
},
{
smooth = 0;
x = 540;
y = 344;
},
{
smooth = 0;
x = 453;
y = 325;
},
{
segmentType = curve;
smooth = 0;
x = 381;
y = 323;
},
{
segmentType = line;
smooth = 0;
x = 542;
y = 0;
},
{
segmentType = line;
smooth = 0;
x = 517;
y = 0;
},
{
segmentType = line;
smooth = 0;
x = 355;
y = 323;
},
{
smooth = 0;
x = 302;
y = 324;
},
{
smooth = 0;
x = 117;
y = 330;
},
{
segmentType = curve;
smooth = 0;
x = 112;
y = 333;
},
{
segmentType = line;
smooth = 0;
x = 112;
y = 0;
}
);
}
);
lib = {
};
name = R;
unicodes = (
);
width = 592;
};
};
};
},
{
glyphname = S;
layers = (
{
anchors = (
{
name = bottom;
position = "{278, -150}";
},
{
name = top;
position = "{278, 810}";
}
);
background = {
paths = (
{
closed = 1;
nodes = (
"52 494 CURVE SMOOTH",
"52 560 LINE SMOOTH",
"52 705 OFFCURVE",
"133 738 OFFCURVE",
"245 738 CURVE SMOOTH",
"298 738 OFFCURVE",
"418 727 OFFCURVE",
"467 719 CURVE",
"467 706 LINE",
"403 710 OFFCURVE",
"245 714 OFFCURVE",
"245 714 CURVE SMOOTH",
"139.992 717.784 OFFCURVE",
"76 681 OFFCURVE",
"76 560 CURVE SMOOTH",
"76 494 LINE SMOOTH",
"76 390 OFFCURVE",
"131 371 OFFCURVE",
"223 371 CURVE SMOOTH",
"337 371 LINE SMOOTH",
"470 371 OFFCURVE",
"499 306 OFFCURVE",
"499 224 CURVE SMOOTH",
"499 156 LINE SMOOTH",
"499 14 OFFCURVE",
"404 -8 OFFCURVE",
"305 -8 CURVE SMOOTH",
"256 -8 OFFCURVE",
"116 -1 OFFCURVE",
"70 7 CURVE",
"70 22 LINE",
"114 18 OFFCURVE",
"212 16 OFFCURVE",
"305 16 CURVE SMOOTH",
"395 16 OFFCURVE",
"475 39 OFFCURVE",
"475 156 CURVE SMOOTH",
"475 224 LINE SMOOTH",
"475 309 OFFCURVE",
"437 347 OFFCURVE",
"337 347 CURVE SMOOTH",
"225 347 LINE SMOOTH",
"70 347 OFFCURVE",
"52 416 OFFCURVE"
);
}
);
};
layerId = "970D4E8E-4EF0-498B-97F3-F7DEE39AB542";
paths = (
{
closed = 1;
nodes = (
"394 -6 OFFCURVE",
"499 28 OFFCURVE",
"499 156 CURVE SMOOTH",
"499 224 LINE SMOOTH",
"499 316 OFFCURVE",
"450 381 OFFCURVE",
"337 381 CURVE SMOOTH",
"243 381 LINE SMOOTH",
"152 381 OFFCURVE",
"96 410 OFFCURVE",
"96 514 CURVE SMOOTH",
"96 560 LINE SMOOTH",
"96 683 OFFCURVE",
"158 716 OFFCURVE",
"265 716 CURVE SMOOTH",
"332 716 OFFCURVE",
"409 710 OFFCURVE",
"467 706 CURVE",
"467 722 LINE",
"422 729 OFFCURVE",
"314 738 OFFCURVE",
"265 738 CURVE SMOOTH",
"143 738 OFFCURVE",
"72 695 OFFCURVE",
"72 560 CURVE SMOOTH",
"72 514 LINE SMOOTH",
"72 396 OFFCURVE",
"140 357 OFFCURVE",
"245 357 CURVE SMOOTH",
"337 357 LINE SMOOTH",
"437 357 OFFCURVE",
"475 309 OFFCURVE",
"475 224 CURVE SMOOTH",
"475 156 LINE SMOOTH",
"475 39 OFFCURVE",
"386 16 OFFCURVE",
"285 16 CURVE SMOOTH",
"200 16 OFFCURVE",
"110 19 OFFCURVE",
"70 23 CURVE",
"70 7 LINE",
"112 0 OFFCURVE",
"240 -6 OFFCURVE",
"285 -6 CURVE SMOOTH"
);
}
);
width = 569;
},
{
anchors = (
{
name = bottom;
position = "{294, -150}";
},
{
name = top;
position = "{294, 810}";
}
);
background = {
paths = (
{
closed = 1;
nodes = (
"26 479 CURVE SMOOTH",
"26 540 LINE SMOOTH",
"26 671 OFFCURVE",
"112 731 OFFCURVE",
"224 738 CURVE SMOOTH",
"371.766 747.235 OFFCURVE",
"460 732 OFFCURVE",
"534 705 CURVE",
"534 554 LINE",
"470 561 OFFCURVE",
"360 564 OFFCURVE",
"294 564 CURVE SMOOTH",
"240 564 OFFCURVE",
"220 562 OFFCURVE",
"220 520 CURVE SMOOTH",
"220 509 LINE SMOOTH",
"220 478 OFFCURVE",
"226 461 OFFCURVE",
"280 461 CURVE SMOOTH",
"374 461 LINE SMOOTH",
"526 461 OFFCURVE",
"561 329 OFFCURVE",
"561 249 CURVE SMOOTH",
"561 216 LINE SMOOTH",
"561 30 OFFCURVE",
"457 -8 OFFCURVE",
"358 -8 CURVE SMOOTH",
"171 -8 OFFCURVE",
"149 -8 OFFCURVE",
"49 26 CURVE",
"49 177 LINE",
"89 173 OFFCURVE",
"215 166 OFFCURVE",
"308 166 CURVE SMOOTH",
"351 166 OFFCURVE",
"367 177 OFFCURVE",
"367 207 CURVE SMOOTH",
"367 223 LINE SMOOTH",
"367 252 OFFCURVE",
"358 267 OFFCURVE",
"314 267 CURVE SMOOTH",
"224 267 LINE SMOOTH",
"34 267 OFFCURVE",
"26 432 OFFCURVE"
);
}
);
};
layerId = "63BEBE16-5EEB-4E8E-8514-0A5E9B1E5A6A";
paths = (
{
closed = 1;
nodes = (
"457 -6 OFFCURVE",
"561 33 OFFCURVE",
"561 224 CURVE SMOOTH",
"561 257 LINE SMOOTH",
"561 372.15 OFFCURVE",
"490 459 OFFCURVE",
"351 459 CURVE SMOOTH",
"285 459 LINE SMOOTH",
"240.647 459 OFFCURVE",
"220 477.283 OFFCURVE",
"220 510 CURVE SMOOTH",
"220 520 LINE SMOOTH",
"220 566 OFFCURVE",
"259.07 575 OFFCURVE",
"316 575 CURVE SMOOTH",
"378 575 OFFCURVE",
"462 571 OFFCURVE",
"524 566 CURVE",
"524 720 LINE",
"465 734 OFFCURVE",
"385 749 OFFCURVE",
"292 749 CURVE SMOOTH",
"126 749 OFFCURVE",
"36 677.014 OFFCURVE",
"36 530 CURVE SMOOTH",
"36 497 LINE SMOOTH",
"36 337.59 OFFCURVE",
"117 275 OFFCURVE",
"272 275 CURVE SMOOTH",
"325 275 LINE SMOOTH",
"352.444 275 OFFCURVE",
"377 259.735 OFFCURVE",
"377 231 CURVE SMOOTH",
"377 219 LINE SMOOTH",
"377 181 OFFCURVE",
"344.418 168 OFFCURVE",
"278 168 CURVE SMOOTH",
"208.054 168 OFFCURVE",
"116 171 OFFCURVE",
"49 177 CURVE",
"49 23 LINE",
"118 5 OFFCURVE",
"200 -6 OFFCURVE",
"288 -6 CURVE SMOOTH"
);
}
);
width = 597;
}
);
leftKerningGroup = S;
note = "\012    GF Latin Plus glyph\012  ";
rightKerningGroup = S;
unicode = 0053;
userData = {
com.fontlab.hintData = {
hhints = (
{
position = -8;
width = 24;
},
{
position = 347;
width = 24;
},
{
position = 714;
width = 24;
}
);
vhints = (
{
position = 88;
width = 24;
},
{
position = 511;
width = 24;
}
);
};
com.typemytype.robofont.layerData = {
background = {
anchors = (
);
components = (
);
contours = (
{
points = (
{
segmentType = curve;
smooth = 1;
x = 52;
y = 494;
},
{
segmentType = line;
smooth = 1;
x = 52;
y = 560;
},
{
smooth = 0;
x = 52;
y = 705;
},
{
smooth = 0;
x = 133;
y = 738;
},
{
segmentType = curve;
smooth = 1;
x = 245;
y = 738;
},
{
smooth = 0;
x = 298;
y = 738;
},
{
smooth = 0;
x = 418;
y = 727;
},
{
segmentType = curve;
smooth = 0;
x = 467;
y = 719;
},
{
segmentType = line;
smooth = 0;
x = 467;
y = 706;
},
{
smooth = 0;
x = 403;
y = 710;
},
{
smooth = 0;
x = 245;
y = 714;
},
{
segmentType = curve;
smooth = 1;
x = 245;
y = 714;
},
{
smooth = 0;
x = 139.9920;
y = 717.7840;
},
{
smooth = 0;
x = 76;
y = 681;
},
{
segmentType = curve;
smooth = 1;
x = 76;
y = 560;
},
{
segmentType = line;
smooth = 1;
x = 76;
y = 494;
},
{
smooth = 0;
x = 76;
y = 390;
},
{
smooth = 0;
x = 131;
y = 371;
},
{
segmentType = curve;
smooth = 1;
x = 223;
y = 371;
},
{
segmentType = line;
smooth = 1;
x = 337;
y = 371;
},
{
smooth = 0;
x = 470;
y = 371;
},
{
smooth = 0;
x = 499;
y = 306;
},
{
segmentType = curve;
smooth = 1;
x = 499;
y = 224;
},
{
segmentType = line;
smooth = 1;
x = 499;
y = 156;
},
{
smooth = 0;
x = 499;
y = 14;
},
{
smooth = 0;
x = 404;
y = -8;
},
{
segmentType = curve;
smooth = 1;
x = 305;
y = -8;
},
{
smooth = 0;
x = 256;
y = -8;
},
{
smooth = 0;
x = 116;
y = -1;
},
{
segmentType = curve;
smooth = 0;
x = 70;
y = 7;
},
{
segmentType = line;
smooth = 0;
x = 70;
y = 22;
},
{
smooth = 0;
x = 114;
y = 18;
},
{
smooth = 0;
x = 212;
y = 16;
},
{
segmentType = curve;
smooth = 1;
x = 305;
y = 16;
},
{
smooth = 0;
x = 395;
y = 16;
},
{
smooth = 0;
x = 475;
y = 39;
},
{
segmentType = curve;
smooth = 1;
x = 475;
y = 156;
},
{
segmentType = line;
smooth = 1;
x = 475;
y = 224;
},
{
smooth = 0;
x = 475;
y = 309;
},
{
smooth = 0;
x = 437;
y = 347;
},
{
segmentType = curve;
smooth = 1;
x = 337;
y = 347;
},
{
segmentType = line;
smooth = 1;
x = 225;
y = 347;
},
{
smooth = 0;
x = 70;
y = 347;
},
{
smooth = 0;
x = 52;
y = 416;
}
);
}
);
lib = {
};
name = S;
unicodes = (
);
width = 569;
};
};
};
},
{
glyphname = Germandbls;
layers = (
{
layerId = "970D4E8E-4EF0-498B-97F3-F7DEE39AB542";
paths = (
{
closed = 1;
nodes = (
"112 0 LINE",
"112 582 LINE SMOOTH",
"112 670.889 OFFCURVE",
"159.843 710 OFFCURVE",
"234 710 CURVE SMOOTH",
"531 710 LINE",
"531 728 LINE",
"432 729 OFFCURVE",
"333 731 OFFCURVE",
"234 732 CURVE SMOOTH",
"159.839 732.999 OFFCURVE",
"88 695.077 OFFCURVE",
"88 582 CURVE SMOOTH",
"88 0 LINE"
);
},
{
closed = 1;
nodes = (
"454 -6 OFFCURVE",
"559 28 OFFCURVE",
"559 156 CURVE SMOOTH",
"559 224 LINE SMOOTH",
"559 318 OFFCURVE",
"510 381 OFFCURVE",
"397 381 CURVE SMOOTH",
"278 381 LINE",
"278 357 LINE",
"397 357 LINE SMOOTH",
"497 357 OFFCURVE",
"535 309 OFFCURVE",
"535 224 CURVE SMOOTH",
"535 156 LINE SMOOTH",
"535 39 OFFCURVE",
"446 16 OFFCURVE",
"345 16 CURVE SMOOTH",
"292 16 OFFCURVE",
"235 18 OFFCURVE",
"210 21 CURVE",
"210 5 LINE",
"237 1 OFFCURVE",
"317 -6 OFFCURVE",
"345 -6 CURVE SMOOTH"
);
},
{
closed = 1;
nodes = (
"305 381 LINE",
"531 710 LINE",
"531 728 LINE",
"504 710 LINE",
"278 381 LINE"
);
}
);
width = 629;
},
{
layerId = "63BEBE16-5EEB-4E8E-8514-0A5E9B1E5A6A";
paths = (
{
closed = 1;
nodes = (
"249 0 LINE",
"249 522 LINE SMOOTH",
"249 548 OFFCURVE",
"265 569 OFFCURVE",
"306 569 CURVE SMOOTH",
"572 569 LINE",
"667 730 LINE",
"555 739 OFFCURVE",
"464 743 OFFCURVE",
"298 743 CURVE SMOOTH",
"166 743 OFFCURVE",
"55 683 OFFCURVE",
"55 519 CURVE SMOOTH",
"55 0 LINE"
);
},
{
closed = 1;
nodes = (
"628.429 -6 OFFCURVE",
"721 30 OFFCURVE",
"721 206 CURVE SMOOTH",
"721 239 LINE SMOOTH",
"721 369 OFFCURVE",
"636 424 OFFCURVE",
"511 424 CURVE SMOOTH",
"332 424 LINE",
"332 270 LINE",
"455 270 LINE SMOOTH",
"503 270 OFFCURVE",
"527 262 OFFCURVE",
"527 226 CURVE SMOOTH",
"527 219 LINE SMOOTH",
"527 181 OFFCURVE",
"501 169 OFFCURVE",
"448 169 CURVE SMOOTH",
"402 169 OFFCURVE",
"355 169 OFFCURVE",
"309 169 CURVE",
"309 15 LINE",
"358 2 OFFCURVE",
"415.993 -6 OFFCURVE",
"478 -6 CURVE SMOOTH"
);
},
{
closed = 1;
nodes = (
"667 579 LINE",
"667 730 LINE",
"452 574 LINE",
"332 424 LINE",
"505 376 LINE"
);
}
);
width = 757;
}
);
note = "\012    GF Latin Plus glyph\012  ";
unicode = 1E9E;
},
{
glyphname = Schwa;
layers = (
{
background = {
paths = (
{
closed = 1;
nodes = (
"529 364 CURVE SMOOTH",
"529 678 OFFCURVE",
"458 738 OFFCURVE",
"276 738 CURVE SMOOTH",
"226 738 OFFCURVE",
"139 730 OFFCURVE",
"72 718 CURVE",
"72 702 LINE",
"113 709 OFFCURVE",
"175 716 OFFCURVE",
"275 716 CURVE SMOOTH",
"440 716 OFFCURVE",
"505 666 OFFCURVE",
"505 364 CURVE SMOOTH",
"505 82 OFFCURVE",
"439 16 OFFCURVE",
"270 16 CURVE SMOOTH",
"194 16 OFFCURVE",
"103 25 OFFCURVE",
"72 30 CURVE",
"72 14 LINE",
"142 1 OFFCURVE",
"234 -6 OFFCURVE",
"268 -6 CURVE SMOOTH",
"458 -6 OFFCURVE",
"529 71 OFFCURVE"
);
}
);
};
layerId = "970D4E8E-4EF0-498B-97F3-F7DEE39AB542";
paths = (
{
closed = 1;
nodes = (
"442 -6 OFFCURVE",
"529 70 OFFCURVE",
"529 370 CURVE SMOOTH",
"529 680 OFFCURVE",
"458 738 OFFCURVE",
"269 738 CURVE SMOOTH",
"202 738 OFFCURVE",
"145 727 OFFCURVE",
"102 718 CURVE",
"102 702 LINE",
"131 706 OFFCURVE",
"177 716 OFFCURVE",
"254 716 CURVE SMOOTH",
"456 716 OFFCURVE",
"504 655 OFFCURVE",
"504 364 CURVE",
"78 364 LINE",
"78 337 LINE SMOOTH",
"78 87 OFFCURVE",
"138 -6 OFFCURVE",
"299 -6 CURVE SMOOTH"
);
},
{
closed = 1;
nodes = (
"147 16 OFFCURVE",
"101 102 OFFCURVE",
"101 342 CURVE",
"503 342 LINE",
"502 78 OFFCURVE",
"430 16 OFFCURVE",
"296 16 CURVE SMOOTH"
);
}
);
width = 599;
},
{
layerId = "63BEBE16-5EEB-4E8E-8514-0A5E9B1E5A6A";
paths = (
{
closed = 1;
nodes = (
"473 -6 OFFCURVE",
"599 60 OFFCURVE",
"599 386 CURVE SMOOTH",
"599 690 OFFCURVE",
"463 750 OFFCURVE",
"276 750 CURVE SMOOTH",
"168 750 OFFCURVE",
"106 735 OFFCURVE",
"62 718 CURVE",
"62 567 LINE",
"94 571 OFFCURVE",
"145 576 OFFCURVE",
"231 576 CURVE SMOOTH",
"338 576 OFFCURVE",
"399 547 OFFCURVE",
"404 444 CURVE",
"25 444 LINE",
"25 324 LINE SMOOTH",
"25 83 OFFCURVE",
"140 -6 OFFCURVE",
"306 -6 CURVE SMOOTH"
);
},
{
closed = 1;
nodes = (
"245 168 OFFCURVE",
"226 202 OFFCURVE",
"222 290 CURVE",
"401 290 LINE",
"394 193 OFFCURVE",
"353 168 OFFCURVE",
"308 168 CURVE SMOOTH"
);
}
);
width = 635;
}
);
note = "\012    GF Latin Plus glyph\012  ";
rightKerningGroup = O;
unicode = 018F;
userData = {
com.typemytype.robofont.layerData = {
background = {
anchors = (
);
components = (
);
contours = (
{
points = (
{
segmentType = curve;
smooth = 1;
x = 529;
y = 364;
},
{
smooth = 0;
x = 529;
y = 678;
},
{
smooth = 0;
x = 458;
y = 738;
},
{
segmentType = curve;
smooth = 1;
x = 276;
y = 738;
},
{
smooth = 0;
x = 226;
y = 738;
},
{
smooth = 0;
x = 139;
y = 730;
},
{
segmentType = curve;
smooth = 0;
x = 72;
y = 718;
},
{
segmentType = line;
smooth = 0;
x = 72;
y = 702;
},
{
smooth = 0;
x = 113;
y = 709;
},
{
smooth = 0;
x = 175;
y = 716;
},
{
segmentType = curve;
smooth = 1;
x = 275;
y = 716;
},
{
smooth = 0;
x = 440;
y = 716;
},
{
smooth = 0;
x = 505;
y = 666;
},
{
segmentType = curve;
smooth = 1;
x = 505;
y = 364;
},
{
smooth = 0;
x = 505;
y = 82;
},
{
smooth = 0;
x = 439;
y = 16;
},
{
segmentType = curve;
smooth = 1;
x = 270;
y = 16;
},
{
smooth = 0;
x = 194;
y = 16;
},
{
smooth = 0;
x = 103;
y = 25;
},
{
segmentType = curve;
smooth = 0;
x = 72;
y = 30;
},
{
segmentType = line;
smooth = 0;
x = 72;
y = 14;
},
{
smooth = 0;
x = 142;
y = 1;
},
{
smooth = 0;
x = 234;
y = -6;
},
{
segmentType = curve;
smooth = 1;
x = 268;
y = -6;
},
{
smooth = 0;
x = 458;
y = -6;
},
{
smooth = 0;
x = 529;
y = 71;
}
);
}
);
lib = {
};
name = Schwa;
unicodes = (
);
width = 599;
};
};
};
},
{
glyphname = T;
layers = (
{
anchors = (
{
name = bottom;
position = "{275, -150}";
},
{
name = top;
position = "{275, 810}";
}
);
background = {
paths = (
{
closed = 1;
nodes = (
"16 708 LINE",
"16 732 LINE",
"534 732 LINE",
"534 708 LINE",
"284 708 LINE",
"284 0 LINE",
"260 0 LINE",
"260 708 LINE"
);
}
);
};
layerId = "970D4E8E-4EF0-498B-97F3-F7DEE39AB542";
paths = (
{
closed = 1;
nodes = (
"287 0 LINE",
"287 710 LINE",
"534 710 LINE",
"534 732 LINE",
"16 732 LINE",
"16 710 LINE",
"263 710 LINE",
"263 0 LINE"
);
}
);
width = 550;
},
{
anchors = (
{
name = bottom;
position = "{300, -150}";
},
{
name = top;
position = "{300, 810}";
}
);
background = {
paths = (
{
closed = 1;
nodes = (
"16 558 LINE",
"16 732 LINE",
"584 732 LINE",
"584 558 LINE",
"394 558 LINE",
"394 0 LINE",
"200 0 LINE",
"200 558 LINE"
);
}
);
};
layerId = "63BEBE16-5EEB-4E8E-8514-0A5E9B1E5A6A";
paths = (
{
closed = 1;
nodes = (
"397 0 LINE",
"397 569 LINE",
"584 569 LINE",
"584 743 LINE",
"16 743 LINE",
"16 569 LINE",
"203 569 LINE",
"203 0 LINE"
);
}
);
width = 600;
}
);
leftKerningGroup = T;
note = "\012    GF Latin Plus glyph\012  ";
rightKerningGroup = T;
unicode = 0054;
userData = {
com.fontlab.hintData = {
hhints = (
{
position = 0;
width = 21;
},
{
position = 708;
width = 24;
}
);
vhints = (
{
position = 291;
width = 24;
}
);
};
com.typemytype.robofont.layerData = {
background = {
anchors = (
);
components = (
);
contours = (
{
points = (
{
segmentType = line;
smooth = 0;
x = 16;
y = 708;
},
{
segmentType = line;
smooth = 0;
x = 16;
y = 732;
},
{
segmentType = line;
smooth = 0;
x = 534;
y = 732;
},
{
segmentType = line;
smooth = 0;
x = 534;
y = 708;
},
{
segmentType = line;
smooth = 0;
x = 284;
y = 708;
},
{
segmentType = line;
smooth = 0;
x = 284;
y = 0;
},
{
segmentType = line;
smooth = 0;
x = 260;
y = 0;
},
{
segmentType = line;
smooth = 0;
x = 260;
y = 708;
}
);
}
);
lib = {
};
name = T;
unicodes = (
);
width = 550;
};
};
};
},
{
glyphname = Tbar;
layers = (
{
background = {
paths = (
{
closed = 1;
nodes = (
"47 708 LINE",
"47 732 LINE",
"565 732 LINE",
"565 708 LINE",
"315 708 LINE",
"315 424 LINE",
"465 424 LINE",
"465 410 LINE",
"315 410 LINE",
"315 0 LINE",
"291 0 LINE",
"291 410 LINE",
"161 410 LINE",
"161 424 LINE",
"291 424 LINE",
"291 708 LINE"
);
}
);
};
components = (
{
name = T;
}
);
layerId = "970D4E8E-4EF0-498B-97F3-F7DEE39AB542";
paths = (
{
closed = 1;
nodes = (
"472 381 LINE",
"472 403 LINE",
"77 403 LINE",
"77 381 LINE"
);
}
);
width = 550;
},
{
background = {
paths = (
{
closed = 1;
nodes = (
"11 558 LINE",
"11 732 LINE",
"579 732 LINE",
"579 558 LINE",
"389 558 LINE",
"389 424 LINE",
"469 424 LINE",
"469 350 LINE",
"389 350 LINE",
"389 0 LINE",
"195 0 LINE",
"195 350 LINE",
"115 350 LINE",
"115 424 LINE",
"195 424 LINE",
"195 558 LINE"
);
}
);
};
components = (
{
name = T;
}
);
layerId = "63BEBE16-5EEB-4E8E-8514-0A5E9B1E5A6A";
paths = (
{
closed = 1;
nodes = (
"560 333 LINE",
"560 427 LINE",
"40 427 LINE",
"40 333 LINE"
);
}
);
width = 600;
}
);
note = "\012    GF Latin Plus glyph\012  ";
unicode = 0166;
userData = {
com.fontlab.hintData = {
hhints = (
{
position = 0;
width = 21;
},
{
position = 410;
width = 14;
},
{
position = 708;
width = 24;
}
);
vhints = (
{
position = 291;
width = 24;
}
);
};
com.typemytype.robofont.layerData = {
background = {
anchors = (
);
components = (
);
contours = (
{
points = (
{
segmentType = line;
smooth = 0;
x = 47;
y = 708;
},
{
segmentType = line;
smooth = 0;
x = 47;
y = 732;
},
{
segmentType = line;
smooth = 0;
x = 565;
y = 732;
},
{
segmentType = line;
smooth = 0;
x = 565;
y = 708;
},
{
segmentType = line;
smooth = 0;
x = 315;
y = 708;
},
{
segmentType = line;
smooth = 0;
x = 315;
y = 424;
},
{
segmentType = line;
smooth = 0;
x = 465;
y = 424;
},
{
segmentType = line;
smooth = 0;
x = 465;
y = 410;
},
{
segmentType = line;
smooth = 0;
x = 315;
y = 410;
},
{
segmentType = line;
smooth = 0;
x = 315;
y = 0;
},
{
segmentType = line;
smooth = 0;
x = 291;
y = 0;
},
{
segmentType = line;
smooth = 0;
x = 291;
y = 410;
},
{
segmentType = line;
smooth = 0;
x = 161;
y = 410;
},
{
segmentType = line;
smooth = 0;
x = 161;
y = 424;
},
{
segmentType = line;
smooth = 0;
x = 291;
y = 424;
},
{
segmentType = line;
smooth = 0;
x = 291;
y = 708;
}
);
}
);
lib = {
};
name = Tbar;
unicodes = (
);
width = 550;
};
};
};
},
{
glyphname = Tcommaaccent;
layers = (
{
background = {
paths = (
{
closed = 1;
nodes = (
"180 -174 LINE",
"212 -169 LINE SMOOTH",
"265 -161 OFFCURVE",
"296 -153 OFFCURVE",
"294 -45 CURVE",
"311 -45 LINE",
"311 -145 OFFCURVE",
"293 -181 OFFCURVE",
"210 -181 CURVE SMOOTH",
"180 -181 LINE"
);
},
{
closed = 1;
nodes = (
"47 708 LINE",
"47 732 LINE",
"565 732 LINE",
"565 708 LINE",
"315 708 LINE",
"315 0 LINE",
"291 0 LINE",
"291 708 LINE"
);
}
);
};
components = (
{
name = T;
},
{
name = commaaccentcomb;
transform = "{1, 0, 0, 1, 538, 0}";
}
);
layerId = "970D4E8E-4EF0-498B-97F3-F7DEE39AB542";
width = 550;
},
{
background = {
paths = (
{
closed = 1;
nodes = (
"20 558 LINE",
"20 732 LINE",
"588 732 LINE",
"588 558 LINE",
"398 558 LINE",
"398 0 LINE",
"204 0 LINE",
"204 558 LINE"
);
},
{
closed = 1;
nodes = (
"181 -116 LINE",
"218 -101 LINE SMOOTH",
"246 -89 OFFCURVE",
"246 -87 OFFCURVE",
"246 -49 CURVE",
"363 -49 LINE",
"363 -151 OFFCURVE",
"334 -195 OFFCURVE",
"242 -195 CURVE SMOOTH",
"181 -195 LINE"
);
}
);
};
components = (
{
name = T;
},
{
name = commaaccentcomb;
transform = "{1, 0, 0, 1, 590, 0}";
}
);
layerId = "63BEBE16-5EEB-4E8E-8514-0A5E9B1E5A6A";
width = 600;
}
);
leftKerningGroup = T;
note = "\012    GF Latin Plus glyph\012  ";
rightKerningGroup = T;
unicode = 021A;
userData = {
com.fontlab.hintData = {
hhints = (
{
position = -181;
width = 7;
},
{
position = 0;
width = 21;
},
{
position = 708;
width = 24;
}
);
vhints = (
{
position = 291;
width = 24;
},
{
position = 294;
width = 17;
}
);
};
com.typemytype.robofont.layerData = {
background = {
anchors = (
);
components = (
);
contours = (
{
points = (
{
segmentType = line;
smooth = 0;
x = 180;
y = -174;
},
{
segmentType = line;
smooth = 1;
x = 212;
y = -169;
},
{
smooth = 0;
x = 265;
y = -161;
},
{
smooth = 0;
x = 296;
y = -153;
},
{
segmentType = curve;
smooth = 0;
x = 294;
y = -45;
},
{
segmentType = line;
smooth = 0;
x = 311;
y = -45;
},
{
smooth = 0;
x = 311;
y = -145;
},
{
smooth = 0;
x = 293;
y = -181;
},
{
segmentType = curve;
smooth = 1;
x = 210;
y = -181;
},
{
segmentType = line;
smooth = 0;
x = 180;
y = -181;
}
);
},
{
points = (
{
segmentType = line;
smooth = 0;
x = 47;
y = 708;
},
{
segmentType = line;
smooth = 0;
x = 47;
y = 732;
},
{
segmentType = line;
smooth = 0;
x = 565;
y = 732;
},
{
segmentType = line;
smooth = 0;
x = 565;
y = 708;
},
{
segmentType = line;
smooth = 0;
x = 315;
y = 708;
},
{
segmentType = line;
smooth = 0;
x = 315;
y = 0;
},
{
segmentType = line;
smooth = 0;
x = 291;
y = 0;
},
{
segmentType = line;
smooth = 0;
x = 291;
y = 708;
}
);
}
);
lib = {
};
name = Tcommaaccent;
unicodes = (
);
width = 550;
};
};
};
},
{
glyphname = U;
layers = (
{
anchors = (
{
name = bottom;
position = "{334, -150}";
},
{
name = ogonek;
position = "{407, 0}";
},
{
name = top;
position = "{334, 810}";
}
);
background = {
components = (
{
name = O;
transform = "{1, 0, 0, 1, 8, 0}";
}
);
paths = (
{
closed = 1;
nodes = (
"78 320 CURVE SMOOTH",
"78 732 LINE",
"102 732 LINE",
"102 320 LINE SMOOTH",
"102 21 OFFCURVE",
"198 19 OFFCURVE",
"334 19 CURVE SMOOTH",
"459 19 OFFCURVE",
"561 35 OFFCURVE",
"561 320 CURVE SMOOTH",
"561 732 LINE",
"585 732 LINE",
"585 320 LINE SMOOTH",
"585 -3 OFFCURVE",
"455 -5 OFFCURVE",
"334 -5 CURVE SMOOTH",
"198 -5 OFFCURVE",
"78 -9 OFFCURVE"
);
}
);
};
layerId = "970D4E8E-4EF0-498B-97F3-F7DEE39AB542";
paths = (
{
closed = 1;
nodes = (
"500 -6 OFFCURVE",
"590 49 OFFCURVE",
"590 220 CURVE SMOOTH",
"590 732 LINE",
"566 732 LINE",
"566 220 LINE SMOOTH",
"566 58 OFFCURVE",
"480 16 OFFCURVE",
"334 16 CURVE SMOOTH",
"188 16 OFFCURVE",
"102 58 OFFCURVE",
"102 220 CURVE SMOOTH",
"102 732 LINE",
"78 732 LINE",
"78 220 LINE SMOOTH",
"78 49 OFFCURVE",
"168 -6 OFFCURVE",
"334 -6 CURVE SMOOTH"
);
}
);
width = 668;
},
{
anchors = (
{
name = bottom;
position = "{334, -150}";
},
{
name = ogonek;
position = "{422, 0}";
},
{
name = top;
position = "{334, 810}";
}
);
background = {
components = (
{
name = O;
}
);
paths = (
{
closed = 1;
nodes = (
"45 320 CURVE SMOOTH",
"45 732 LINE",
"239 732 LINE",
"239 320 LINE SMOOTH",
"239 226 OFFCURVE",
"241 169 OFFCURVE",
"336 169 CURVE SMOOTH",
"425 169 OFFCURVE",
"427 230 OFFCURVE",
"427 320 CURVE SMOOTH",
"427 732 LINE",
"622 732 LINE",
"622 320 LINE SMOOTH",
"622 -3 OFFCURVE",
"457 -5 OFFCURVE",
"336 -5 CURVE SMOOTH",
"200 -5 OFFCURVE",
"45 -13 OFFCURVE"
);
}
);
};
layerId = "63BEBE16-5EEB-4E8E-8514-0A5E9B1E5A6A";
paths = (
{
closed = 1;
nodes = (
"510 -5 OFFCURVE",
"647 37 OFFCURVE",
"647 245 CURVE SMOOTH",
"647 743 LINE",
"453 743 LINE",
"453 246 LINE SMOOTH",
"453 194 OFFCURVE",
"414 169 OFFCURVE",
"346 169 CURVE SMOOTH",
"278 169 OFFCURVE",
"239 194 OFFCURVE",
"239 246 CURVE SMOOTH",
"239 743 LINE",
"45 743 LINE",
"45 245 LINE SMOOTH",
"45 37 OFFCURVE",
"182 -5 OFFCURVE",
"346 -5 CURVE SMOOTH"
);
}
);
width = 692;
}
);
leftKerningGroup = U;
note = "\012    GF Latin Plus glyph\012  ";
rightKerningGroup = U;
unicode = 0055;
userData = {
com.fontlab.hintData = {
hhints = (
{
position = -5;
width = 24;
},
{
position = 712;
width = 20;
}
);
vhints = (
{
position = 108;
width = 24;
},
{
position = 591;
width = 24;
}
);
};
com.typemytype.robofont.layerData = {
background = {
anchors = (
);
components = (
{
baseGlyph = O;
transformation = (
1,
0,
0,
1,
8,
0
);
}
);
contours = (
{
points = (
{
segmentType = curve;
smooth = 1;
x = 78;
y = 320;
},
{
segmentType = line;
smooth = 0;
x = 78;
y = 732;
},
{
segmentType = line;
smooth = 0;
x = 102;
y = 732;
},
{
segmentType = line;
smooth = 1;
x = 102;
y = 320;
},
{
smooth = 0;
x = 102;
y = 21;
},
{
smooth = 0;
x = 198;
y = 19;
},
{
segmentType = curve;
smooth = 1;
x = 334;
y = 19;
},
{
smooth = 0;
x = 459;
y = 19;
},
{
smooth = 0;
x = 561;
y = 35;
},
{
segmentType = curve;
smooth = 1;
x = 561;
y = 320;
},
{
segmentType = line;
smooth = 0;
x = 561;
y = 732;
},
{
segmentType = line;
smooth = 0;
x = 585;
y = 732;
},
{
segmentType = line;
smooth = 1;
x = 585;
y = 320;
},
{
smooth = 0;
x = 585;
y = -3;
},
{
smooth = 0;
x = 455;
y = -5;
},
{
segmentType = curve;
smooth = 1;
x = 334;
y = -5;
},
{
smooth = 0;
x = 198;
y = -5;
},
{
smooth = 0;
x = 78;
y = -9;
}
);
}
);
lib = {
};
name = U;
unicodes = (
);
width = 668;
};
};
};
},
{
glyphname = Uhorn;
layers = (
{
anchors = (
{
name = bottom;
position = "{334, -150}";
},
{
name = top;
position = "{334, 810}";
}
);
components = (
{
name = U;
}
);
layerId = "970D4E8E-4EF0-498B-97F3-F7DEE39AB542";
paths = (
{
closed = 1;
nodes = (
"587 716 LINE SMOOTH",
"637 716 OFFCURVE",
"693 740 OFFCURVE",
"693 848 CURVE",
"671 848 LINE",
"671 761 OFFCURVE",
"635 732 OFFCURVE",
"587 732 CURVE SMOOTH",
"570 732 LINE",
"570 716 LINE"
);
}
);
width = 668;
},
{
anchors = (
{
name = bottom;
position = "{334, -150}";
},
{
name = top;
position = "{334, 810}";
}
);
components = (
{
name = U;
}
);
layerId = "63BEBE16-5EEB-4E8E-8514-0A5E9B1E5A6A";
paths = (
{
closed = 1;
nodes = (
"569 639 LINE SMOOTH",
"670 639 OFFCURVE",
"731 717 OFFCURVE",
"731 851 CURVE",
"599 851 LINE",
"599 770 OFFCURVE",
"576 743 OFFCURVE",
"532 743 CURVE SMOOTH",
"473 743 LINE",
"473 639 LINE"
);
}
);
width = 692;
}
);
leftKerningGroup = U;
note = "\012    GF Latin Plus glyph\012  ";
rightKerningGroup = U;
unicode = 01AF;
},
{
glyphname = V;
layers = (
{
background = {
components = (
{
name = A;
transform = "{-1, 0, 0, -1, 666, 732}";
}
);
paths = (
{
closed = 1;
nodes = (
"48 732 LINE",
"74 732 LINE",
"327 24 LINE",
"592 732 LINE",
"618 732 LINE",
"344 0 LINE",
"310 0 LINE"
);
}
);
};
layerId = "970D4E8E-4EF0-498B-97F3-F7DEE39AB542";
paths = (
{
closed = 1;
nodes = (
"350 0 LINE",
"618 732 LINE",
"593 732 LINE",
"333 21 LINE",
"73 732 LINE",
"48 732 LINE",
"316 0 LINE"
);
}
);
width = 666;
},
{
background = {
components = (
{
name = A;
transform = "{-1, 0, 0, -1, 692, 743}";
}
);
paths = (
{
closed = 1;
nodes = (
"16 732 LINE",
"220 732 LINE",
"341 238 LINE",
"472 732 LINE",
"676 732 LINE",
"457 0 LINE",
"223 0 LINE"
);
}
);
};
layerId = "63BEBE16-5EEB-4E8E-8514-0A5E9B1E5A6A";
paths = (
{
closed = 1;
nodes = (
"467 0 LINE",
"687 743 LINE",
"488 743 LINE",
"347 211 LINE",
"206 743 LINE",
"5 743 LINE",
"225 0 LINE"
);
}
);
width = 692;
}
);
leftKerningGroup = V;
note = "\012    GF Latin Plus glyph\012  ";
rightKerningGroup = V;
unicode = 0056;
userData = {
com.fontlab.hintData = {
hhints = (
{
position = 0;
width = 21;
},
{
position = 712;
width = 20;
}
);
};
com.typemytype.robofont.layerData = {
background = {
anchors = (
);
components = (
{
baseGlyph = A;
transformation = (
-1,
0,
0,
-1,
666,
732
);
}
);
contours = (
{
points = (
{
segmentType = line;
smooth = 0;
x = 48;
y = 732;
},
{
segmentType = line;
smooth = 0;
x = 74;
y = 732;
},
{
segmentType = line;
smooth = 0;
x = 327;
y = 24;
},
{
segmentType = line;
smooth = 0;
x = 592;
y = 732;
},
{
segmentType = line;
smooth = 0;
x = 618;
y = 732;
},
{
segmentType = line;
smooth = 0;
x = 344;
y = 0;
},
{
segmentType = line;
smooth = 0;
x = 310;
y = 0;
}
);
}
);
lib = {
};
name = V;
unicodes = (
);
width = 666;
};
};
};
},
{
glyphname = W;
layers = (
{
anchors = (
{
name = top;
position = "{492, 810}";
}
);
background = {
components = (
{
name = V;
},
{
name = V;
transform = "{1, 0, 0, 1, 325, 0}";
}
);
paths = (
{
closed = 1;
nodes = (
"61 732 LINE",
"87 732 LINE",
"340 24 LINE",
"585 732 LINE",
"611 732 LINE",
"508 431 LINE",
"671 24 LINE",
"919 732 LINE",
"943 732 LINE",
"689 0 LINE",
"655 0 LINE",
"495 396 LINE",
"357 0 LINE",
"323 0 LINE"
);
}
);
};
layerId = "970D4E8E-4EF0-498B-97F3-F7DEE39AB542";
paths = (
{
closed = 1;
nodes = (
"280 0 LINE",
"496 708 LINE",
"711 0 LINE",
"745 0 LINE",
"943 732 LINE",
"919 732 LINE",
"728 21 LINE",
"513 732 LINE",
"479 732 LINE",
"263 21 LINE",
"73 732 LINE",
"48 732 LINE",
"246 0 LINE"
);
}
);
width = 991;
},
{
anchors = (
{
name = top;
position = "{534, 810}";
}
);
background = {
components = (
{
name = M;
transform = "{-1, 0, 0, -1, 876, 742}";
}
);
paths = (
{
closed = 1;
nodes = (
"-975 732 LINE",
"-771 732 LINE",
"-650 238 LINE",
"-559 732 LINE",
"-355 732 LINE",
"-392 580 LINE",
"-290 238 LINE",
"-199 732 LINE",
"5 732 LINE",
"-174 0 LINE",
"-408 0 LINE",
"-475 239 LINE",
"-534 0 LINE",
"-768 0 LINE"
);
}
);
};
layerId = "63BEBE16-5EEB-4E8E-8514-0A5E9B1E5A6A";
paths = (
{
closed = 1;
nodes = (
"369 0 LINE",
"496 454 LINE",
"622 0 LINE",
"816 0 LINE",
"986 743 LINE",
"785 743 LINE",
"693 291 LINE",
"583 743 LINE",
"409 743 LINE",
"298 291 LINE",
"206 743 LINE",
"5 743 LINE",
"175 0 LINE"
);
}
);
width = 991;
}
);
leftKerningGroup = V;
note = "\012    GF Latin Plus glyph\012  ";
rightKerningGroup = V;
unicode = 0057;
userData = {
com.fontlab.hintData = {
hhints = (
{
position = 0;
width = 21;
},
{
position = 712;
width = 20;
}
);
};
com.typemytype.robofont.layerData = {
background = {
anchors = (
);
components = (
{
baseGlyph = V;
transformation = (
1,
0,
0,
1,
0,
0
);
},
{
baseGlyph = V;
transformation = (
1,
0,
0,
1,
325,
0
);
}
);
contours = (
{
points = (
{
segmentType = line;
smooth = 0;
x = 61;
y = 732;
},
{
segmentType = line;
smooth = 0;
x = 87;
y = 732;
},
{
segmentType = line;
smooth = 0;
x = 340;
y = 24;
},
{
segmentType = line;
smooth = 0;
x = 585;
y = 732;
},
{
segmentType = line;
smooth = 0;
x = 611;
y = 732;
},
{
segmentType = line;
smooth = 0;
x = 508;
y = 431;
},
{
segmentType = line;
smooth = 0;
x = 671;
y = 24;
},
{
segmentType = line;
smooth = 0;
x = 919;
y = 732;
},
{
segmentType = line;
smooth = 0;
x = 943;
y = 732;
},
{
segmentType = line;
smooth = 0;
x = 689;
y = 0;
},
{
segmentType = line;
smooth = 0;
x = 655;
y = 0;
},
{
segmentType = line;
smooth = 0;
x = 495;
y = 396;
},
{
segmentType = line;
smooth = 0;
x = 357;
y = 0;
},
{
segmentType = line;
smooth = 0;
x = 323;
y = 0;
}
);
}
);
lib = {
};
name = W;
unicodes = (
);
width = 991;
};
};
};
},
{
glyphname = X;
layers = (
{
anchors = (
{
name = bottom;
position = "{295, -150}";
},
{
name = top;
position = "{295, 810}";
}
);
background = {
paths = (
{
closed = 1;
nodes = (
"50 732 LINE",
"81 732 LINE",
"287 388 LINE",
"495 732 LINE",
"526 732 LINE",
"303 363 LINE",
"521 0 LINE",
"490 0 LINE",
"287 337 LINE",
"84 0 LINE",
"53 0 LINE",
"272 363 LINE"
);
}
);
};
layerId = "970D4E8E-4EF0-498B-97F3-F7DEE39AB542";
paths = (
{
closed = 1;
nodes = (
"541 0 LINE",
"76 732 LINE",
"50 732 LINE",
"515 0 LINE"
);
},
{
closed = 1;
nodes = (
"79 0 LINE",
"298 348 LINE",
"286 370 LINE",
"53 0 LINE"
);
},
{
closed = 1;
nodes = (
"541 732 LINE",
"515 732 LINE",
"298 381 LINE",
"306 352 LINE"
);
}
);
width = 591;
},
{
anchors = (
{
name = bottom;
position = "{317, -150}";
},
{
name = top;
position = "{317, 810}";
}
);
background = {
paths = (
{
closed = 1;
nodes = (
"5 732 LINE",
"220 732 LINE",
"325 529 LINE",
"430 732 LINE",
"645 732 LINE",
"422 363 LINE",
"640 0 LINE",
"425 0 LINE",
"325 196 LINE",
"223 0 LINE",
"8 0 LINE",
"227 363 LINE"
);
}
);
};
layerId = "63BEBE16-5EEB-4E8E-8514-0A5E9B1E5A6A";
paths = (
{
closed = 1;
nodes = (
"680 0 LINE",
"219 743 LINE",
"5 743 LINE",
"466 0 LINE"
);
},
{
closed = 1;
nodes = (
"222 0 LINE",
"361 254 LINE",
"261 417 LINE",
"8 0 LINE"
);
},
{
closed = 1;
nodes = (
"685 743 LINE",
"471 743 LINE",
"327 478 LINE",
"426 318 LINE"
);
}
);
width = 690;
}
);
leftKerningGroup = X;
note = "\012    GF Latin Plus glyph\012  ";
rightKerningGroup = K;
unicode = 0058;
userData = {
com.fontlab.hintData = {
hhints = (
{
position = 0;
width = 21;
},
{
position = 712;
width = 20;
}
);
};
com.typemytype.robofont.layerData = {
background = {
anchors = (
);
components = (
);
contours = (
{
points = (
{
segmentType = line;
smooth = 0;
x = 50;
y = 732;
},
{
segmentType = line;
smooth = 0;
x = 81;
y = 732;
},
{
segmentType = line;
smooth = 0;
x = 287;
y = 388;
},
{
segmentType = line;
smooth = 0;
x = 495;
y = 732;
},
{
segmentType = line;
smooth = 0;
x = 526;
y = 732;
},
{
segmentType = line;
smooth = 0;
x = 303;
y = 363;
},
{
segmentType = line;
smooth = 0;
x = 521;
y = 0;
},
{
segmentType = line;
smooth = 0;
x = 490;
y = 0;
},
{
segmentType = line;
smooth = 0;
x = 287;
y = 337;
},
{
segmentType = line;
smooth = 0;
x = 84;
y = 0;
},
{
segmentType = line;
smooth = 0;
x = 53;
y = 0;
},
{
segmentType = line;
smooth = 0;
x = 272;
y = 363;
}
);
}
);
lib = {
};
name = X;
unicodes = (
);
width = 591;
};
};
};
},
{
glyphname = Y;
layers = (
{
anchors = (
{
name = bottom;
position = "{305, -150}";
},
{
name = top;
position = "{305, 810}";
}
);
background = {
paths = (
{
closed = 1;
nodes = (
"50 732 LINE",
"77 732 LINE",
"305 291 LINE",
"553 732 LINE",
"580 732 LINE",
"317 260 LINE",
"317 0 LINE",
"293 0 LINE",
"293 260 LINE"
);
}
);
};
layerId = "970D4E8E-4EF0-498B-97F3-F7DEE39AB542";
paths = (
{
closed = 1;
nodes = (
"317 0 LINE",
"317 260 LINE",
"560 732 LINE",
"534 732 LINE",
"305 283 LINE",
"76 732 LINE",
"50 732 LINE",
"293 260 LINE",
"293 0 LINE"
);
}
);
width = 610;
},
{
anchors = (
{
name = bottom;
position = "{321, -150}";
},
{
name = top;
position = "{321, 810}";
}
);
background = {
paths = (
{
closed = 1;
nodes = (
"5 732 LINE",
"216 732 LINE",
"321 408 LINE",
"434 732 LINE",
"645 732 LINE",
"414 200 LINE",
"414 0 LINE",
"220 0 LINE",
"220 200 LINE"
);
}
);
};
layerId = "63BEBE16-5EEB-4E8E-8514-0A5E9B1E5A6A";
paths = (
{
closed = 1;
nodes = (
"414 0 LINE",
"414 211 LINE",
"629 743 LINE",
"436 743 LINE",
"321 409 LINE",
"206 743 LINE",
"5 743 LINE",
"220 211 LINE",
"220 0 LINE"
);
}
);
width = 634;
}
);
leftKerningGroup = Y;
note = "\012    GF Latin Plus glyph\012  ";
rightKerningGroup = Y;
unicode = 0059;
userData = {
com.fontlab.hintData = {
hhints = (
{
position = 0;
width = 21;
},
{
position = 712;
width = 20;
}
);
vhints = (
{
position = 304;
width = 24;
}
);
};
com.typemytype.robofont.layerData = {
background = {
anchors = (
);
components = (
);
contours = (
{
points = (
{
segmentType = line;
smooth = 0;
x = 50;
y = 732;
},
{
segmentType = line;
smooth = 0;
x = 77;
y = 732;
},
{
segmentType = line;
smooth = 0;
x = 305;
y = 291;
},
{
segmentType = line;
smooth = 0;
x = 553;
y = 732;
},
{
segmentType = line;
smooth = 0;
x = 580;
y = 732;
},
{
segmentType = line;
smooth = 0;
x = 317;
y = 260;
},
{
segmentType = line;
smooth = 0;
x = 317;
y = 0;
},
{
segmentType = line;
smooth = 0;
x = 293;
y = 0;
},
{
segmentType = line;
smooth = 0;
x = 293;
y = 260;
}
);
}
);
lib = {
};
name = Y;
unicodes = (
);
width = 610;
};
};
};
},
{
glyphname = Z;
layers = (
{
anchors = (
{
name = bottom;
position = "{275, -150}";
},
{
name = top;
position = "{275, 810}";
}
);
background = {
paths = (
{
closed = 1;
nodes = (
"47 0 LINE",
"47 24 LINE",
"480 708 LINE",
"47 708 LINE",
"47 732 LINE",
"510 732 LINE",
"510 708 LINE",
"77 24 LINE",
"510 24 LINE",
"510 0 LINE"
);
}
);
};
layerId = "970D4E8E-4EF0-498B-97F3-F7DEE39AB542";
paths = (
{
closed = 1;
nodes = (
"510 0 LINE",
"510 22 LINE",
"76 22 LINE",
"510 710 LINE",
"510 732 LINE",
"47 732 LINE",
"47 710 LINE",
"481 710 LINE",
"47 22 LINE",
"47 0 LINE"
);
}
);
width = 549;
},
{
anchors = (
{
name = bottom;
position = "{285, -150}";
},
{
name = top;
position = "{285, 810}";
}
);
background = {
paths = (
{
closed = 1;
nodes = (
"35 0 LINE",
"35 174 LINE",
"321 558 LINE",
"35 558 LINE",
"35 732 LINE",
"548 732 LINE",
"548 558 LINE",
"292 174 LINE",
"548 174 LINE",
"548 0 LINE"
);
}
);
};
layerId = "63BEBE16-5EEB-4E8E-8514-0A5E9B1E5A6A";
paths = (
{
closed = 1;
nodes = (
"548 0 LINE",
"548 174 LINE",
"271 174 LINE",
"548 589 LINE",
"548 743 LINE",
"35 743 LINE",
"35 569 LINE",
"312 569 LINE",
"35 154 LINE",
"35 0 LINE"
);
}
);
width = 583;
}
);
leftKerningGroup = Z;
note = "\012    GF Latin Plus glyph\012  ";
unicode = 005A;
userData = {
com.fontlab.hintData = {
hhints = (
{
position = 0;
width = 24;
},
{
position = 708;
width = 24;
}
);
};
com.typemytype.robofont.layerData = {
background = {
anchors = (
);
components = (
);
contours = (
{
points = (
{
segmentType = line;
smooth = 0;
x = 47;
y = 0;
},
{
segmentType = line;
smooth = 0;
x = 47;
y = 24;
},
{
segmentType = line;
smooth = 0;
x = 480;
y = 708;
},
{
segmentType = line;
smooth = 0;
x = 47;
y = 708;
},
{
segmentType = line;
smooth = 0;
x = 47;
y = 732;
},
{
segmentType = line;
smooth = 0;
x = 510;
y = 732;
},
{
segmentType = line;
smooth = 0;
x = 510;
y = 708;
},
{
segmentType = line;
smooth = 0;
x = 77;
y = 24;
},
{
segmentType = line;
smooth = 0;
x = 510;
y = 24;
},
{
segmentType = line;
smooth = 0;
x = 510;
y = 0;
}
);
}
);
lib = {
};
name = Z;
unicodes = (
);
width = 549;
};
};
};
},
{
glyphname = M.salt;
layers = (
{
anchors = (
{
name = bottom;
position = "{398, -150}";
},
{
name = top;
position = "{398, 810}";
}
);
background = {
components = (
{
name = M;
}
);
};
layerId = "970D4E8E-4EF0-498B-97F3-F7DEE39AB542";
paths = (
{
closed = 1;
nodes = (
"68 0 LINE",
"91 0 LINE",
"143 662 LINE SMOOTH",
"146 695 OFFCURVE",
"167 717 OFFCURVE",
"190 717 CURVE SMOOTH",
"208 717 OFFCURVE",
"226 702 OFFCURVE",
"235 672 CURVE SMOOTH",
"356 263 LINE SMOOTH",
"366 231 OFFCURVE",
"386 215 OFFCURVE",
"412 215 CURVE SMOOTH",
"439 215 OFFCURVE",
"460 232 OFFCURVE",
"468 263 CURVE SMOOTH",
"577 673 LINE SMOOTH",
"585 701 OFFCURVE",
"599 717 OFFCURVE",
"614 717 CURVE SMOOTH",
"630 717 OFFCURVE",
"646 696 OFFCURVE",
"649 662 CURVE SMOOTH",
"705 0 LINE",
"729 0 LINE",
"674 654 LINE SMOOTH",
"669 710 OFFCURVE",
"648 739 OFFCURVE",
"613 739 CURVE SMOOTH",
"585 739 OFFCURVE",
"564 720 OFFCURVE",
"554 681 CURVE SMOOTH",
"445 270 LINE SMOOTH",
"440 250 OFFCURVE",
"428 240 OFFCURVE",
"412 240 CURVE SMOOTH",
"396.531 240 OFFCURVE",
"385.244 249.017 OFFCURVE",
"379 270 CURVE SMOOTH",
"257 680 LINE SMOOTH",
"245.104 719.977 OFFCURVE",
"224 739 OFFCURVE",
"192 739 CURVE SMOOTH",
"154 739 OFFCURVE",
"124 709 OFFCURVE",
"120 652 CURVE SMOOTH"
);
}
);
width = 809;
},
{
anchors = (
{
name = bottom;
position = "{447, -150}";
},
{
name = top;
position = "{447, 810}";
}
);
background = {
components = (
{
name = M;
}
);
paths = (
{
closed = 1;
nodes = (
"-969 0 LINE",
"-940 600 LINE SMOOTH",
"-931 782 OFFCURVE",
"-569 782 OFFCURVE",
"-569 578 CURVE SMOOTH",
"-569 340 LINE SMOOTH",
"-569 320 OFFCURVE",
"-538 324 OFFCURVE",
"-538 340 CURVE SMOOTH",
"-538 582 LINE SMOOTH",
"-538 782 OFFCURVE",
"-169 781 OFFCURVE",
"-159 612 CURVE SMOOTH",
"-124 0 LINE",
"-320 0 LINE",
"-339 498 LINE SMOOTH",
"-340 515 OFFCURVE",
"-365 508 OFFCURVE",
"-365 492 CURVE SMOOTH",
"-368 270 LINE",
"-380 118 OFFCURVE",
"-721 110 OFFCURVE",
"-732 273 CURVE",
"-736 503 LINE SMOOTH",
"-736 520 OFFCURVE",
"-761 513 OFFCURVE",
"-762 496 CURVE SMOOTH",
"-776 0 LINE"
);
}
);
};
layerId = "63BEBE16-5EEB-4E8E-8514-0A5E9B1E5A6A";
paths = (
{
closed = 1;
nodes = (
"35 0 LINE",
"222 0 LINE",
"247 541 LINE SMOOTH",
"248 561 OFFCURVE",
"253 566 OFFCURVE",
"262 566 CURVE SMOOTH",
"269 566 OFFCURVE",
"272 562 OFFCURVE",
"274 548 CURVE SMOOTH",
"317 253 LINE SMOOTH",
"331 157 OFFCURVE",
"393 127 OFFCURVE",
"457 127 CURVE SMOOTH",
"521 127 OFFCURVE",
"584 157 OFFCURVE",
"598 253 CURVE SMOOTH",
"642 546 LINE SMOOTH",
"645 563 OFFCURVE",
"649 567 OFFCURVE",
"655 567 CURVE SMOOTH",
"663 567 OFFCURVE",
"667 563 OFFCURVE",
"668 546 CURVE SMOOTH",
"693 0 LINE",
"880 0 LINE",
"848 593 LINE SMOOTH",
"840.976 723.163 OFFCURVE",
"761 759 OFFCURVE",
"678 759 CURVE SMOOTH",
"593 759 OFFCURVE",
"524 729 OFFCURVE",
"507 594 CURVE SMOOTH",
"477 355 LINE SMOOTH",
"475 337 OFFCURVE",
"468 331 OFFCURVE",
"459 331 CURVE SMOOTH",
"451 331 OFFCURVE",
"444 336 OFFCURVE",
"441 355 CURVE SMOOTH",
"409 594 LINE SMOOTH",
"391 725 OFFCURVE",
"326 760 OFFCURVE",
"239 760 CURVE SMOOTH",
"155 760 OFFCURVE",
"71.709 723.176 OFFCURVE",
"65 591 CURVE SMOOTH"
);
}
);
width = 906;
}
);
note = "\012  ";
userData = {
com.fontlab.hintData = {
hhints = (
{
position = 0;
width = 21;
}
);
};
com.typemytype.robofont.layerData = {
background = {
anchors = (
);
components = (
{
baseGlyph = M;
transformation = (
1,
0,
0,
1,
0,
0
);
}
);
contours = (
);
lib = {
};
name = M.salt;
unicodes = (
);
width = 809;
};
};
};
},
{
glyphname = N.salt;
layers = (
{
anchors = (
{
name = bottom;
position = "{357, -150}";
},
{
name = top;
position = "{357, 810}";
}
);
background = {
paths = (
{
closed = 1;
nodes = (
"108 0 LINE",
"108 652 LINE SMOOTH",
"108 754 OFFCURVE",
"236 769 OFFCURVE",
"267 680 CURVE SMOOTH",
"484 59 LINE SMOOTH",
"508 -10 OFFCURVE",
"597 12 OFFCURVE",
"599 77 CURVE",
"599 732 LINE",
"623 732 LINE",
"623 79 LINE SMOOTH",
"623 -16 OFFCURVE",
"493 -42 OFFCURVE",
"461 51 CURVE SMOOTH",
"244 672 LINE SMOOTH",
"222 735 OFFCURVE",
"132 725 OFFCURVE",
"132 650 CURVE SMOOTH",
"132 0 LINE"
);
}
);
};
layerId = "970D4E8E-4EF0-498B-97F3-F7DEE39AB542";
paths = (
{
closed = 1;
nodes = (
"108 0 LINE",
"132 0 LINE",
"132 650 LINE SMOOTH",
"132 702 OFFCURVE",
"155 717 OFFCURVE",
"189 717 CURVE SMOOTH",
"215 717 OFFCURVE",
"233 700 OFFCURVE",
"243 672 CURVE SMOOTH",
"464 51 LINE SMOOTH",
"478 11 OFFCURVE",
"503 -6 OFFCURVE",
"543 -6 CURVE SMOOTH",
"586 -6 OFFCURVE",
"623 14 OFFCURVE",
"623 79 CURVE SMOOTH",
"623 732 LINE",
"599 732 LINE",
"599 77 LINE SMOOTH",
"599 29 OFFCURVE",
"573 16 OFFCURVE",
"544 16 CURVE SMOOTH",
"512 16 OFFCURVE",
"495 30 OFFCURVE",
"485 59 CURVE SMOOTH",
"264 680 LINE SMOOTH",
"250 720 OFFCURVE",
"227 739 OFFCURVE",
"188 739 CURVE SMOOTH",
"146 739 OFFCURVE",
"108 719 OFFCURVE",
"108 652 CURVE SMOOTH"
);
}
);
width = 691;
},
{
anchors = (
{
name = bottom;
position = "{431, -150}";
},
{
name = top;
position = "{451, 810}";
}
);
background = {
components = (
{
name = N;
}
);
paths = (
{
closed = 1;
nodes = (
"745 0 LINE",
"745 569 LINE SMOOTH",
"745 796 OFFCURVE",
"1128 794 OFFCURVE",
"1149 593 CURVE SMOOTH",
"1192 182 LINE SMOOTH",
"1194 162 OFFCURVE",
"1216 170 OFFCURVE",
"1216 185 CURVE SMOOTH",
"1216 732 LINE",
"1410 732 LINE",
"1410 165 LINE SMOOTH",
"1410 -47 OFFCURVE",
"1031 -73 OFFCURVE",
"1008 153 CURVE SMOOTH",
"965 569 LINE SMOOTH",
"963 585 OFFCURVE",
"940 579 OFFCURVE",
"940 562 CURVE SMOOTH",
"940 0 LINE"
);
}
);
};
layerId = "63BEBE16-5EEB-4E8E-8514-0A5E9B1E5A6A";
paths = (
{
closed = 1;
nodes = (
"55 0 LINE",
"249 0 LINE",
"249 539 LINE SMOOTH",
"249 554 OFFCURVE",
"255 555 OFFCURVE",
"259 555 CURVE SMOOTH",
"264 555 OFFCURVE",
"267 552 OFFCURVE",
"269 546 CURVE SMOOTH",
"393 153 LINE SMOOTH",
"426 49 OFFCURVE",
"472 -6 OFFCURVE",
"582 -6 CURVE SMOOTH",
"694 -6 OFFCURVE",
"771 38 OFFCURVE",
"771 175 CURVE SMOOTH",
"771 743 LINE",
"577 743 LINE",
"577 202 LINE SMOOTH",
"577 190 OFFCURVE",
"573 188 OFFCURVE",
"568 188 CURVE SMOOTH",
"564 188 OFFCURVE",
"561 191 OFFCURVE",
"558 199 CURVE SMOOTH",
"438 583 LINE SMOOTH",
"409 677 OFFCURVE",
"365 749 OFFCURVE",
"242 749 CURVE SMOOTH",
"130 749 OFFCURVE",
"55 702.059 OFFCURVE",
"55 559 CURVE SMOOTH"
);
}
);
width = 826;
}
);
note = "\012  ";
userData = {
com.fontlab.hintData = {
hhints = (
{
position = 0;
width = 21;
},
{
position = 712;
width = 20;
}
);
vhints = (
{
position = 108;
width = 24;
},
{
position = 599;
width = 24;
}
);
};
com.typemytype.robofont.layerData = {
background = {
anchors = (
);
components = (
);
contours = (
{
points = (
{
segmentType = line;
smooth = 0;
x = 108;
y = 0;
},
{
segmentType = line;
smooth = 1;
x = 108;
y = 652;
},
{
smooth = 0;
x = 108;
y = 754;
},
{
smooth = 0;
x = 236;
y = 769;
},
{
segmentType = curve;
smooth = 1;
x = 267;
y = 680;
},
{
segmentType = line;
smooth = 1;
x = 484;
y = 59;
},
{
smooth = 0;
x = 508;
y = -10;
},
{
smooth = 0;
x = 597;
y = 12;
},
{
segmentType = curve;
smooth = 0;
x = 599;
y = 77;
},
{
segmentType = line;
smooth = 0;
x = 599;
y = 732;
},
{
segmentType = line;
smooth = 0;
x = 623;
y = 732;
},
{
segmentType = line;
smooth = 1;
x = 623;
y = 79;
},
{
smooth = 0;
x = 623;
y = -16;
},
{
smooth = 0;
x = 493;
y = -42;
},
{
segmentType = curve;
smooth = 1;
x = 461;
y = 51;
},
{
segmentType = line;
smooth = 1;
x = 244;
y = 672;
},
{
smooth = 0;
x = 222;
y = 735;
},
{
smooth = 0;
x = 132;
y = 725;
},
{
segmentType = curve;
smooth = 1;
x = 132;
y = 650;
},
{
segmentType = line;
smooth = 0;
x = 132;
y = 0;
}
);
}
);
lib = {
};
name = N.salt;
unicodes = (
);
width = 691;
};
};
};
},
{
glyphname = W.salt;
layers = (
{
anchors = (
{
name = top;
position = "{522, 810}";
}
);
background = {
components = (
{
name = V;
},
{
name = V;
transform = "{1, 0, 0, 1, 325, 0}";
}
);
paths = (
{
closed = 1;
nodes = (
"61 732 LINE",
"87 732 LINE",
"340 24 LINE",
"585 732 LINE",
"611 732 LINE",
"508 431 LINE",
"671 24 LINE",
"919 732 LINE",
"943 732 LINE",
"689 0 LINE",
"655 0 LINE",
"495 396 LINE",
"357 0 LINE",
"323 0 LINE"
);
}
);
};
layerId = "970D4E8E-4EF0-498B-97F3-F7DEE39AB542";
paths = (
{
closed = 1;
nodes = (
"48 732 LINE",
"306 0 LINE",
"340 0 LINE",
"492 436 LINE",
"651 0 LINE",
"685 0 LINE",
"943 732 LINE",
"919 732 LINE",
"668 24 LINE",
"504 470 LINE",
"591 732 LINE",
"565 732 LINE",
"323 24 LINE",
"74 732 LINE"
);
}
);
width = 991;
},
{
anchors = (
{
name = top;
position = "{534, 810}";
}
);
background = {
components = (
{
name = W;
}
);
};
layerId = "63BEBE16-5EEB-4E8E-8514-0A5E9B1E5A6A";
paths = (
{
closed = 1;
nodes = (
"5 743 LINE",
"195 0 LINE",
"447 0 LINE",
"530 248 LINE",
"614 0 LINE",
"866 0 LINE",
"1046 743 LINE",
"847 743 LINE",
"727 221 LINE",
"622 541 LINE",
"668 743 LINE",
"468 743 LINE",
"338 221 LINE",
"206 743 LINE"
);
}
);
width = 1051;
}
);
leftKerningGroup = V;
note = "\012  ";
rightKerningGroup = V;
userData = {
com.fontlab.hintData = {
hhints = (
{
position = 0;
width = 21;
},
{
position = 712;
width = 20;
}
);
};
com.typemytype.robofont.layerData = {
background = {
anchors = (
);
components = (
{
baseGlyph = V;
transformation = (
1,
0,
0,
1,
0,
0
);
},
{
baseGlyph = V;
transformation = (
1,
0,
0,
1,
325,
0
);
}
);
contours = (
{
points = (
{
segmentType = line;
smooth = 0;
x = 61;
y = 732;
},
{
segmentType = line;
smooth = 0;
x = 87;
y = 732;
},
{
segmentType = line;
smooth = 0;
x = 340;
y = 24;
},
{
segmentType = line;
smooth = 0;
x = 585;
y = 732;
},
{
segmentType = line;
smooth = 0;
x = 611;
y = 732;
},
{
segmentType = line;
smooth = 0;
x = 508;
y = 431;
},
{
segmentType = line;
smooth = 0;
x = 671;
y = 24;
},
{
segmentType = line;
smooth = 0;
x = 919;
y = 732;
},
{
segmentType = line;
smooth = 0;
x = 943;
y = 732;
},
{
segmentType = line;
smooth = 0;
x = 689;
y = 0;
},
{
segmentType = line;
smooth = 0;
x = 655;
y = 0;
},
{
segmentType = line;
smooth = 0;
x = 495;
y = 396;
},
{
segmentType = line;
smooth = 0;
x = 357;
y = 0;
},
{
segmentType = line;
smooth = 0;
x = 323;
y = 0;
}
);
}
);
lib = {
};
name = W.salt;
unicodes = (
);
width = 991;
};
};
};
},
{
glyphname = X.salt;
layers = (
{
anchors = (
{
name = bottom;
position = "{295, -150}";
},
{
name = top;
position = "{295, 810}";
}
);
background = {
components = (
{
name = X;
}
);
paths = (
{
closed = 1;
nodes = (
"1044 284 LINE",
"996 345 OFFCURVE",
"1020 427 OFFCURVE",
"1065 487 CURVE SMOOTH",
"1250 732 LINE",
"1279 732 LINE",
"1087 476 LINE",
"1041 420 OFFCURVE",
"1024 353 OFFCURVE",
"1066 295 CURVE SMOOTH",
"1279 0 LINE",
"1249 0 LINE"
);
},
{
closed = 1;
nodes = (
"727 0 LINE",
"940 295 LINE SMOOTH",
"982 353 OFFCURVE",
"965 420 OFFCURVE",
"919 476 CURVE",
"727 732 LINE",
"756 732 LINE",
"941 487 LINE SMOOTH",
"986 427 OFFCURVE",
"1010 345 OFFCURVE",
"962 284 CURVE",
"757 0 LINE"
);
}
);
};
layerId = "970D4E8E-4EF0-498B-97F3-F7DEE39AB542";
paths = (
{
closed = 1;
nodes = (
"53 0 LINE",
"79 0 LINE",
"239 254 LINE SMOOTH",
"262 291 OFFCURVE",
"275 327 OFFCURVE",
"275 366 CURVE SMOOTH",
"275 412 OFFCURVE",
"252 456 OFFCURVE",
"227 495 CURVE SMOOTH",
"76 732 LINE",
"50 732 LINE",
"210 481 LINE SMOOTH",
"234 444 OFFCURVE",
"253 406 OFFCURVE",
"253 366 CURVE SMOOTH",
"253 330 OFFCURVE",
"240 298 OFFCURVE",
"219 265 CURVE SMOOTH"
);
},
{
closed = 1;
nodes = (
"515 0 LINE",
"541 0 LINE",
"373 265 LINE SMOOTH",
"352.14 297.904 OFFCURVE",
"343 330 OFFCURVE",
"343 366 CURVE SMOOTH",
"343 406 OFFCURVE",
"363.368 444.351 OFFCURVE",
"386 481 CURVE SMOOTH",
"541 732 LINE",
"515 732 LINE",
"369 495 LINE SMOOTH",
"344.531 455.28 OFFCURVE",
"321 412 OFFCURVE",
"321 366 CURVE SMOOTH",
"321 328 OFFCURVE",
"331.065 290.848 OFFCURVE",
"355 253 CURVE SMOOTH"
);
}
);
width = 591;
},
{
anchors = (
{
name = bottom;
position = "{362, -150}";
},
{
name = top;
position = "{362, 810}";
}
);
background = {
components = (
{
name = X;
transform = "{1, 0, 0, 1, -6, 0}";
}
);
paths = (
{
closed = 1;
nodes = (
"1155 261 LINE",
"1155 261 OFFCURVE",
"1154 485 OFFCURVE",
"1155 487 CURVE SMOOTH",
"1276 732 LINE",
"1476 732 LINE",
"1358 457 LINE SMOOTH",
"1328 387 OFFCURVE",
"1322 368 OFFCURVE",
"1348 305 CURVE SMOOTH",
"1476 0 LINE",
"1266 0 LINE"
);
},
{
closed = 1;
nodes = (
"805 0 LINE",
"933 305 LINE SMOOTH",
"959 368 OFFCURVE",
"953 387 OFFCURVE",
"923 457 CURVE SMOOTH",
"805 732 LINE",
"1005 732 LINE",
"1125 487 LINE SMOOTH",
"1127 483 OFFCURVE",
"1125 261 OFFCURVE",
"1125 261 CURVE",
"1015 0 LINE"
);
}
);
};
layerId = "63BEBE16-5EEB-4E8E-8514-0A5E9B1E5A6A";
paths = (
{
closed = 1;
nodes = (
"5 0 LINE",
"215 0 LINE",
"325 246 LINE SMOOTH",
"342 283 OFFCURVE",
"351 329 OFFCURVE",
"351 374 CURVE SMOOTH",
"351 419 OFFCURVE",
"342 463 OFFCURVE",
"325 498 CURVE SMOOTH",
"205 743 LINE",
"5 743 LINE",
"133 456 LINE SMOOTH",
"146 426 OFFCURVE",
"153 399 OFFCURVE",
"153 372 CURVE SMOOTH",
"153 345 OFFCURVE",
"146 318 OFFCURVE",
"133 288 CURVE SMOOTH"
);
},
{
closed = 1;
nodes = (
"510 0 LINE",
"720 0 LINE",
"592 288 LINE SMOOTH",
"579 318 OFFCURVE",
"572 345 OFFCURVE",
"572 372 CURVE SMOOTH",
"572 399 OFFCURVE",
"579 426 OFFCURVE",
"592 456 CURVE SMOOTH",
"720 743 LINE",
"520 743 LINE",
"400 498 LINE SMOOTH",
"383 463 OFFCURVE",
"374 419 OFFCURVE",
"374 374 CURVE SMOOTH",
"374 329 OFFCURVE",
"383 283 OFFCURVE",
"400 246 CURVE SMOOTH"
);
}
);
width = 725;
}
);
leftKerningGroup = X;
note = "\012  ";
rightKerningGroup = K;
userData = {
com.fontlab.hintData = {
hhints = (
{
position = 0;
width = 21;
},
{
position = 712;
width = 20;
}
);
};
com.typemytype.robofont.layerData = {
background = {
anchors = (
);
components = (
{
baseGlyph = X;
transformation = (
1,
0,
0,
1,
0,
0
);
}
);
contours = (
{
points = (
{
segmentType = line;
smooth = 0;
x = 1044;
y = 284;
},
{
smooth = 0;
x = 996;
y = 345;
},
{
smooth = 0;
x = 1020;
y = 427;
},
{
segmentType = curve;
smooth = 1;
x = 1065;
y = 487;
},
{
segmentType = line;
smooth = 0;
x = 1250;
y = 732;
},
{
segmentType = line;
smooth = 0;
x = 1279;
y = 732;
},
{
segmentType = line;
smooth = 0;
x = 1087;
y = 476;
},
{
smooth = 0;
x = 1041;
y = 420;
},
{
smooth = 0;
x = 1024;
y = 353;
},
{
segmentType = curve;
smooth = 1;
x = 1066;
y = 295;
},
{
segmentType = line;
smooth = 0;
x = 1279;
y = 0;
},
{
segmentType = line;
smooth = 0;
x = 1249;
y = 0;
}
);
},
{
points = (
{
segmentType = line;
smooth = 0;
x = 727;
y = 0;
},
{
segmentType = line;
smooth = 1;
x = 940;
y = 295;
},
{
smooth = 0;
x = 982;
y = 353;
},
{
smooth = 0;
x = 965;
y = 420;
},
{
segmentType = curve;
smooth = 0;
x = 919;
y = 476;
},
{
segmentType = line;
smooth = 0;
x = 727;
y = 732;
},
{
segmentType = line;
smooth = 0;
x = 756;
y = 732;
},
{
segmentType = line;
smooth = 1;
x = 941;
y = 487;
},
{
smooth = 0;
x = 986;
y = 427;
},
{
smooth = 0;
x = 1010;
y = 345;
},
{
segmentType = curve;
smooth = 0;
x = 962;
y = 284;
},
{
segmentType = line;
smooth = 0;
x = 757;
y = 0;
}
);
}
);
lib = {
};
name = X.salt;
unicodes = (
);
width = 591;
};
};
};
},
{
glyphname = a;
layers = (
{
anchors = (
{
name = bottom;
position = "{270, -150}";
},
{
name = ogonek;
position = "{443, 0}";
},
{
name = top;
position = "{270, 650}";
}
);
background = {
paths = (
{
closed = 1;
nodes = (
"78 131 LINE SMOOTH",
"78 46 OFFCURVE",
"138 19 OFFCURVE",
"187 18 CURVE SMOOTH",
"267 16 OFFCURVE",
"429 78 OFFCURVE",
"429 78 CURVE",
"429 306 LINE",
"187 296 LINE SMOOTH",
"106 293 OFFCURVE",
"78 248 OFFCURVE",
"78 187 CURVE SMOOTH"
);
},
{
closed = 1;
nodes = (
"54 126 CURVE SMOOTH",
"54 187 LINE SMOOTH",
"54 272 OFFCURVE",
"105 320 OFFCURVE",
"187 320 CURVE SMOOTH",
"187 320 OFFCURVE",
"429 319 OFFCURVE",
"429 320 CURVE SMOOTH",
"429 320 OFFCURVE",
"430 386 OFFCURVE",
"429 387 CURVE",
"429 456 OFFCURVE",
"400 518 OFFCURVE",
"299 519 CURVE SMOOTH",
"227 520 OFFCURVE",
"162 510 OFFCURVE",
"71 496 CURVE",
"71 510 LINE",
"128 524 OFFCURVE",
"200 540 OFFCURVE",
"300 541 CURVE SMOOTH",
"383 542 OFFCURVE",
"453 497 OFFCURVE",
"453 387 CURVE SMOOTH",
"453 0 LINE",
"438 0 LINE",
"429 64 LINE",
"427 64 OFFCURVE",
"285 -6 OFFCURVE",
"187 -6 CURVE SMOOTH",
"114 -6 OFFCURVE",
"54 41 OFFCURVE"
);
}
);
};
layerId = "970D4E8E-4EF0-498B-97F3-F7DEE39AB542";
paths = (
{
closed = 1;
nodes = (
"285 -6 OFFCURVE",
"427 64 OFFCURVE",
"429 64 CURVE",
"437 0 LINE",
"453 0 LINE",
"453 387 LINE SMOOTH",
"453 487 OFFCURVE",
"404 542 OFFCURVE",
"276 541 CURVE SMOOTH",
"202.55 540.07 OFFCURVE",
"145.844 536.86 OFFCURVE",
"104 535 CURVE",
"104 519 LINE",
"274 519 LINE SMOOTH",
"396 519 OFFCURVE",
"429 466 OFFCURVE",
"429 387 CURVE SMOOTH",
"429 298 LINE",
"213 298 LINE SMOOTH",
"109 298 OFFCURVE",
"54 242 OFFCURVE",
"54 157 CURVE SMOOTH",
"54 126 LINE SMOOTH",
"54 41 OFFCURVE",
"111 -6 OFFCURVE",
"187 -6 CURVE SMOOTH"
);
},
{
closed = 1;
nodes = (
"138 19 OFFCURVE",
"78 46 OFFCURVE",
"78 131 CURVE SMOOTH",
"78 157 LINE SMOOTH",
"78 222 OFFCURVE",
"112 272 OFFCURVE",
"207 275 CURVE SMOOTH",
"429 282 LINE",
"429 80 LINE",
"429 80 OFFCURVE",
"267 16 OFFCURVE",
"187 18 CURVE SMOOTH"
);
}
);
width = 540;
},
{
anchors = (
{
name = bottom;
position = "{270, -150}";
},
{
name = ogonek;
position = "{502, 0}";
},
{
name = top;
position = "{270, 650}";
}
);
background = {
paths = (
{
closed = 1;
nodes = (
"220 175 LINE SMOOTH",
"220 134 OFFCURVE",
"243 138 OFFCURVE",
"262 138 CURVE SMOOTH",
"303 138 OFFCURVE",
"302 171 OFFCURVE",
"302 171 CURVE",
"302 231 LINE",
"250 226 LINE SMOOTH",
"218 223 OFFCURVE",
"220 197 OFFCURVE",
"220 181 CURVE SMOOTH"
);
},
{
closed = 1;
nodes = (
"26 143 CURVE SMOOTH",
"26 184 LINE SMOOTH",
"26 259 OFFCURVE",
"61 340 OFFCURVE",
"200 340 CURVE SMOOTH",
"200 340 OFFCURVE",
"302 339 OFFCURVE",
"302 340 CURVE SMOOTH",
"302 340 OFFCURVE",
"303 346 OFFCURVE",
"302 347 CURVE",
"302 400 OFFCURVE",
"280 399 OFFCURVE",
"240 399 CURVE SMOOTH",
"215 399 OFFCURVE",
"44 388 OFFCURVE",
"44 388 CURVE",
"44 501 LINE",
"113 534 OFFCURVE",
"173 541 OFFCURVE",
"272 541 CURVE SMOOTH",
"412 541 OFFCURVE",
"496 506 OFFCURVE",
"496 357 CURVE SMOOTH",
"496 0 LINE",
"340 0 LINE",
"302 54 LINE",
"293 33 OFFCURVE",
"263 -9 OFFCURVE",
"190 -6 CURVE SMOOTH",
"64 -1 OFFCURVE",
"26 87 OFFCURVE"
);
}
);
};
layerId = "63BEBE16-5EEB-4E8E-8514-0A5E9B1E5A6A";
paths = (
{
closed = 1;
nodes = (
"250 -6 OFFCURVE",
"302.66 28.66 OFFCURVE",
"328 54 CURVE",
"358 0 LINE",
"512 0 LINE",
"512 357 LINE SMOOTH",
"512 509 OFFCURVE",
"424 545 OFFCURVE",
"288 545 CURVE SMOOTH",
"182.673 545 OFFCURVE",
"114 528 OFFCURVE",
"58 506 CURVE",
"58 395 LINE",
"215 395 LINE SMOOTH",
"306 395 OFFCURVE",
"318 383 OFFCURVE",
"318 343 CURVE SMOOTH",
"318 326 LINE",
"210 326 LINE SMOOTH",
"82 326 OFFCURVE",
"26 266 OFFCURVE",
"26 186 CURVE SMOOTH",
"26 131 LINE SMOOTH",
"26 47 OFFCURVE",
"82 -6 OFFCURVE",
"165 -6 CURVE SMOOTH"
);
},
{
closed = 1;
nodes = (
"237 126 OFFCURVE",
"220 136 OFFCURVE",
"220 163 CURVE SMOOTH",
"220 183 LINE SMOOTH",
"220 212 OFFCURVE",
"240 225 OFFCURVE",
"277 230 CURVE SMOOTH",
"318 236 LINE",
"318 139 LINE",
"309 134 OFFCURVE",
"285 126 OFFCURVE",
"267 126 CURVE SMOOTH"
);
}
);
width = 554;
}
);
leftKerningGroup = a;
note = "\012    GF Latin Plus glyph\012  ";
rightKerningGroup = a;
unicode = 0061;
userData = {
com.fontlab.hintData = {
hhints = (
{
position = -6;
width = 24;
},
{
position = 296;
width = 24;
},
{
position = 519;
width = 22;
}
);
vhints = (
{
position = 54;
width = 24;
},
{
position = 429;
width = 24;
},
{
position = 438;
width = 15;
}
);
};
com.typemytype.robofont.layerData = {
background = {
anchors = (
);
components = (
);
contours = (
{
points = (
{
segmentType = line;
smooth = 1;
x = 78;
y = 131;
},
{
smooth = 0;
x = 78;
y = 46;
},
{
smooth = 0;
x = 138;
y = 19;
},
{
segmentType = curve;
smooth = 1;
x = 187;
y = 18;
},
{
smooth = 0;
x = 267;
y = 16;
},
{
smooth = 0;
x = 429;
y = 78;
},
{
segmentType = curve;
smooth = 0;
x = 429;
y = 78;
},
{
segmentType = line;
smooth = 0;
x = 429;
y = 306;
},
{
segmentType = line;
smooth = 1;
x = 187;
y = 296;
},
{
smooth = 0;
x = 106;
y = 293;
},
{
smooth = 0;
x = 78;
y = 248;
},
{
segmentType = curve;
smooth = 1;
x = 78;
y = 187;
}
);
},
{
points = (
{
segmentType = curve;
smooth = 1;
x = 54;
y = 126;
},
{
segmentType = line;
smooth = 1;
x = 54;
y = 187;
},
{
smooth = 0;
x = 54;
y = 272;
},
{
smooth = 0;
x = 105;
y = 320;
},
{
segmentType = curve;
smooth = 1;
x = 187;
y = 320;
},
{
smooth = 0;
x = 187;
y = 320;
},
{
smooth = 0;
x = 429;
y = 319;
},
{
segmentType = curve;
smooth = 1;
x = 429;
y = 320;
},
{
smooth = 0;
x = 429;
y = 320;
},
{
smooth = 0;
x = 430;
y = 386;
},
{
segmentType = curve;
smooth = 0;
x = 429;
y = 387;
},
{
smooth = 0;
x = 429;
y = 456;
},
{
smooth = 0;
x = 400;
y = 518;
},
{
segmentType = curve;
smooth = 1;
x = 299;
y = 519;
},
{
smooth = 0;
x = 227;
y = 520;
},
{
smooth = 0;
x = 162;
y = 510;
},
{
segmentType = curve;
smooth = 0;
x = 71;
y = 496;
},
{
segmentType = line;
smooth = 0;
x = 71;
y = 510;
},
{
smooth = 0;
x = 128;
y = 524;
},
{
smooth = 0;
x = 200;
y = 540;
},
{
segmentType = curve;
smooth = 1;
x = 300;
y = 541;
},
{
smooth = 0;
x = 383;
y = 542;
},
{
smooth = 0;
x = 453;
y = 497;
},
{
segmentType = curve;
smooth = 1;
x = 453;
y = 387;
},
{
segmentType = line;
smooth = 0;
x = 453;
y = 0;
},
{
segmentType = line;
smooth = 0;
x = 438;
y = 0;
},
{
segmentType = line;
smooth = 0;
x = 429;
y = 64;
},
{
smooth = 0;
x = 427;
y = 64;
},
{
smooth = 0;
x = 285;
y = -6;
},
{
segmentType = curve;
smooth = 1;
x = 187;
y = -6;
},
{
smooth = 0;
x = 114;
y = -6;
},
{
smooth = 0;
x = 54;
y = 41;
}
);
}
);
lib = {
};
name = a;
unicodes = (
);
width = 540;
};
};
};
},
{
glyphname = ae;
layers = (
{
anchors = (
{
name = top;
position = "{448, 650}";
}
);
background = {
components = (
{
name = a;
},
{
name = e;
transform = "{1, 0, 0, 1, 359, 0}";
}
);
};
layerId = "970D4E8E-4EF0-498B-97F3-F7DEE39AB542";
paths = (
{
closed = 1;
nodes = (
"295.406 -6 OFFCURVE",
"391.539 52.483 OFFCURVE",
"450 118 CURVE",
"477.129 60.727 OFFCURVE",
"518.303 -6 OFFCURVE",
"646 -6 CURVE SMOOTH",
"695 -6 OFFCURVE",
"765.067 -3.799 OFFCURVE",
"823 0 CURVE",
"823 16 LINE",
"646 16 LINE SMOOTH",
"540 16 OFFCURVE",
"451 62 OFFCURVE",
"453 268 CURVE",
"698 268 LINE SMOOTH",
"784 268 OFFCURVE",
"835 287 OFFCURVE",
"835 369 CURVE SMOOTH",
"835 497.291 OFFCURVE",
"766 537 OFFCURVE",
"632 537 CURVE SMOOTH",
"541 537 OFFCURVE",
"470.549 515.049 OFFCURVE",
"448 427 CURVE",
"428.711 508.441 OFFCURVE",
"359 542 OFFCURVE",
"280 541 CURVE SMOOTH",
"190 540 OFFCURVE",
"148 538 OFFCURVE",
"104 535 CURVE",
"104 519 LINE",
"279 519 LINE SMOOTH",
"396 519 OFFCURVE",
"429 456 OFFCURVE",
"429 387 CURVE SMOOTH",
"429 290 LINE",
"207 290 LINE SMOOTH",
"112.841 290 OFFCURVE",
"54 241.278 OFFCURVE",
"54 155 CURVE SMOOTH",
"54 130 LINE SMOOTH",
"54 41 OFFCURVE",
"104 -6 OFFCURVE",
"187 -6 CURVE SMOOTH"
);
},
{
closed = 1;
nodes = (
"130 18 OFFCURVE",
"78 46 OFFCURVE",
"78 131 CURVE SMOOTH",
"78 155 LINE SMOOTH",
"78 218.239 OFFCURVE",
"111.583 268 OFFCURVE",
"207 268 CURVE SMOOTH",
"429 268 LINE",
"430 206 OFFCURVE",
"439 163 OFFCURVE",
"444 139 CURVE",
"373 62 OFFCURVE",
"277 18 OFFCURVE",
"187 18 CURVE SMOOTH"
);
},
{
closed = 1;
nodes = (
"455 477 OFFCURVE",
"495 515 OFFCURVE",
"633 515 CURVE SMOOTH",
"770 515 OFFCURVE",
"811 472.546 OFFCURVE",
"811 369 CURVE SMOOTH",
"811 295 OFFCURVE",
"761 290 OFFCURVE",
"698 290 CURVE SMOOTH",
"453 290 LINE"
);
}
);
width = 905;
},
{
anchors = (
{
name = top;
position = "{420, 650}";
}
);
background = {
components = (
{
name = a;
transform = "{1, 0, 0, 1, 4, 0}";
},
{
name = e;
transform = "{1, 0, 0, 1, 288, 0}";
}
);
};
layerId = "63BEBE16-5EEB-4E8E-8514-0A5E9B1E5A6A";
paths = (
{
closed = 1;
nodes = (
"261 -6 OFFCURVE",
"331 34 OFFCURVE",
"367 70 CURVE",
"397 23 OFFCURVE",
"474 -6 OFFCURVE",
"542 -6 CURVE SMOOTH",
"625 -6 OFFCURVE",
"703 0 OFFCURVE",
"773 25 CURVE",
"773 138 LINE",
"642 138 LINE SMOOTH",
"555.706 138 OFFCURVE",
"513 143.997 OFFCURVE",
"511 203 CURVE",
"594 203 LINE SMOOTH",
"722.432 203 OFFCURVE",
"792 240 OFFCURVE",
"792 349 CURVE SMOOTH",
"792 507 OFFCURVE",
"730 548 OFFCURVE",
"581 548 CURVE SMOOTH",
"506 548 OFFCURVE",
"459 523 OFFCURVE",
"422 501 CURVE",
"387 524 OFFCURVE",
"328 545 OFFCURVE",
"253 545 CURVE SMOOTH",
"181 545 OFFCURVE",
"125 531 OFFCURVE",
"62 506 CURVE",
"62 395 LINE",
"232 395 LINE SMOOTH",
"297 395 OFFCURVE",
"322 387 OFFCURVE",
"322 347 CURVE SMOOTH",
"322 326 LINE",
"216 326 LINE SMOOTH",
"77 326 OFFCURVE",
"30 259 OFFCURVE",
"30 184 CURVE SMOOTH",
"30 133 LINE SMOOTH",
"30 67 OFFCURVE",
"64 -6 OFFCURVE",
"175 -6 CURVE SMOOTH"
);
},
{
closed = 1;
nodes = (
"246 126 OFFCURVE",
"224 132.364 OFFCURVE",
"224 166 CURVE SMOOTH",
"224 185 LINE SMOOTH",
"224 201 OFFCURVE",
"233.99 219.808 OFFCURVE",
"256 224 CURVE SMOOTH",
"319 236 LINE",
"319 199.098 OFFCURVE",
"323.61 164.249 OFFCURVE",
"329 147 CURVE",
"313.962 137.333 OFFCURVE",
"294 126 OFFCURVE",
"271 126 CURVE SMOOTH"
);
},
{
closed = 1;
nodes = (
"511 379.494 OFFCURVE",
"518.714 404 OFFCURVE",
"565 404 CURVE SMOOTH",
"595.14 404 OFFCURVE",
"619 396.857 OFFCURVE",
"619 354 CURVE SMOOTH",
"619 340.4 OFFCURVE",
"615.9 322 OFFCURVE",
"588 322 CURVE SMOOTH",
"511 322 LINE"
);
}
);
width = 832;
}
);
leftKerningGroup = ae;
note = "\012    GF Latin Plus glyph\012  ";
rightKerningGroup = e;
unicode = 00E6;
userData = {
com.fontlab.hintData = {
hhints = (
{
position = -6;
width = 24;
},
{
position = 262;
width = 23;
},
{
position = 510;
width = 24;
},
{
position = 519;
width = 22;
}
);
vhints = (
{
position = 54;
width = 24;
},
{
position = 429;
width = 25;
},
{
position = 811;
width = 24;
}
);
};
com.typemytype.robofont.layerData = {
background = {
anchors = (
);
components = (
{
baseGlyph = a;
transformation = (
1,
0,
0,
1,
0,
0
);
},
{
baseGlyph = e;
transformation = (
1,
0,
0,
1,
359,
0
);
}
);
contours = (
);
lib = {
};
name = ae;
unicodes = (
);
width = 905;
};
};
};
},
{
glyphname = b;
layers = (
{
anchors = (
{
name = top;
position = "{103, 850}";
}
);
background = {
components = (
{
name = q;
transform = "{-1, 0, 0, -1, 572, 531}";
}
);
paths = (
{
closed = 1;
nodes = (
"114 73 LINE",
"167 46 OFFCURVE",
"231 18 OFFCURVE",
"310 18 CURVE SMOOTH",
"395 18 OFFCURVE",
"471 89 OFFCURVE",
"471 263 CURVE SMOOTH",
"471 468 OFFCURVE",
"394 515 OFFCURVE",
"310 515 CURVE SMOOTH",
"233 515 OFFCURVE",
"183 503 OFFCURVE",
"114 485 CURVE"
);
},
{
closed = 1;
nodes = (
"91 0 LINE",
"91 785 LINE",
"113 785 LINE",
"113 499 LINE",
"177 525 OFFCURVE",
"265 539 OFFCURVE",
"310 539 CURVE SMOOTH",
"461 539 OFFCURVE",
"495 399 OFFCURVE",
"495 263 CURVE SMOOTH",
"495 141 OFFCURVE",
"455 -6 OFFCURVE",
"310 -6 CURVE SMOOTH",
"242 -6 OFFCURVE",
"140 35 OFFCURVE",
"114 59 CURVE",
"104 0 LINE"
);
}
);
};
layerId = "970D4E8E-4EF0-498B-97F3-F7DEE39AB542";
paths = (
{
closed = 1;
nodes = (
"451 -6 OFFCURVE",
"502 108 OFFCURVE",
"502 263 CURVE SMOOTH",
"502 469 OFFCURVE",
"431 537 OFFCURVE",
"310 537 CURVE SMOOTH",
"253 537 OFFCURVE",
"174 509 OFFCURVE",
"115 474 CURVE",
"115 763 LINE",
"91 763 LINE",
"91 0 LINE",
"107 0 LINE",
"115 57 LINE",
"156 31 OFFCURVE",
"232 -6 OFFCURVE",
"310 -6 CURVE SMOOTH"
);
},
{
closed = 1;
nodes = (
"231 16 OFFCURVE",
"168 46 OFFCURVE",
"115 73 CURVE",
"115 458 LINE",
"183 493 OFFCURVE",
"233 515 OFFCURVE",
"310 515 CURVE SMOOTH",
"411 515 OFFCURVE",
"478 468 OFFCURVE",
"478 263 CURVE SMOOTH",
"478 109 OFFCURVE",
"425 16 OFFCURVE",
"310 16 CURVE SMOOTH"
);
}
);
width = 572;
},
{
anchors = (
{
name = top;
position = "{141, 850}";
}
);
background = {
components = (
{
name = q;
transform = "{-1, 0, 0, -1, 590, 542}";
}
);
paths = (
{
closed = 1;
nodes = (
"239 173 LINE",
"249 156 OFFCURVE",
"273 151 OFFCURVE",
"304 151 CURVE SMOOTH",
"333 151 OFFCURVE",
"348 164 OFFCURVE",
"348 273 CURVE SMOOTH",
"348 386 OFFCURVE",
"332 400 OFFCURVE",
"304 400 CURVE SMOOTH",
"279 400 OFFCURVE",
"249 396 OFFCURVE",
"239 385 CURVE"
);
},
{
closed = 1;
nodes = (
"44 0 LINE",
"44 785 LINE",
"238 785 LINE",
"238 509 LINE",
"274 528 OFFCURVE",
"325 539 OFFCURVE",
"370 539 CURVE SMOOTH",
"514 539 OFFCURVE",
"542 452 OFFCURVE",
"542 263 CURVE SMOOTH",
"542 70 OFFCURVE",
"489 -6 OFFCURVE",
"370 -6 CURVE SMOOTH",
"311 -6 OFFCURVE",
"278 16 OFFCURVE",
"239 49 CURVE",
"210 0 LINE"
);
}
);
};
layerId = "63BEBE16-5EEB-4E8E-8514-0A5E9B1E5A6A";
paths = (
{
closed = 1;
nodes = (
"499 -6 OFFCURVE",
"560 72 OFFCURVE",
"560 263 CURVE SMOOTH",
"560 462 OFFCURVE",
"514 548 OFFCURVE",
"370 548 CURVE SMOOTH",
"325 548 OFFCURVE",
"274 528 OFFCURVE",
"238 509 CURVE",
"238 763 LINE",
"44 763 LINE",
"44 0 LINE",
"208 0 LINE",
"238 49 LINE",
"277 16 OFFCURVE",
"311 -6 OFFCURVE",
"380 -6 CURVE SMOOTH"
);
},
{
closed = 1;
nodes = (
"273 151 OFFCURVE",
"252 158 OFFCURVE",
"238 166 CURVE",
"238 373 LINE",
"248 381 OFFCURVE",
"279 393 OFFCURVE",
"304 393 CURVE SMOOTH",
"332 393 OFFCURVE",
"366 386 OFFCURVE",
"366 273 CURVE SMOOTH",
"366 164 OFFCURVE",
"333 151 OFFCURVE",
"304 151 CURVE SMOOTH"
);
}
);
width = 590;
}
);
leftKerningGroup = l;
note = "\012    GF Latin Plus glyph\012  ";
rightKerningGroup = b;
unicode = 0062;
userData = {
com.fontlab.hintData = {
hhints = (
{
position = -6;
width = 24;
},
{
position = 515;
width = 24;
},
{
position = 765;
width = 20;
}
);
vhints = (
{
position = 81;
width = 23;
},
{
position = 81;
width = 13;
},
{
position = 461;
width = 24;
}
);
};
com.typemytype.robofont.layerData = {
background = {
anchors = (
);
components = (
{
baseGlyph = q;
transformation = (
-1,
0,
0,
-1,
572,
531
);
}
);
contours = (
{
points = (
{
segmentType = line;
smooth = 0;
x = 114;
y = 73;
},
{
smooth = 0;
x = 167;
y = 46;
},
{
smooth = 0;
x = 231;
y = 18;
},
{
segmentType = curve;
smooth = 1;
x = 310;
y = 18;
},
{
smooth = 0;
x = 395;
y = 18;
},
{
smooth = 0;
x = 471;
y = 89;
},
{
segmentType = curve;
smooth = 1;
x = 471;
y = 263;
},
{
smooth = 0;
x = 471;
y = 468;
},
{
smooth = 0;
x = 394;
y = 515;
},
{
segmentType = curve;
smooth = 1;
x = 310;
y = 515;
},
{
smooth = 0;
x = 233;
y = 515;
},
{
smooth = 0;
x = 183;
y = 503;
},
{
segmentType = curve;
smooth = 0;
x = 114;
y = 485;
}
);
},
{
points = (
{
segmentType = line;
smooth = 0;
x = 91;
y = 0;
},
{
segmentType = line;
smooth = 0;
x = 91;
y = 785;
},
{
segmentType = line;
smooth = 0;
x = 113;
y = 785;
},
{
segmentType = line;
smooth = 0;
x = 113;
y = 499;
},
{
smooth = 0;
x = 177;
y = 525;
},
{
smooth = 0;
x = 265;
y = 539;
},
{
segmentType = curve;
smooth = 1;
x = 310;
y = 539;
},
{
smooth = 0;
x = 461;
y = 539;
},
{
smooth = 0;
x = 495;
y = 399;
},
{
segmentType = curve;
smooth = 1;
x = 495;
y = 263;
},
{
smooth = 0;
x = 495;
y = 141;
},
{
smooth = 0;
x = 455;
y = -6;
},
{
segmentType = curve;
smooth = 1;
x = 310;
y = -6;
},
{
smooth = 0;
x = 242;
y = -6;
},
{
smooth = 0;
x = 140;
y = 35;
},
{
segmentType = curve;
smooth = 0;
x = 114;
y = 59;
},
{
segmentType = line;
smooth = 0;
x = 104;
y = 0;
}
);
}
);
lib = {
};
name = b;
unicodes = (
);
width = 572;
};
};
};
},
{
glyphname = c;
layers = (
{
anchors = (
{
name = bottom;
position = "{270, -150}";
},
{
name = top;
position = "{270, 650}";
}
);
background = {
paths = (
{
closed = 1;
nodes = (
"68 266 CURVE SMOOTH",
"68 498 OFFCURVE",
"140 536 OFFCURVE",
"242 536 CURVE SMOOTH",
"294 536 OFFCURVE",
"378 524 OFFCURVE",
"440 510 CURVE",
"440 496 LINE",
"440 496 OFFCURVE",
"331 512 OFFCURVE",
"242 512 CURVE SMOOTH",
"151 512 OFFCURVE",
"92 478 OFFCURVE",
"92 262 CURVE SMOOTH",
"92 56 OFFCURVE",
"156 19 OFFCURVE",
"242 19 CURVE SMOOTH",
"334 19 OFFCURVE",
"448 40 OFFCURVE",
"448 40 CURVE",
"448 24 LINE",
"367 1 OFFCURVE",
"325 -4 OFFCURVE",
"242 -5 CURVE",
"143 -5 OFFCURVE",
"68 33 OFFCURVE"
);
}
);
};
layerId = "970D4E8E-4EF0-498B-97F3-F7DEE39AB542";
paths = (
{
closed = 1;
nodes = (
"344.939 -6 OFFCURVE",
"405.093 -1.796 OFFCURVE",
"450 0 CURVE",
"450 16 LINE",
"274 16 LINE SMOOTH",
"172.75 16 OFFCURVE",
"94 63 OFFCURVE",
"94 262 CURVE SMOOTH",
"94 470 OFFCURVE",
"164.941 514 OFFCURVE",
"274 514 CURVE SMOOTH",
"442 514 LINE",
"442 530 LINE",
"391.017 533.777 OFFCURVE",
"318.36 536 OFFCURVE",
"274 536 CURVE SMOOTH",
"154.124 536 OFFCURVE",
"70 488 OFFCURVE",
"70 266 CURVE SMOOTH",
"70 42 OFFCURVE",
"158.696 -6 OFFCURVE",
"274 -6 CURVE SMOOTH"
);
}
);
width = 490;
},
{
anchors = (
{
name = bottom;
position = "{270, -150}";
},
{
name = top;
position = "{270, 650}";
}
);
background = {
components = (
{
name = o;
transform = "{1, 0, 0, 1, 2, 0}";
}
);
paths = (
{
closed = 1;
nodes = (
"30 266 CURVE SMOOTH",
"30 474 OFFCURVE",
"103 536 OFFCURVE",
"205 536 CURVE SMOOTH",
"257 536 OFFCURVE",
"361 541 OFFCURVE",
"463 500 CURVE",
"463 386 LINE",
"463 386 OFFCURVE",
"403 392 OFFCURVE",
"314 392 CURVE SMOOTH",
"246 392 OFFCURVE",
"224 394 OFFCURVE",
"224 264 CURVE SMOOTH",
"224 142 OFFCURVE",
"242 139 OFFCURVE",
"314 139 CURVE SMOOTH",
"406 139 OFFCURVE",
"470 147 OFFCURVE",
"470 147 CURVE",
"470 33 LINE",
"395 -20 OFFCURVE",
"288 -4 OFFCURVE",
"205 -5 CURVE",
"106 -5 OFFCURVE",
"30 58 OFFCURVE"
);
}
);
};
layerId = "63BEBE16-5EEB-4E8E-8514-0A5E9B1E5A6A";
paths = (
{
closed = 1;
nodes = (
"332 -6 OFFCURVE",
"419 9 OFFCURVE",
"470 30 CURVE",
"470 139 LINE",
"334 139 LINE SMOOTH",
"242 139 OFFCURVE",
"224 157 OFFCURVE",
"224 269 CURVE SMOOTH",
"224 379 OFFCURVE",
"246 406 OFFCURVE",
"332 406 CURVE SMOOTH",
"463 406 LINE",
"463 517 LINE",
"392 540 OFFCURVE",
"341 548 OFFCURVE",
"269 548 CURVE SMOOTH",
"113 548 OFFCURVE",
"30 484 OFFCURVE",
"30 266 CURVE SMOOTH",
"30 58 OFFCURVE",
"126 -6 OFFCURVE",
"263 -6 CURVE SMOOTH"
);
}
);
width = 490;
}
);
leftKerningGroup = c;
note = "\012    GF Latin Plus glyph\012  ";
rightKerningGroup = c;
unicode = 0063;
userData = {
com.fontlab.hintData = {
hhints = (
{
position = -5;
width = 24;
},
{
position = 512;
width = 24;
}
);
vhints = (
{
position = 68;
width = 24;
}
);
};
com.typemytype.robofont.layerData = {
background = {
anchors = (
);
components = (
);
contours = (
{
points = (
{
segmentType = curve;
smooth = 1;
x = 68;
y = 266;
},
{
smooth = 0;
x = 68;
y = 498;
},
{
smooth = 0;
x = 140;
y = 536;
},
{
segmentType = curve;
smooth = 1;
x = 242;
y = 536;
},
{
smooth = 0;
x = 294;
y = 536;
},
{
smooth = 0;
x = 378;
y = 524;
},
{
segmentType = curve;
smooth = 0;
x = 440;
y = 510;
},
{
segmentType = line;
smooth = 0;
x = 440;
y = 496;
},
{
smooth = 0;
x = 440;
y = 496;
},
{
smooth = 0;
x = 331;
y = 512;
},
{
segmentType = curve;
smooth = 1;
x = 242;
y = 512;
},
{
smooth = 0;
x = 151;
y = 512;
},
{
smooth = 0;
x = 92;
y = 478;
},
{
segmentType = curve;
smooth = 1;
x = 92;
y = 262;
},
{
smooth = 0;
x = 92;
y = 56;
},
{
smooth = 0;
x = 156;
y = 19;
},
{
segmentType = curve;
smooth = 1;
x = 242;
y = 19;
},
{
smooth = 0;
x = 334;
y = 19;
},
{
smooth = 0;
x = 448;
y = 40;
},
{
segmentType = curve;
smooth = 0;
x = 448;
y = 40;
},
{
segmentType = line;
smooth = 0;
x = 448;
y = 24;
},
{
smooth = 0;
x = 367;
y = 1;
},
{
smooth = 0;
x = 325;
y = -4;
},
{
segmentType = curve;
smooth = 0;
x = 242;
y = -5;
},
{
smooth = 0;
x = 143;
y = -5;
},
{
smooth = 0;
x = 68;
y = 33;
}
);
}
);
lib = {
};
name = c;
unicodes = (
);
width = 490;
};
};
};
},
{
glyphname = d;
layers = (
{
anchors = (
{
name = altcaron;
position = "{501, 650}";
},
{
name = bottom;
position = "{290, -150}";
},
{
name = top;
position = "{469, 850}";
}
);
background = {
components = (
{
name = o;
}
);
paths = (
{
closed = 1;
nodes = (
"592 263 CURVE SMOOTH",
"592 82 OFFCURVE",
"667 18 OFFCURVE",
"752 18 CURVE SMOOTH",
"831 18 OFFCURVE",
"895 46 OFFCURVE",
"948 73 CURVE",
"948 485 LINE",
"879 503 OFFCURVE",
"829 515 OFFCURVE",
"752 515 CURVE SMOOTH",
"668 515 OFFCURVE",
"592 472 OFFCURVE"
);
},
{
closed = 1;
nodes = (
"568 263 CURVE SMOOTH",
"568 399 OFFCURVE",
"601 539 OFFCURVE",
"752 539 CURVE SMOOTH",
"797 539 OFFCURVE",
"886 525 OFFCURVE",
"950 499 CURVE",
"950 785 LINE",
"971 785 LINE",
"971 0 LINE",
"958 0 LINE",
"948 59 LINE",
"922 35 OFFCURVE",
"820 -6 OFFCURVE",
"752 -6 CURVE SMOOTH",
"607 -6 OFFCURVE",
"568 141 OFFCURVE"
);
}
);
};
layerId = "970D4E8E-4EF0-498B-97F3-F7DEE39AB542";
paths = (
{
closed = 1;
nodes = (
"329.209 -6 OFFCURVE",
"431.072 33.066 OFFCURVE",
"457 57 CURVE",
"465 0 LINE",
"481 0 LINE",
"481 763 LINE",
"457 763 LINE",
"457 501 LINE",
"408.697 517.758 OFFCURVE",
"339.899 537 OFFCURVE",
"272 537 CURVE SMOOTH",
"130 537 OFFCURVE",
"70 461 OFFCURVE",
"70 263 CURVE SMOOTH",
"70 85 OFFCURVE",
"125.912 -6 OFFCURVE",
"262 -6 CURVE SMOOTH"
);
},
{
closed = 1;
nodes = (
"141.848 16 OFFCURVE",
"94 94 OFFCURVE",
"94 263 CURVE SMOOTH",
"94 451 OFFCURVE",
"145 515 OFFCURVE",
"272 515 CURVE SMOOTH",
"344.608 515 OFFCURVE",
"391.333 501.914 OFFCURVE",
"457 485 CURVE",
"457 73 LINE",
"404.215 46.109 OFFCURVE",
"340.568 16 OFFCURVE",
"262 16 CURVE SMOOTH"
);
}
);
width = 568;
},
{
anchors = (
{
name = altcaron;
position = "{567, 650}";
},
{
name = bottom;
position = "{280, -150}";
},
{
name = top;
position = "{449, 850}";
}
);
background = {
components = (
{
name = o;
}
);
paths = (
{
closed = 1;
nodes = (
"222 273 CURVE SMOOTH",
"222 164 OFFCURVE",
"237 151 OFFCURVE",
"266 151 CURVE SMOOTH",
"297 151 OFFCURVE",
"321 156 OFFCURVE",
"331 173 CURVE",
"331 385 LINE",
"321 396 OFFCURVE",
"291 400 OFFCURVE",
"266 400 CURVE SMOOTH",
"238 400 OFFCURVE",
"222 386 OFFCURVE"
);
},
{
closed = 1;
nodes = (
"28 263 CURVE SMOOTH",
"28 460 OFFCURVE",
"56 539 OFFCURVE",
"200 539 CURVE SMOOTH",
"245 539 OFFCURVE",
"296 528 OFFCURVE",
"332 509 CURVE",
"332 785 LINE",
"526 785 LINE",
"526 0 LINE",
"360 0 LINE",
"331 49 LINE",
"292 16 OFFCURVE",
"259 -6 OFFCURVE",
"200 -6 CURVE SMOOTH",
"81 -6 OFFCURVE",
"28 62 OFFCURVE"
);
}
);
};
layerId = "63BEBE16-5EEB-4E8E-8514-0A5E9B1E5A6A";
paths = (
{
closed = 1;
nodes = (
"271 -6 OFFCURVE",
"313.592 15.393 OFFCURVE",
"352 49 CURVE",
"382 0 LINE",
"546 0 LINE",
"546 763 LINE",
"352 763 LINE",
"352 527 LINE",
"318.438 539.12 OFFCURVE",
"274 548 OFFCURVE",
"232 548 CURVE SMOOTH",
"74 548 OFFCURVE",
"30 462 OFFCURVE",
"30 263 CURVE SMOOTH",
"30 62 OFFCURVE",
"100 -6 OFFCURVE",
"222 -6 CURVE SMOOTH"
);
},
{
closed = 1;
nodes = (
"242 149 OFFCURVE",
"224 162.881 OFFCURVE",
"224 273 CURVE SMOOTH",
"224 386 OFFCURVE",
"243 404 OFFCURVE",
"298 404 CURVE SMOOTH",
"316.562 404 OFFCURVE",
"340.438 394.115 OFFCURVE",
"352 387 CURVE",
"352 169 LINE",
"340.993 159.828 OFFCURVE",
"319.507 149 OFFCURVE",
"293 149 CURVE SMOOTH"
);
}
);
width = 588;
}
);
leftKerningGroup = d;
note = "\012    GF Latin Plus glyph\012  ";
rightKerningGroup = d;
unicode = 0064;
userData = {
com.fontlab.hintData = {
hhints = (
{
position = -6;
width = 24;
},
{
position = 515;
width = 24;
},
{
position = 765;
width = 20;
}
);
vhints = (
{
position = 68;
width = 24;
},
{
position = 448;
width = 23;
},
{
position = 458;
width = 13;
}
);
};
com.typemytype.robofont.layerData = {
background = {
anchors = (
);
components = (
{
baseGlyph = o;
transformation = (
1,
0,
0,
1,
0,
0
);
}
);
contours = (
{
points = (
{
segmentType = curve;
smooth = 1;
x = 592;
y = 263;
},
{
smooth = 0;
x = 592;
y = 82;
},
{
smooth = 0;
x = 667;
y = 18;
},
{
segmentType = curve;
smooth = 1;
x = 752;
y = 18;
},
{
smooth = 0;
x = 831;
y = 18;
},
{
smooth = 0;
x = 895;
y = 46;
},
{
segmentType = curve;
smooth = 0;
x = 948;
y = 73;
},
{
segmentType = line;
smooth = 0;
x = 948;
y = 485;
},
{
smooth = 0;
x = 879;
y = 503;
},
{
smooth = 0;
x = 829;
y = 515;
},
{
segmentType = curve;
smooth = 1;
x = 752;
y = 515;
},
{
smooth = 0;
x = 668;
y = 515;
},
{
smooth = 0;
x = 592;
y = 472;
}
);
},
{
points = (
{
segmentType = curve;
smooth = 1;
x = 568;
y = 263;
},
{
smooth = 0;
x = 568;
y = 399;
},
{
smooth = 0;
x = 601;
y = 539;
},
{
segmentType = curve;
smooth = 1;
x = 752;
y = 539;
},
{
smooth = 0;
x = 797;
y = 539;
},
{
smooth = 0;
x = 886;
y = 525;
},
{
segmentType = curve;
smooth = 0;
x = 950;
y = 499;
},
{
segmentType = line;
smooth = 0;
x = 950;
y = 785;
},
{
segmentType = line;
smooth = 0;
x = 971;
y = 785;
},
{
segmentType = line;
smooth = 0;
x = 971;
y = 0;
},
{
segmentType = line;
smooth = 0;
x = 958;
y = 0;
},
{
segmentType = line;
smooth = 0;
x = 948;
y = 59;
},
{
smooth = 0;
x = 922;
y = 35;
},
{
smooth = 0;
x = 820;
y = -6;
},
{
segmentType = curve;
smooth = 1;
x = 752;
y = -6;
},
{
smooth = 0;
x = 607;
y = -6;
},
{
smooth = 0;
x = 568;
y = 141;
}
);
}
);
lib = {
};
name = d;
unicodes = (
);
width = 568;
};
};
};
},
{
glyphname = eth;
layers = (
{
background = {
paths = (
{
closed = 1;
nodes = (
"104 264 CURVE SMOOTH",
"104 63 OFFCURVE",
"161 26 OFFCURVE",
"258 26 CURVE SMOOTH",
"328 26 LINE SMOOTH",
"454 26 OFFCURVE",
"484 133 OFFCURVE",
"484 264 CURVE SMOOTH",
"484 374 OFFCURVE",
"471 507 OFFCURVE",
"328 507 CURVE SMOOTH",
"258 507 LINE SMOOTH",
"169 507 OFFCURVE",
"104 466 OFFCURVE"
);
},
{
closed = 1;
nodes = (
"80 264 CURVE SMOOTH",
"80 434 OFFCURVE",
"123 531 OFFCURVE",
"258 531 CURVE SMOOTH",
"328 531 LINE SMOOTH",
"415 531 OFFCURVE",
"459 484 OFFCURVE",
"468 465 CURVE",
"457 523 OFFCURVE",
"433 617 OFFCURVE",
"366 684 CURVE",
"205 620 LINE",
"200 634 LINE",
"354 695 LINE",
"308 734 OFFCURVE",
"251 761 OFFCURVE",
"164 762 CURVE",
"164 783 LINE",
"260 783 OFFCURVE",
"326 751 OFFCURVE",
"378 704 CURVE",
"506 755 LINE",
"512 741 LINE",
"390 693 LINE",
"487 590 OFFCURVE",
"508 415 OFFCURVE",
"508 264 CURVE SMOOTH",
"508 65 OFFCURVE",
"435 0 OFFCURVE",
"328 0 CURVE SMOOTH",
"258 0 LINE SMOOTH",
"121 0 OFFCURVE",
"80 85 OFFCURVE"
);
}
);
};
layerId = "970D4E8E-4EF0-498B-97F3-F7DEE39AB542";
paths = (
{
closed = 1;
nodes = (
"425 -6 OFFCURVE",
"508 36 OFFCURVE",
"508 266 CURVE SMOOTH",
"508 333 OFFCURVE",
"492 379 OFFCURVE",
"479 417 CURVE SMOOTH",
"448 515 OFFCURVE",
"385 537 OFFCURVE",
"288 537 CURVE SMOOTH",
"151 537 OFFCURVE",
"70 496 OFFCURVE",
"70 266 CURVE SMOOTH",
"70 36 OFFCURVE",
"151 -6 OFFCURVE",
"288 -6 CURVE SMOOTH"
);
},
{
closed = 1;
nodes = (
"165 16 OFFCURVE",
"94 46 OFFCURVE",
"94 266 CURVE SMOOTH",
"94 486 OFFCURVE",
"165 515 OFFCURVE",
"288 515 CURVE SMOOTH",
"411 515 OFFCURVE",
"484 486 OFFCURVE",
"484 266 CURVE SMOOTH",
"484 46 OFFCURVE",
"411 16 OFFCURVE",
"288 16 CURVE SMOOTH"
);
},
{
closed = 1;
nodes = (
"508 636 OFFCURVE",
"358 745 OFFCURVE",
"164 769 CURVE",
"164 749 LINE",
"353 725 OFFCURVE",
"486 623 OFFCURVE",
"486 264 CURVE",
"508 264 LINE"
);
},
{
closed = 1;
nodes = (
"512 726 LINE",
"506 741 LINE",
"200 620 LINE",
"205 605 LINE"
);
}
);
width = 578;
},
{
background = {
paths = (
{
closed = 1;
nodes = (
"240 264 CURVE SMOOTH",
"240 192 OFFCURVE",
"240 176 OFFCURVE",
"282 176 CURVE SMOOTH",
"310 176 LINE SMOOTH",
"350 176 OFFCURVE",
"350 184 OFFCURVE",
"350 264 CURVE SMOOTH",
"350 352 OFFCURVE",
"350 357 OFFCURVE",
"310 357 CURVE SMOOTH",
"282 357 LINE SMOOTH",
"248 357 OFFCURVE",
"240 342 OFFCURVE"
);
},
{
closed = 1;
nodes = (
"46 264 CURVE SMOOTH",
"46 434 OFFCURVE",
"105 531 OFFCURVE",
"240 531 CURVE SMOOTH",
"260 531 LINE SMOOTH",
"266 531 OFFCURVE",
"320 531 OFFCURVE",
"340 526 CURVE",
"331 557 OFFCURVE",
"316 578 OFFCURVE",
"296 594 CURVE",
"208 544 LINE",
"176 600 LINE",
"218 624 LINE",
"185 629 OFFCURVE",
"144 629 OFFCURVE",
"96 628 CURVE",
"96 783 LINE",
"230 783 OFFCURVE",
"323 762 OFFCURVE",
"390 722 CURVE",
"462 762 LINE",
"494 706 LINE",
"446 679 LINE",
"528 594 OFFCURVE",
"544 455 OFFCURVE",
"544 264 CURVE SMOOTH",
"544 65 OFFCURVE",
"457 0 OFFCURVE",
"350 0 CURVE SMOOTH",
"240 0 LINE SMOOTH",
"103 0 OFFCURVE",
"46 85 OFFCURVE"
);
}
);
};
layerId = "63BEBE16-5EEB-4E8E-8514-0A5E9B1E5A6A";
paths = (
{
closed = 1;
nodes = (
"484 -5 OFFCURVE",
"544 64 OFFCURVE",
"544 271 CURVE SMOOTH",
"544 366.137 OFFCURVE",
"470.827 401.282 OFFCURVE",
"418 459 CURVE",
"395.852 497.759 OFFCURVE",
"339 525 OFFCURVE",
"259 525 CURVE SMOOTH",
"115 525 OFFCURVE",
"30 469.117 OFFCURVE",
"30 261 CURVE SMOOTH",
"30 68.246 OFFCURVE",
"94 -5 OFFCURVE",
"287 -5 CURVE SMOOTH"
);
},
{
closed = 1;
nodes = (
"237 149 OFFCURVE",
"224 158.187 OFFCURVE",
"224 262 CURVE SMOOTH",
"224 364.82 OFFCURVE",
"237 374 OFFCURVE",
"287 374 CURVE SMOOTH",
"337 374 OFFCURVE",
"350 364.82 OFFCURVE",
"350 262 CURVE SMOOTH",
"350 158.187 OFFCURVE",
"337 149 OFFCURVE",
"287 149 CURVE SMOOTH"
);
},
{
closed = 1;
nodes = (
"544 638 OFFCURVE",
"447 763 OFFCURVE",
"114 763 CURVE",
"114 649 LINE",
"308 649 OFFCURVE",
"370 576 OFFCURVE",
"370 345 CURVE",
"544 272 LINE"
);
},
{
closed = 1;
nodes = (
"532 686 LINE",
"509 747 LINE",
"115 596 LINE",
"138 536 LINE"
);
}
);
width = 574;
}
);
note = "\012    GF Latin Plus glyph\012  ";
unicode = 00F0;
userData = {
com.fontlab.hintData = {
hhints = (
{
position = 0;
width = 26;
},
{
position = 507;
width = 24;
},
{
position = 762;
width = 21;
}
);
vhints = (
{
position = 54;
width = 24;
},
{
position = 458;
width = 24;
}
);
};
com.typemytype.robofont.layerData = {
background = {
anchors = (
);
components = (
);
contours = (
{
points = (
{
segmentType = curve;
smooth = 1;
x = 104;
y = 264;
},
{
smooth = 0;
x = 104;
y = 63;
},
{
smooth = 0;
x = 161;
y = 26;
},
{
segmentType = curve;
smooth = 1;
x = 258;
y = 26;
},
{
segmentType = line;
smooth = 1;
x = 328;
y = 26;
},
{
smooth = 0;
x = 454;
y = 26;
},
{
smooth = 0;
x = 484;
y = 133;
},
{
segmentType = curve;
smooth = 1;
x = 484;
y = 264;
},
{
smooth = 0;
x = 484;
y = 374;
},
{
smooth = 0;
x = 471;
y = 507;
},
{
segmentType = curve;
smooth = 1;
x = 328;
y = 507;
},
{
segmentType = line;
smooth = 1;
x = 258;
y = 507;
},
{
smooth = 0;
x = 169;
y = 507;
},
{
smooth = 0;
x = 104;
y = 466;
}
);
},
{
points = (
{
segmentType = curve;
smooth = 1;
x = 80;
y = 264;
},
{
smooth = 0;
x = 80;
y = 434;
},
{
smooth = 0;
x = 123;
y = 531;
},
{
segmentType = curve;
smooth = 1;
x = 258;
y = 531;
},
{
segmentType = line;
smooth = 1;
x = 328;
y = 531;
},
{
smooth = 0;
x = 415;
y = 531;
},
{
smooth = 0;
x = 459;
y = 484;
},
{
segmentType = curve;
smooth = 0;
x = 468;
y = 465;
},
{
smooth = 0;
x = 457;
y = 523;
},
{
smooth = 0;
x = 433;
y = 617;
},
{
segmentType = curve;
smooth = 0;
x = 366;
y = 684;
},
{
segmentType = line;
smooth = 0;
x = 205;
y = 620;
},
{
segmentType = line;
smooth = 0;
x = 200;
y = 634;
},
{
segmentType = line;
smooth = 0;
x = 354;
y = 695;
},
{
smooth = 0;
x = 308;
y = 734;
},
{
smooth = 0;
x = 251;
y = 761;
},
{
segmentType = curve;
smooth = 0;
x = 164;
y = 762;
},
{
segmentType = line;
smooth = 0;
x = 164;
y = 783;
},
{
smooth = 0;
x = 260;
y = 783;
},
{
smooth = 0;
x = 326;
y = 751;
},
{
segmentType = curve;
smooth = 0;
x = 378;
y = 704;
},
{
segmentType = line;
smooth = 0;
x = 506;
y = 755;
},
{
segmentType = line;
smooth = 0;
x = 512;
y = 741;
},
{
segmentType = line;
smooth = 0;
x = 390;
y = 693;
},
{
smooth = 0;
x = 487;
y = 590;
},
{
smooth = 0;
x = 508;
y = 415;
},
{
segmentType = curve;
smooth = 1;
x = 508;
y = 264;
},
{
smooth = 0;
x = 508;
y = 65;
},
{
smooth = 0;
x = 435;
y = 0;
},
{
segmentType = curve;
smooth = 1;
x = 328;
y = 0;
},
{
segmentType = line;
smooth = 1;
x = 258;
y = 0;
},
{
smooth = 0;
x = 121;
y = 0;
},
{
smooth = 0;
x = 80;
y = 85;
}
);
}
);
lib = {
};
name = eth;
unicodes = (
);
width = 578;
};
};
};
},
{
glyphname = dcroat;
layers = (
{
background = {
paths = (
{
closed = 1;
nodes = (
"92 263 CURVE SMOOTH",
"92 89 OFFCURVE",
"168 18 OFFCURVE",
"253 18 CURVE SMOOTH",
"332 18 OFFCURVE",
"396 46 OFFCURVE",
"449 73 CURVE",
"449 485 LINE",
"380 503 OFFCURVE",
"330 515 OFFCURVE",
"253 515 CURVE SMOOTH",
"169 515 OFFCURVE",
"92 468 OFFCURVE"
);
},
{
closed = 1;
nodes = (
"68 263 CURVE SMOOTH",
"68 399 OFFCURVE",
"102 539 OFFCURVE",
"253 539 CURVE SMOOTH",
"298 539 OFFCURVE",
"386 525 OFFCURVE",
"450 499 CURVE",
"450 641 LINE",
"318 641 LINE",
"318 655 LINE",
"450 655 LINE",
"450 785 LINE",
"472 785 LINE",
"472 655 LINE",
"555 655 LINE",
"555 641 LINE",
"472 641 LINE",
"472 0 LINE",
"459 0 LINE",
"449 59 LINE",
"423 35 OFFCURVE",
"321 -6 OFFCURVE",
"253 -6 CURVE SMOOTH",
"108 -6 OFFCURVE",
"68 141 OFFCURVE"
);
}
);
};
components = (
{
name = d;
}
);
layerId = "970D4E8E-4EF0-498B-97F3-F7DEE39AB542";
paths = (
{
closed = 1;
nodes = (
"558 640 LINE",
"558 656 LINE",
"300 656 LINE",
"300 640 LINE"
);
}
);
width = 568;
},
{
background = {
paths = (
{
closed = 1;
nodes = (
"216 273 CURVE SMOOTH",
"216 164 OFFCURVE",
"231 151 OFFCURVE",
"260 151 CURVE SMOOTH",
"291 151 OFFCURVE",
"316 156 OFFCURVE",
"326 173 CURVE",
"326 385 LINE",
"316 396 OFFCURVE",
"285 400 OFFCURVE",
"260 400 CURVE SMOOTH",
"232 400 OFFCURVE",
"216 386 OFFCURVE"
);
},
{
closed = 1;
nodes = (
"22 263 CURVE SMOOTH",
"22 460 OFFCURVE",
"50 539 OFFCURVE",
"194 539 CURVE SMOOTH",
"239 539 OFFCURVE",
"290 528 OFFCURVE",
"326 509 CURVE",
"326 596 LINE",
"232 596 LINE",
"232 670 LINE",
"326 670 LINE",
"326 785 LINE",
"520 785 LINE",
"520 670 LINE",
"580 670 LINE",
"580 596 LINE",
"520 596 LINE",
"520 0 LINE",
"354 0 LINE",
"326 49 LINE",
"287 16 OFFCURVE",
"253 -6 OFFCURVE",
"194 -6 CURVE SMOOTH",
"75 -6 OFFCURVE",
"22 62 OFFCURVE"
);
}
);
};
components = (
{
name = d;
}
);
layerId = "63BEBE16-5EEB-4E8E-8514-0A5E9B1E5A6A";
paths = (
{
closed = 1;
nodes = (
"598 606 LINE",
"598 680 LINE",
"250 680 LINE",
"250 606 LINE"
);
}
);
width = 588;
}
);
leftKerningGroup = d;
note = "\012    GF Latin Plus glyph\012  ";
rightKerningGroup = d;
unicode = 0111;
userData = {
com.fontlab.hintData = {
hhints = (
{
position = -6;
width = 24;
},
{
position = 515;
width = 24;
},
{
position = 641;
width = 14;
},
{
position = 765;
width = 20;
}
);
vhints = (
{
position = 68;
width = 24;
},
{
position = 450;
width = 22;
},
{
position = 459;
width = 13;
}
);
};
com.typemytype.robofont.layerData = {
background = {
anchors = (
);
components = (
);
contours = (
{
points = (
{
segmentType = curve;
smooth = 1;
x = 92;
y = 263;
},
{
smooth = 0;
x = 92;
y = 89;
},
{
smooth = 0;
x = 168;
y = 18;
},
{
segmentType = curve;
smooth = 1;
x = 253;
y = 18;
},
{
smooth = 0;
x = 332;
y = 18;
},
{
smooth = 0;
x = 396;
y = 46;
},
{
segmentType = curve;
smooth = 0;
x = 449;
y = 73;
},
{
segmentType = line;
smooth = 0;
x = 449;
y = 485;
},
{
smooth = 0;
x = 380;
y = 503;
},
{
smooth = 0;
x = 330;
y = 515;
},
{
segmentType = curve;
smooth = 1;
x = 253;
y = 515;
},
{
smooth = 0;
x = 169;
y = 515;
},
{
smooth = 0;
x = 92;
y = 468;
}
);
},
{
points = (
{
segmentType = curve;
smooth = 1;
x = 68;
y = 263;
},
{
smooth = 0;
x = 68;
y = 399;
},
{
smooth = 0;
x = 102;
y = 539;
},
{
segmentType = curve;
smooth = 1;
x = 253;
y = 539;
},
{
smooth = 0;
x = 298;
y = 539;
},
{
smooth = 0;
x = 386;
y = 525;
},
{
segmentType = curve;
smooth = 0;
x = 450;
y = 499;
},
{
segmentType = line;
smooth = 0;
x = 450;
y = 641;
},
{
segmentType = line;
smooth = 0;
x = 318;
y = 641;
},
{
segmentType = line;
smooth = 0;
x = 318;
y = 655;
},
{
segmentType = line;
smooth = 0;
x = 450;
y = 655;
},
{
segmentType = line;
smooth = 0;
x = 450;
y = 785;
},
{
segmentType = line;
smooth = 0;
x = 472;
y = 785;
},
{
segmentType = line;
smooth = 0;
x = 472;
y = 655;
},
{
segmentType = line;
smooth = 0;
x = 555;
y = 655;
},
{
segmentType = line;
smooth = 0;
x = 555;
y = 641;
},
{
segmentType = line;
smooth = 0;
x = 472;
y = 641;
},
{
segmentType = line;
smooth = 0;
x = 472;
y = 0;
},
{
segmentType = line;
smooth = 0;
x = 459;
y = 0;
},
{
segmentType = line;
smooth = 0;
x = 449;
y = 59;
},
{
smooth = 0;
x = 423;
y = 35;
},
{
smooth = 0;
x = 321;
y = -6;
},
{
segmentType = curve;
smooth = 1;
x = 253;
y = -6;
},
{
smooth = 0;
x = 108;
y = -6;
},
{
smooth = 0;
x = 68;
y = 141;
}
);
}
);
lib = {
};
name = dcroat;
unicodes = (
);
width = 568;
};
};
};
},
{
glyphname = e;
layers = (
{
anchors = (
{
name = bottom;
position = "{270, -150}";
},
{
name = ogonek;
position = "{454, 23}";
},
{
name = top;
position = "{270, 650}";
}
);
background = {
components = (
{
name = c;
}
);
paths = (
{
closed = 1;
nodes = (
"592 273 CURVE",
"836 273 LINE SMOOTH",
"892 273 OFFCURVE",
"948 277 OFFCURVE",
"948 347 CURVE SMOOTH",
"948 497 OFFCURVE",
"888 511 OFFCURVE",
"770 511 CURVE SMOOTH",
"631 511 OFFCURVE",
"592 481 OFFCURVE"
);
},
{
closed = 1;
nodes = (
"568 268 CURVE SMOOTH",
"568 502 OFFCURVE",
"622 535 OFFCURVE",
"770 535 CURVE SMOOTH",
"891 535 OFFCURVE",
"972 523 OFFCURVE",
"972 347 CURVE SMOOTH",
"972 268 OFFCURVE",
"922 250 OFFCURVE",
"836 250 CURVE SMOOTH",
"592 250 LINE",
"592 48 OFFCURVE",
"655 19 OFFCURVE",
"742 19 CURVE SMOOTH",
"834 19 OFFCURVE",
"887 28 OFFCURVE",
"962 39 CURVE",
"962 23 LINE",
"881 0 OFFCURVE",
"825 -6 OFFCURVE",
"742 -5 CURVE SMOOTH",
"606 -3 OFFCURVE",
"568 72 OFFCURVE"
);
}
);
};
layerId = "970D4E8E-4EF0-498B-97F3-F7DEE39AB542";
paths = (
{
closed = 1;
nodes = (
"347.276 -6 OFFCURVE",
"396.604 -4.746 OFFCURVE",
"464 0 CURVE",
"464 16 LINE",
"280 16 LINE SMOOTH",
"128.875 16 OFFCURVE",
"94 79 OFFCURVE",
"94 251 CURVE",
"338 251 LINE SMOOTH",
"422 251 OFFCURVE",
"474 284 OFFCURVE",
"474 367 CURVE SMOOTH",
"474 496 OFFCURVE",
"410 537 OFFCURVE",
"283 537 CURVE SMOOTH",
"127 537 OFFCURVE",
"70 476 OFFCURVE",
"70 268 CURVE SMOOTH",
"70 63 OFFCURVE",
"117.273 -6 OFFCURVE",
"278 -6 CURVE SMOOTH"
);
},
{
closed = 1;
nodes = (
"94 464 OFFCURVE",
"135 515 OFFCURVE",
"283 515 CURVE SMOOTH",
"405 515 OFFCURVE",
"450 483 OFFCURVE",
"450 367 CURVE SMOOTH",
"450 295 OFFCURVE",
"414 273 OFFCURVE",
"338 273 CURVE SMOOTH",
"94 273 LINE"
);
}
);
width = 544;
},
{
anchors = (
{
name = bottom;
position = "{270, -150}";
},
{
name = ogonek;
position = "{475, 25}";
},
{
name = top;
position = "{270, 650}";
}
);
background = {
paths = (
{
closed = 1;
nodes = (
"222 318 CURVE",
"280 318 LINE SMOOTH",
"297 318 OFFCURVE",
"309 331 OFFCURVE",
"309 350 CURVE SMOOTH",
"309 386 OFFCURVE",
"308 401 OFFCURVE",
"274 401 CURVE SMOOTH",
"232 401 OFFCURVE",
"220 394 OFFCURVE"
);
},
{
closed = 1;
nodes = (
"28 268 CURVE SMOOTH",
"28 489 OFFCURVE",
"88 535 OFFCURVE",
"260 535 CURVE SMOOTH",
"437 535 OFFCURVE",
"503 513 OFFCURVE",
"503 337 CURVE SMOOTH",
"503 228 OFFCURVE",
"442 195 OFFCURVE",
"346 195 CURVE SMOOTH",
"222 195 LINE",
"222 123 OFFCURVE",
"269 138 OFFCURVE",
"343 138 CURVE SMOOTH",
"415 138 OFFCURVE",
"418 138 OFFCURVE",
"493 149 CURVE",
"493 23 LINE",
"423 -9 OFFCURVE",
"286 -5 OFFCURVE",
"203 -5 CURVE SMOOTH",
"68 -5 OFFCURVE",
"28 84 OFFCURVE"
);
}
);
};
layerId = "63BEBE16-5EEB-4E8E-8514-0A5E9B1E5A6A";
paths = (
{
closed = 1;
nodes = (
"376.304 -5 OFFCURVE",
"438 11 OFFCURVE",
"485 25 CURVE",
"485 138 LINE",
"338 138 LINE SMOOTH",
"244.145 138 OFFCURVE",
"227.003 154.972 OFFCURVE",
"222 203 CURVE",
"318 203 LINE SMOOTH",
"432 203 OFFCURVE",
"505 239 OFFCURVE",
"505 357 CURVE SMOOTH",
"505 509 OFFCURVE",
"447 548 OFFCURVE",
"276 548 CURVE SMOOTH",
"90 548 OFFCURVE",
"30 490 OFFCURVE",
"30 268 CURVE SMOOTH",
"30 51 OFFCURVE",
"101.4 -5 OFFCURVE",
"285 -5 CURVE SMOOTH"
);
},
{
closed = 1;
nodes = (
"220 389.705 OFFCURVE",
"237 410 OFFCURVE",
"276 410 CURVE SMOOTH",
"317.836 410 OFFCURVE",
"335 394 OFFCURVE",
"335 356 CURVE SMOOTH",
"335 327 OFFCURVE",
"323.824 316 OFFCURVE",
"297 316 CURVE SMOOTH",
"220 316 LINE"
);
}
);
width = 535;
}
);
leftKerningGroup = e;
note = "\012    GF Latin Plus glyph\012  ";
rightKerningGroup = e;
unicode = 0065;
userData = {
com.fontlab.hintData = {
hhints = (
{
position = -5;
width = 24;
},
{
position = 250;
width = 23;
},
{
position = 511;
width = 24;
}
);
vhints = (
{
position = 68;
width = 24;
},
{
position = 448;
width = 24;
}
);
};
com.typemytype.robofont.layerData = {
background = {
anchors = (
);
components = (
{
baseGlyph = c;
transformation = (
1,
0,
0,
1,
0,
0
);
}
);
contours = (
{
points = (
{
segmentType = curve;
smooth = 0;
x = 592;
y = 273;
},
{
segmentType = line;
smooth = 1;
x = 836;
y = 273;
},
{
smooth = 0;
x = 892;
y = 273;
},
{
smooth = 0;
x = 948;
y = 277;
},
{
segmentType = curve;
smooth = 1;
x = 948;
y = 347;
},
{
smooth = 0;
x = 948;
y = 497;
},
{
smooth = 0;
x = 888;
y = 511;
},
{
segmentType = curve;
smooth = 1;
x = 770;
y = 511;
},
{
smooth = 0;
x = 631;
y = 511;
},
{
smooth = 0;
x = 592;
y = 481;
}
);
},
{
points = (
{
segmentType = curve;
smooth = 1;
x = 568;
y = 268;
},
{
smooth = 0;
x = 568;
y = 502;
},
{
smooth = 0;
x = 622;
y = 535;
},
{
segmentType = curve;
smooth = 1;
x = 770;
y = 535;
},
{
smooth = 0;
x = 891;
y = 535;
},
{
smooth = 0;
x = 972;
y = 523;
},
{
segmentType = curve;
smooth = 1;
x = 972;
y = 347;
},
{
smooth = 0;
x = 972;
y = 268;
},
{
smooth = 0;
x = 922;
y = 250;
},
{
segmentType = curve;
smooth = 1;
x = 836;
y = 250;
},
{
segmentType = line;
smooth = 0;
x = 592;
y = 250;
},
{
smooth = 0;
x = 592;
y = 48;
},
{
smooth = 0;
x = 655;
y = 19;
},
{
segmentType = curve;
smooth = 1;
x = 742;
y = 19;
},
{
smooth = 0;
x = 834;
y = 19;
},
{
smooth = 0;
x = 887;
y = 28;
},
{
segmentType = curve;
smooth = 0;
x = 962;
y = 39;
},
{
segmentType = line;
smooth = 0;
x = 962;
y = 23;
},
{
smooth = 0;
x = 881;
y = 0;
},
{
smooth = 0;
x = 825;
y = -6;
},
{
segmentType = curve;
smooth = 1;
x = 742;
y = -5;
},
{
smooth = 0;
x = 606;
y = -3;
},
{
smooth = 0;
x = 568;
y = 72;
}
);
}
);
lib = {
};
name = e;
unicodes = (
);
width = 544;
};
};
};
},
{
glyphname = f;
layers = (
{
anchors = (
{
name = top;
position = "{250, 850}";
}
);
background = {
paths = (
{
closed = 1;
nodes = (
"27 507 LINE",
"27 521 LINE",
"114 531 LINE",
"114 630 LINE SMOOTH",
"114 684 OFFCURVE",
"117 786 OFFCURVE",
"207 786 CURVE SMOOTH",
"237 786 OFFCURVE",
"321 785 OFFCURVE",
"357 775 CURVE",
"357 762 LINE",
"215 762 LINE SMOOTH",
"147 762 OFFCURVE",
"138 708 OFFCURVE",
"138 630 CURVE SMOOTH",
"138 531 LINE",
"316 531 LINE",
"316 507 LINE",
"138 507 LINE",
"138 0 LINE",
"114 0 LINE",
"114 507 LINE"
);
}
);
};
layerId = "970D4E8E-4EF0-498B-97F3-F7DEE39AB542";
paths = (
{
closed = 1;
nodes = (
"138 0 LINE",
"138 509 LINE",
"326 509 LINE",
"326 531 LINE",
"138 531 LINE",
"138 613 LINE SMOOTH",
"138 699 OFFCURVE",
"154 747 OFFCURVE",
"248 747 CURVE SMOOTH",
"343 747 LINE",
"343 763 LINE",
"316 766 OFFCURVE",
"293 769 OFFCURVE",
"247 769 CURVE SMOOTH",
"137 769 OFFCURVE",
"114 707 OFFCURVE",
"114 613 CURVE SMOOTH",
"114 531 LINE",
"27 525 LINE",
"27 509 LINE",
"114 509 LINE",
"114 0 LINE"
);
}
);
width = 348;
},
{
anchors = (
{
name = top;
position = "{280, 880}";
}
);
background = {
paths = (
{
closed = 1;
nodes = (
"15 397 LINE",
"15 514 LINE",
"87 531 LINE",
"87 630 LINE SMOOTH",
"87 751 OFFCURVE",
"151 786 OFFCURVE",
"271 786 CURVE SMOOTH",
"320 786 OFFCURVE",
"361 782 OFFCURVE",
"400 762 CURVE",
"400 651 LINE",
"399 651 OFFCURVE",
"327 652 OFFCURVE",
"327 652 CURVE SMOOTH",
"277 653 OFFCURVE",
"281 632 OFFCURVE",
"281 570 CURVE SMOOTH",
"281 531 LINE",
"379 531 LINE",
"379 397 LINE",
"281 397 LINE",
"281 0 LINE",
"87 0 LINE",
"87 397 LINE"
);
}
);
};
layerId = "63BEBE16-5EEB-4E8E-8514-0A5E9B1E5A6A";
paths = (
{
closed = 1;
nodes = (
"281 0 LINE",
"281 385 LINE",
"399 385 LINE",
"399 539 LINE",
"281 539 LINE",
"281 569 LINE SMOOTH",
"281 602 OFFCURVE",
"294 612 OFFCURVE",
"322 612 CURVE SMOOTH",
"399 612 LINE",
"399 751 LINE",
"375 759 OFFCURVE",
"328 769 OFFCURVE",
"282 769 CURVE SMOOTH",
"148 769 OFFCURVE",
"87 710 OFFCURVE",
"87 558 CURVE SMOOTH",
"87 539 LINE",
"15 509 LINE",
"15 385 LINE",
"87 385 LINE",
"87 0 LINE"
);
}
);
width = 409;
}
);
note = "\012    GF Latin Plus glyph\012  ";
rightKerningGroup = f;
unicode = 0066;
userData = {
com.fontlab.hintData = {
hhints = (
{
position = 0;
width = 21;
},
{
position = 507;
width = 24;
},
{
position = 507;
width = 14;
},
{
position = 762;
width = 24;
},
{
position = 762;
width = 13;
}
);
vhints = (
{
position = 114;
width = 24;
}
);
};
com.typemytype.robofont.layerData = {
background = {
anchors = (
);
components = (
);
contours = (
{
points = (
{
segmentType = line;
smooth = 0;
x = 27;
y = 507;
},
{
segmentType = line;
smooth = 0;
x = 27;
y = 521;
},
{
segmentType = line;
smooth = 0;
x = 114;
y = 531;
},
{
segmentType = line;
smooth = 1;
x = 114;
y = 630;
},
{
smooth = 0;
x = 114;
y = 684;
},
{
smooth = 0;
x = 117;
y = 786;
},
{
segmentType = curve;
smooth = 1;
x = 207;
y = 786;
},
{
smooth = 0;
x = 237;
y = 786;
},
{
smooth = 0;
x = 321;
y = 785;
},
{
segmentType = curve;
smooth = 0;
x = 357;
y = 775;
},
{
segmentType = line;
smooth = 0;
x = 357;
y = 762;
},
{
segmentType = line;
smooth = 1;
x = 215;
y = 762;
},
{
smooth = 0;
x = 147;
y = 762;
},
{
smooth = 0;
x = 138;
y = 708;
},
{
segmentType = curve;
smooth = 1;
x = 138;
y = 630;
},
{
segmentType = line;
smooth = 0;
x = 138;
y = 531;
},
{
segmentType = line;
smooth = 0;
x = 316;
y = 531;
},
{
segmentType = line;
smooth = 0;
x = 316;
y = 507;
},
{
segmentType = line;
smooth = 0;
x = 138;
y = 507;
},
{
segmentType = line;
smooth = 0;
x = 138;
y = 0;
},
{
segmentType = line;
smooth = 0;
x = 114;
y = 0;
},
{
segmentType = line;
smooth = 0;
x = 114;
y = 507;
}
);
}
);
lib = {
};
name = f;
unicodes = (
);
width = 348;
};
};
};
},
{
glyphname = g;
layers = (
{
anchors = (
{
name = top;
position = "{288, 650}";
}
);
background = {
paths = (
{
closed = 1;
nodes = (
"85 344 CURVE SMOOTH",
"85 238 OFFCURVE",
"141 198 OFFCURVE",
"226 198 CURVE SMOOTH",
"328 198 LINE SMOOTH",
"436 198 OFFCURVE",
"471 270 OFFCURVE",
"471 344 CURVE SMOOTH",
"471 458 OFFCURVE",
"421 509 OFFCURVE",
"371 509 CURVE SMOOTH",
"223 509 LINE SMOOTH",
"113 509 OFFCURVE",
"85 442 OFFCURVE"
);
},
{
closed = 1;
nodes = (
"85 -116 LINE SMOOTH",
"85 -228 OFFCURVE",
"176 -246 OFFCURVE",
"216 -246 CURVE SMOOTH",
"366 -246 LINE SMOOTH",
"436 -246 OFFCURVE",
"492 -220 OFFCURVE",
"492 -126 CURVE SMOOTH",
"492 -73 LINE SMOOTH",
"492 -14 OFFCURVE",
"461.5 37 OFFCURVE",
"371 37 CURVE SMOOTH",
"167 37 LINE SMOOTH",
"113 37 OFFCURVE",
"85 66 OFFCURVE",
"85 66 CURVE"
);
},
{
closed = 1;
nodes = (
"63 120 CURVE SMOOTH",
"63 150 OFFCURVE",
"89.5 186 OFFCURVE",
"148 188 CURVE",
"74 218 OFFCURVE",
"61 285 OFFCURVE",
"61 344 CURVE SMOOTH",
"61 476 OFFCURVE",
"112 533 OFFCURVE",
"233 533 CURVE SMOOTH",
"545 533 LINE",
"545 519 LINE",
"434 509 LINE",
"452 496 OFFCURVE",
"495 459 OFFCURVE",
"495 344 CURVE SMOOTH",
"495 284 OFFCURVE",
"472 173 OFFCURVE",
"330 173 CURVE SMOOTH",
"174 173 LINE SMOOTH",
"158 173 OFFCURVE",
"85 168 OFFCURVE",
"85 116 CURVE SMOOTH",
"85 76 OFFCURVE",
"137 60 OFFCURVE",
"165 60 CURVE SMOOTH",
"371 60 LINE SMOOTH",
"465.5 60 OFFCURVE",
"516 6 OFFCURVE",
"516 -73 CURVE SMOOTH",
"516 -126 LINE SMOOTH",
"516 -186 OFFCURVE",
"497 -270 OFFCURVE",
"366 -270 CURVE SMOOTH",
"216 -270 LINE SMOOTH",
"122 -270 OFFCURVE",
"60 -215 OFFCURVE",
"60 -116 CURVE SMOOTH",
"60 -22 LINE",
"72 83 LINE",
"65 92.5 OFFCURVE",
"63 106 OFFCURVE"
);
}
);
};
layerId = "970D4E8E-4EF0-498B-97F3-F7DEE39AB542";
paths = (
{
closed = 1;
nodes = (
"356 -243 LINE SMOOTH",
"478 -243 OFFCURVE",
"546 -189 OFFCURVE",
"546 -98 CURVE SMOOTH",
"546 -70 LINE SMOOTH",
"546 16 OFFCURVE",
"495.744 65 OFFCURVE",
"371 65 CURVE SMOOTH",
"171 65 LINE SMOOTH",
"142 65 OFFCURVE",
"107 80.826 OFFCURVE",
"107 121 CURVE SMOOTH",
"107 175.439 OFFCURVE",
"150 193 OFFCURVE",
"223 193 CURVE SMOOTH",
"300 193 LINE SMOOTH",
"444 193 OFFCURVE",
"485 279.62 OFFCURVE",
"485 354 CURVE SMOOTH",
"485 467.754 OFFCURVE",
"426.633 495.178 OFFCURVE",
"394 511 CURVE",
"545 517 LINE",
"545 533 LINE",
"263 533 LINE SMOOTH",
"158 533 OFFCURVE",
"71 491.458 OFFCURVE",
"71 364 CURVE SMOOTH",
"71 305.735 OFFCURVE",
"90.519 236.823 OFFCURVE",
"175 208 CURVE",
"116.954 196.991 OFFCURVE",
"83 173.021 OFFCURVE",
"83 121 CURVE SMOOTH",
"83 71.676 OFFCURVE",
"124 43 OFFCURVE",
"177 43 CURVE SMOOTH",
"371 43 LINE SMOOTH",
"492.162 43 OFFCURVE",
"524 -4 OFFCURVE",
"524 -73 CURVE SMOOTH",
"524 -98 LINE SMOOTH",
"524 -182 OFFCURVE",
"461 -221 OFFCURVE",
"356 -221 CURVE SMOOTH",
"216 -221 LINE SMOOTH",
"124 -221 OFFCURVE",
"62 -193 OFFCURVE",
"62 -108 CURVE SMOOTH",
"62 -78 LINE SMOOTH",
"62 10 OFFCURVE",
"137.903 43 OFFCURVE",
"209 43 CURVE",
"209 63 LINE",
"131.581 63 OFFCURVE",
"40 19.693 OFFCURVE",
"40 -78 CURVE SMOOTH",
"40 -108 LINE SMOOTH",
"40 -201 OFFCURVE",
"110 -243 OFFCURVE",
"216 -243 CURVE SMOOTH"
);
},
{
closed = 1;
nodes = (
"151 215 OFFCURVE",
"95 258.107 OFFCURVE",
"95 364 CURVE SMOOTH",
"95 472.611 OFFCURVE",
"157 511 OFFCURVE",
"253 511 CURVE SMOOTH",
"311 511 LINE SMOOTH",
"396 511 OFFCURVE",
"461 470.575 OFFCURVE",
"461 354 CURVE SMOOTH",
"461 284.966 OFFCURVE",
"431 215 OFFCURVE",
"298 215 CURVE SMOOTH",
"236 215 LINE SMOOTH"
);
}
);
width = 571;
},
{
anchors = (
{
name = top;
position = "{291, 650}";
}
);
background = {
paths = (
{
closed = 1;
nodes = (
"225 344 CURVE SMOOTH",
"225 295 OFFCURVE",
"240 293 OFFCURVE",
"267 293 CURVE SMOOTH",
"289 293 LINE SMOOTH",
"320 293 OFFCURVE",
"332 295 OFFCURVE",
"332 344 CURVE SMOOTH",
"332 387.046 OFFCURVE",
"313 389 OFFCURVE",
"288 389 CURVE SMOOTH",
"264 389 LINE SMOOTH",
"228 389 OFFCURVE",
"225 371 OFFCURVE"
);
},
{
closed = 1;
nodes = (
"232 -85 LINE SMOOTH",
"232 -121 OFFCURVE",
"241 -126 OFFCURVE",
"276 -126 CURVE SMOOTH",
"304 -126 LINE SMOOTH",
"347 -126 OFFCURVE",
"344 -108 OFFCURVE",
"344 -90 CURVE SMOOTH",
"344 -67 LINE SMOOTH",
"344 -51 OFFCURVE",
"330.068 -35.76 OFFCURVE",
"305 -35 CURVE SMOOTH",
"272 -35 LINE",
"232 -35 LINE"
);
},
{
closed = 1;
nodes = (
"26 92 CURVE SMOOTH",
"26 141 OFFCURVE",
"45 178 OFFCURVE",
"90 196 CURVE",
"46 224 OFFCURVE",
"31 291 OFFCURVE",
"31 344 CURVE SMOOTH",
"31 471 OFFCURVE",
"94 533 OFFCURVE",
"224 533 CURVE SMOOTH",
"556 533 LINE",
"556 427 LINE",
"515 409 LINE",
"523 386 OFFCURVE",
"526 370 OFFCURVE",
"526 314 CURVE SMOOTH",
"526 224 OFFCURVE",
"487 149 OFFCURVE",
"331 149 CURVE SMOOTH",
"235 149 LINE SMOOTH",
"219 149 OFFCURVE",
"195 152 OFFCURVE",
"195 131 CURVE SMOOTH",
"195 110 OFFCURVE",
"212.909 110 OFFCURVE",
"235 110 CURVE SMOOTH",
"357 110 LINE SMOOTH",
"464 110 OFFCURVE",
"537 64 OFFCURVE",
"537 -63 CURVE SMOOTH",
"537 -116 LINE SMOOTH",
"537 -206 OFFCURVE",
"488 -270 OFFCURVE",
"357 -270 CURVE SMOOTH",
"207 -270 LINE SMOOTH",
"113 -270 OFFCURVE",
"37 -222 OFFCURVE",
"37 -116 CURVE SMOOTH",
"37 -63 LINE",
"89 -28 LINE",
"61 -16 OFFCURVE",
"26 22 OFFCURVE"
);
}
);
};
layerId = "63BEBE16-5EEB-4E8E-8514-0A5E9B1E5A6A";
paths = (
{
closed = 1;
nodes = (
"357 -250 LINE SMOOTH",
"502 -250 OFFCURVE",
"567 -182 OFFCURVE",
"567 -70 CURVE SMOOTH",
"567 -61 LINE SMOOTH",
"567 67 OFFCURVE",
"488 110 OFFCURVE",
"366 110 CURVE SMOOTH",
"236 110 LINE SMOOTH",
"214 110 OFFCURVE",
"196 114 OFFCURVE",
"196 131 CURVE SMOOTH",
"196 148 OFFCURVE",
"214 155 OFFCURVE",
"236 155 CURVE SMOOTH",
"338 155 LINE SMOOTH",
"477 155 OFFCURVE",
"535 220 OFFCURVE",
"535 320 CURVE SMOOTH",
"535 366 OFFCURVE",
"528 394 OFFCURVE",
"514 415 CURVE",
"571 433 LINE",
"571 539 LINE",
"277 539 LINE SMOOTH",
"109 539 OFFCURVE",
"42 477 OFFCURVE",
"42 361 CURVE SMOOTH",
"42 299 OFFCURVE",
"64.862 244.441 OFFCURVE",
"121 208 CURVE",
"66.784 194.668 OFFCURVE",
"34 151.027 OFFCURVE",
"34 97 CURVE SMOOTH",
"34 24.899 OFFCURVE",
"96.384 -34 OFFCURVE",
"241 -34 CURVE SMOOTH",
"333 -34 LINE SMOOTH",
"362 -34 OFFCURVE",
"383 -46 OFFCURVE",
"383 -69 CURVE SMOOTH",
"383 -81 LINE SMOOTH",
"383 -104 OFFCURVE",
"362 -116 OFFCURVE",
"333 -116 CURVE SMOOTH",
"245 -116 LINE SMOOTH",
"210 -116 OFFCURVE",
"196 -98 OFFCURVE",
"196 -77 CURVE SMOOTH",
"196 -72 LINE SMOOTH",
"196 -50 OFFCURVE",
"211 -34 OFFCURVE",
"245 -34 CURVE",
"184 22 LINE",
"94 22 OFFCURVE",
"12 -29.446 OFFCURVE",
"12 -112 CURVE SMOOTH",
"12 -123 LINE SMOOTH",
"12 -203.121 OFFCURVE",
"89 -250 OFFCURVE",
"188 -250 CURVE SMOOTH"
);
},
{
closed = 1;
nodes = (
"227 299 OFFCURVE",
"216 314 OFFCURVE",
"216 348 CURVE SMOOTH",
"216 382 OFFCURVE",
"227 395 OFFCURVE",
"261 395 CURVE SMOOTH",
"316 395 LINE SMOOTH",
"350 395 OFFCURVE",
"361 382 OFFCURVE",
"361 348 CURVE SMOOTH",
"361 314 OFFCURVE",
"350 299 OFFCURVE",
"316 299 CURVE SMOOTH",
"261 299 LINE SMOOTH"
);
}
);
width = 586;
}
);
leftKerningGroup = g;
note = "\012    GF Latin Plus glyph\012  ";
rightKerningGroup = g;
unicode = 0067;
userData = {
com.fontlab.hintData = {
hhints = (
{
position = -270;
width = 24;
},
{
position = 37;
width = 23;
},
{
position = 173;
width = 25;
},
{
position = 509;
width = 24;
},
{
position = 519;
width = 14;
}
);
vhints = (
{
position = 64;
width = 22;
},
{
position = 472;
width = 24;
},
{
position = 493;
width = 24;
}
);
};
com.typemytype.robofont.layerData = {
background = {
anchors = (
);
components = (
);
contours = (
{
points = (
{
segmentType = curve;
smooth = 1;
x = 85;
y = 344;
},
{
smooth = 0;
x = 85;
y = 238;
},
{
smooth = 0;
x = 141;
y = 198;
},
{
segmentType = curve;
smooth = 1;
x = 226;
y = 198;
},
{
segmentType = line;
smooth = 1;
x = 328;
y = 198;
},
{
smooth = 0;
x = 436;
y = 198;
},
{
smooth = 0;
x = 471;
y = 270;
},
{
segmentType = curve;
smooth = 1;
x = 471;
y = 344;
},
{
smooth = 0;
x = 471;
y = 458;
},
{
smooth = 0;
x = 421;
y = 509;
},
{
segmentType = curve;
smooth = 1;
x = 371;
y = 509;
},
{
segmentType = line;
smooth = 1;
x = 223;
y = 509;
},
{
smooth = 0;
x = 113;
y = 509;
},
{
smooth = 0;
x = 85;
y = 442;
}
);
},
{
points = (
{
segmentType = line;
smooth = 1;
x = 85;
y = -116;
},
{
smooth = 0;
x = 85;
y = -228;
},
{
smooth = 0;
x = 176;
y = -246;
},
{
segmentType = curve;
smooth = 1;
x = 216;
y = -246;
},
{
segmentType = line;
smooth = 1;
x = 366;
y = -246;
},
{
smooth = 0;
x = 436;
y = -246;
},
{
smooth = 0;
x = 492;
y = -220;
},
{
segmentType = curve;
smooth = 1;
x = 492;
y = -126;
},
{
segmentType = line;
smooth = 1;
x = 492;
y = -73;
},
{
smooth = 0;
x = 492;
y = -14;
},
{
smooth = 0;
x = 461.5;
y = 37;
},
{
segmentType = curve;
smooth = 1;
x = 371;
y = 37;
},
{
segmentType = line;
smooth = 1;
x = 167;
y = 37;
},
{
smooth = 0;
x = 113;
y = 37;
},
{
smooth = 0;
x = 85;
y = 66;
},
{
segmentType = curve;
smooth = 0;
x = 85;
y = 66;
}
);
},
{
points = (
{
segmentType = curve;
smooth = 1;
x = 63;
y = 120;
},
{
smooth = 0;
x = 63;
y = 150;
},
{
smooth = 0;
x = 89.5;
y = 186;
},
{
segmentType = curve;
smooth = 0;
x = 148;
y = 188;
},
{
smooth = 0;
x = 74;
y = 218;
},
{
smooth = 0;
x = 61;
y = 285;
},
{
segmentType = curve;
smooth = 1;
x = 61;
y = 344;
},
{
smooth = 0;
x = 61;
y = 476;
},
{
smooth = 0;
x = 112;
y = 533;
},
{
segmentType = curve;
smooth = 1;
x = 233;
y = 533;
},
{
segmentType = line;
smooth = 0;
x = 545;
y = 533;
},
{
segmentType = line;
smooth = 0;
x = 545;
y = 519;
},
{
segmentType = line;
smooth = 0;
x = 434;
y = 509;
},
{
smooth = 0;
x = 452;
y = 496;
},
{
smooth = 0;
x = 495;
y = 459;
},
{
segmentType = curve;
smooth = 1;
x = 495;
y = 344;
},
{
smooth = 0;
x = 495;
y = 284;
},
{
smooth = 0;
x = 472;
y = 173;
},
{
segmentType = curve;
smooth = 1;
x = 330;
y = 173;
},
{
segmentType = line;
smooth = 1;
x = 174;
y = 173;
},
{
smooth = 0;
x = 158;
y = 173;
},
{
smooth = 0;
x = 85;
y = 168;
},
{
segmentType = curve;
smooth = 1;
x = 85;
y = 116;
},
{
smooth = 0;
x = 85;
y = 76;
},
{
smooth = 0;
x = 137;
y = 60;
},
{
segmentType = curve;
smooth = 1;
x = 165;
y = 60;
},
{
segmentType = line;
smooth = 1;
x = 371;
y = 60;
},
{
smooth = 0;
x = 465.5;
y = 60;
},
{
smooth = 0;
x = 516;
y = 6;
},
{
segmentType = curve;
smooth = 1;
x = 516;
y = -73;
},
{
segmentType = line;
smooth = 1;
x = 516;
y = -126;
},
{
smooth = 0;
x = 516;
y = -186;
},
{
smooth = 0;
x = 497;
y = -270;
},
{
segmentType = curve;
smooth = 1;
x = 366;
y = -270;
},
{
segmentType = line;
smooth = 1;
x = 216;
y = -270;
},
{
smooth = 0;
x = 122;
y = -270;
},
{
smooth = 0;
x = 60;
y = -215;
},
{
segmentType = curve;
smooth = 1;
x = 60;
y = -116;
},
{
segmentType = line;
smooth = 0;
x = 60;
y = -22;
},
{
segmentType = line;
smooth = 0;
x = 72;
y = 83;
},
{
smooth = 0;
x = 65;
y = 92.5;
},
{
smooth = 0;
x = 63;
y = 106;
}
);
}
);
lib = {
};
name = g;
unicodes = (
);
width = 571;
};
};
};
},
